<?xml version="1.0" encoding="utf-8" standalone="no"?>
<!DOCTYPE svg PUBLIC "-//W3C//DTD SVG 1.1//EN"
  "http://www.w3.org/Graphics/SVG/1.1/DTD/svg11.dtd">
<svg xmlns:xlink="http://www.w3.org/1999/xlink" width="432pt" height="576pt" viewBox="0 0 432 576" xmlns="http://www.w3.org/2000/svg" version="1.1">
 <metadata>
  <rdf:RDF xmlns:dc="http://purl.org/dc/elements/1.1/" xmlns:cc="http://creativecommons.org/ns#" xmlns:rdf="http://www.w3.org/1999/02/22-rdf-syntax-ns#">
   <cc:Work>
    <dc:type rdf:resource="http://purl.org/dc/dcmitype/StillImage"/>
    <dc:date>2025-06-23T14:08:34.814021</dc:date>
    <dc:format>image/svg+xml</dc:format>
    <dc:creator>
     <cc:Agent>
      <dc:title>Matplotlib v3.10.1, https://matplotlib.org/</dc:title>
     </cc:Agent>
    </dc:creator>
   </cc:Work>
  </rdf:RDF>
 </metadata>
 <defs>
  <style type="text/css">*{stroke-linejoin: round; stroke-linecap: butt}</style>
 </defs>
 <g id="figure_1">
  <g id="patch_1">
   <path d="M 0 576 
L 432 576 
L 432 0 
L 0 0 
z
" style="fill: #ffffff"/>
  </g>
  <g id="patch_2">
   <path d="M 0 496.08 
L 410.4 496.08 
L 410.4 85.68 
L 0 85.68 
z
" style="fill: #ffffff"/>
  </g>
  <g id="pane3d_1">
   <g id="patch_3">
    <path d="M 366.478225 387.044296 
L 133.591227 354.804475 
L 54.299976 426.198638 
L 302.447306 464.157426 
" style="fill: #f2f2f2; opacity: 0.5; stroke: #f2f2f2; stroke-linejoin: miter"/>
   </g>
  </g>
  <g id="pane3d_2">
   <g id="patch_4">
    <path d="M 133.591227 354.804475 
L 125.871339 119.823277 
L 42.48759 175.442912 
L 54.299976 426.198638 
" style="fill: #e6e6e6; opacity: 0.5; stroke: #e6e6e6; stroke-linejoin: miter"/>
   </g>
  </g>
  <g id="pane3d_3">
   <g id="patch_5">
    <path d="M 366.478225 387.044296 
L 368.268149 143.500425 
L 125.871339 119.823277 
L 133.591227 354.804475 
" style="fill: #ececec; opacity: 0.5; stroke: #ececec; stroke-linejoin: miter"/>
   </g>
  </g>
  <g id="grid3d_1">
   <g id="Line3DCollection_1">
    <path d="M 366.676687 360.040844 
L 132.734017 328.712333 
L 52.991979 398.432224 
" style="fill: none; stroke: #b0b0b0; stroke-width: 0.8"/>
    <path d="M 366.99712 316.441542 
L 131.350639 286.604492 
L 50.879203 353.581771 
" style="fill: none; stroke: #b0b0b0; stroke-width: 0.8"/>
    <path d="M 367.322412 272.181043 
L 129.947114 243.883419 
L 48.733237 308.026772 
" style="fill: none; stroke: #b0b0b0; stroke-width: 0.8"/>
    <path d="M 367.652675 227.244192 
L 128.522999 200.535618 
L 46.553293 261.750494 
" style="fill: none; stroke: #b0b0b0; stroke-width: 0.8"/>
    <path d="M 367.988024 181.615366 
L 127.077838 156.547197 
L 44.338559 214.735669 
" style="fill: none; stroke: #b0b0b0; stroke-width: 0.8"/>
   </g>
  </g>
  <g id="grid3d_2">
   <g id="Line3DCollection_2">
    <path d="M 300.558075 463.868432 
L 364.710672 386.799604 
L 366.425415 143.320428 
" style="fill: none; stroke: #b0b0b0; stroke-width: 0.8"/>
    <path d="M 255.470917 456.971506 
L 322.502421 380.956485 
L 322.435567 139.023531 
" style="fill: none; stroke: #b0b0b0; stroke-width: 0.8"/>
    <path d="M 211.066028 450.178946 
L 280.886008 375.195297 
L 279.0882 134.789391 
" style="fill: none; stroke: #b0b0b0; stroke-width: 0.8"/>
    <path d="M 167.328039 443.4884 
L 239.849071 369.514329 
L 236.36934 130.616643 
" style="fill: none; stroke: #b0b0b0; stroke-width: 0.8"/>
    <path d="M 124.242037 436.897588 
L 199.37959 363.911918 
L 194.265417 126.503962 
" style="fill: none; stroke: #b0b0b0; stroke-width: 0.8"/>
    <path d="M 81.793552 430.404296 
L 159.465876 358.386444 
L 152.763247 122.45006 
" style="fill: none; stroke: #b0b0b0; stroke-width: 0.8"/>
   </g>
  </g>
  <g id="grid3d_3">
   <g id="Line3DCollection_3">
    <path d="M 111.906351 129.138372 
L 120.277032 366.79263 
L 355.754421 399.95909 
" style="fill: none; stroke: #b0b0b0; stroke-width: 0.8"/>
    <path d="M 97.035402 139.057772 
L 106.114437 379.544688 
L 344.334923 413.711715 
" style="fill: none; stroke: #b0b0b0; stroke-width: 0.8"/>
    <path d="M 81.737439 149.262004 
L 91.561653 392.648074 
L 332.587518 427.859241 
" style="fill: none; stroke: #b0b0b0; stroke-width: 0.8"/>
    <path d="M 65.993802 159.763515 
L 76.602329 406.117509 
L 320.497878 442.418926 
" style="fill: none; stroke: #b0b0b0; stroke-width: 0.8"/>
    <path d="M 49.784727 170.575487 
L 61.21919 419.96855 
L 308.050824 457.409047 
" style="fill: none; stroke: #b0b0b0; stroke-width: 0.8"/>
   </g>
  </g>
  <g id="axis3d_1">
   <g id="line2d_1">
    <path d="M 366.478225 387.044296 
L 368.268149 143.500425 
" style="fill: none; stroke: #000000; stroke-width: 0.8; stroke-linecap: square"/>
   </g>
   <g id="xtick_1">
    <g id="line2d_2">
     <path d="M 364.729584 359.780098 
L 370.5747 360.562848 
" style="fill: none; stroke: #000000; stroke-width: 0.8; stroke-linecap: square"/>
    </g>
    <g id="text_1">
     <!-- −2 -->
     <g transform="translate(375.577184 365.647828) scale(0.1 -0.1)">
      <defs>
       <path id="DejaVuSans-2212" d="M 678 2272 
L 4684 2272 
L 4684 1741 
L 678 1741 
L 678 2272 
z
" transform="scale(0.015625)"/>
       <path id="DejaVuSans-32" d="M 1228 531 
L 3431 531 
L 3431 0 
L 469 0 
L 469 531 
Q 828 903 1448 1529 
Q 2069 2156 2228 2338 
Q 2531 2678 2651 2914 
Q 2772 3150 2772 3378 
Q 2772 3750 2511 3984 
Q 2250 4219 1831 4219 
Q 1534 4219 1204 4116 
Q 875 4013 500 3803 
L 500 4441 
Q 881 4594 1212 4672 
Q 1544 4750 1819 4750 
Q 2544 4750 2975 4387 
Q 3406 4025 3406 3419 
Q 3406 3131 3298 2873 
Q 3191 2616 2906 2266 
Q 2828 2175 2409 1742 
Q 1991 1309 1228 531 
z
" transform="scale(0.015625)"/>
      </defs>
      <use xlink:href="#DejaVuSans-2212"/>
      <use xlink:href="#DejaVuSans-32" transform="translate(83.789062 0)"/>
     </g>
    </g>
   </g>
   <g id="xtick_2">
    <g id="line2d_3">
     <path d="M 365.035263 316.193136 
L 370.924697 316.938843 
" style="fill: none; stroke: #000000; stroke-width: 0.8; stroke-linecap: square"/>
    </g>
    <g id="text_2">
     <!-- 0 -->
     <g transform="translate(380.209097 322.113963) scale(0.1 -0.1)">
      <defs>
       <path id="DejaVuSans-30" d="M 2034 4250 
Q 1547 4250 1301 3770 
Q 1056 3291 1056 2328 
Q 1056 1369 1301 889 
Q 1547 409 2034 409 
Q 2525 409 2770 889 
Q 3016 1369 3016 2328 
Q 3016 3291 2770 3770 
Q 2525 4250 2034 4250 
z
M 2034 4750 
Q 2819 4750 3233 4129 
Q 3647 3509 3647 2328 
Q 3647 1150 3233 529 
Q 2819 -91 2034 -91 
Q 1250 -91 836 529 
Q 422 1150 422 2328 
Q 422 3509 836 4129 
Q 1250 4750 2034 4750 
z
" transform="scale(0.015625)"/>
      </defs>
      <use xlink:href="#DejaVuSans-30"/>
     </g>
    </g>
   </g>
   <g id="xtick_3">
    <g id="line2d_4">
     <path d="M 365.345577 271.945384 
L 371.280006 272.65283 
" style="fill: none; stroke: #000000; stroke-width: 0.8; stroke-linecap: square"/>
    </g>
    <g id="text_3">
     <!-- 2 -->
     <g transform="translate(380.657858 277.921122) scale(0.1 -0.1)">
      <use xlink:href="#DejaVuSans-32"/>
     </g>
    </g>
   </g>
   <g id="xtick_4">
    <g id="line2d_5">
     <path d="M 365.660631 227.021699 
L 371.640748 227.689623 
" style="fill: none; stroke: #000000; stroke-width: 0.8; stroke-linecap: square"/>
    </g>
    <g id="text_4">
     <!-- 4 -->
     <g transform="translate(381.113464 233.054226) scale(0.1 -0.1)">
      <defs>
       <path id="DejaVuSans-34" d="M 2419 4116 
L 825 1625 
L 2419 1625 
L 2419 4116 
z
M 2253 4666 
L 3047 4666 
L 3047 1625 
L 3713 1625 
L 3713 1100 
L 3047 1100 
L 3047 0 
L 2419 0 
L 2419 1100 
L 313 1100 
L 313 1709 
L 2253 4666 
z
" transform="scale(0.015625)"/>
      </defs>
      <use xlink:href="#DejaVuSans-34"/>
     </g>
    </g>
   </g>
   <g id="xtick_5">
    <g id="line2d_6">
     <path d="M 365.980535 181.406474 
L 372.007048 182.03357 
" style="fill: none; stroke: #000000; stroke-width: 0.8; stroke-linecap: square"/>
    </g>
    <g id="text_5">
     <!-- 6 -->
     <g transform="translate(381.576072 187.497736) scale(0.1 -0.1)">
      <defs>
       <path id="DejaVuSans-36" d="M 2113 2584 
Q 1688 2584 1439 2293 
Q 1191 2003 1191 1497 
Q 1191 994 1439 701 
Q 1688 409 2113 409 
Q 2538 409 2786 701 
Q 3034 994 3034 1497 
Q 3034 2003 2786 2293 
Q 2538 2584 2113 2584 
z
M 3366 4563 
L 3366 3988 
Q 3128 4100 2886 4159 
Q 2644 4219 2406 4219 
Q 1781 4219 1451 3797 
Q 1122 3375 1075 2522 
Q 1259 2794 1537 2939 
Q 1816 3084 2150 3084 
Q 2853 3084 3261 2657 
Q 3669 2231 3669 1497 
Q 3669 778 3244 343 
Q 2819 -91 2113 -91 
Q 1303 -91 875 529 
Q 447 1150 447 2328 
Q 447 3434 972 4092 
Q 1497 4750 2381 4750 
Q 2619 4750 2861 4703 
Q 3103 4656 3366 4563 
z
" transform="scale(0.015625)"/>
      </defs>
      <use xlink:href="#DejaVuSans-36"/>
     </g>
    </g>
   </g>
   <g id="text_6">
    <!-- PC1 (95.22%) -->
    <g transform="translate(407.646224 304.729065) rotate(-89.578913) scale(0.12 -0.12)">
     <defs>
      <path id="DejaVuSans-50" d="M 1259 4147 
L 1259 2394 
L 2053 2394 
Q 2494 2394 2734 2622 
Q 2975 2850 2975 3272 
Q 2975 3691 2734 3919 
Q 2494 4147 2053 4147 
L 1259 4147 
z
M 628 4666 
L 2053 4666 
Q 2838 4666 3239 4311 
Q 3641 3956 3641 3272 
Q 3641 2581 3239 2228 
Q 2838 1875 2053 1875 
L 1259 1875 
L 1259 0 
L 628 0 
L 628 4666 
z
" transform="scale(0.015625)"/>
      <path id="DejaVuSans-43" d="M 4122 4306 
L 4122 3641 
Q 3803 3938 3442 4084 
Q 3081 4231 2675 4231 
Q 1875 4231 1450 3742 
Q 1025 3253 1025 2328 
Q 1025 1406 1450 917 
Q 1875 428 2675 428 
Q 3081 428 3442 575 
Q 3803 722 4122 1019 
L 4122 359 
Q 3791 134 3420 21 
Q 3050 -91 2638 -91 
Q 1578 -91 968 557 
Q 359 1206 359 2328 
Q 359 3453 968 4101 
Q 1578 4750 2638 4750 
Q 3056 4750 3426 4639 
Q 3797 4528 4122 4306 
z
" transform="scale(0.015625)"/>
      <path id="DejaVuSans-31" d="M 794 531 
L 1825 531 
L 1825 4091 
L 703 3866 
L 703 4441 
L 1819 4666 
L 2450 4666 
L 2450 531 
L 3481 531 
L 3481 0 
L 794 0 
L 794 531 
z
" transform="scale(0.015625)"/>
      <path id="DejaVuSans-20" transform="scale(0.015625)"/>
      <path id="DejaVuSans-28" d="M 1984 4856 
Q 1566 4138 1362 3434 
Q 1159 2731 1159 2009 
Q 1159 1288 1364 580 
Q 1569 -128 1984 -844 
L 1484 -844 
Q 1016 -109 783 600 
Q 550 1309 550 2009 
Q 550 2706 781 3412 
Q 1013 4119 1484 4856 
L 1984 4856 
z
" transform="scale(0.015625)"/>
      <path id="DejaVuSans-39" d="M 703 97 
L 703 672 
Q 941 559 1184 500 
Q 1428 441 1663 441 
Q 2288 441 2617 861 
Q 2947 1281 2994 2138 
Q 2813 1869 2534 1725 
Q 2256 1581 1919 1581 
Q 1219 1581 811 2004 
Q 403 2428 403 3163 
Q 403 3881 828 4315 
Q 1253 4750 1959 4750 
Q 2769 4750 3195 4129 
Q 3622 3509 3622 2328 
Q 3622 1225 3098 567 
Q 2575 -91 1691 -91 
Q 1453 -91 1209 -44 
Q 966 3 703 97 
z
M 1959 2075 
Q 2384 2075 2632 2365 
Q 2881 2656 2881 3163 
Q 2881 3666 2632 3958 
Q 2384 4250 1959 4250 
Q 1534 4250 1286 3958 
Q 1038 3666 1038 3163 
Q 1038 2656 1286 2365 
Q 1534 2075 1959 2075 
z
" transform="scale(0.015625)"/>
      <path id="DejaVuSans-35" d="M 691 4666 
L 3169 4666 
L 3169 4134 
L 1269 4134 
L 1269 2991 
Q 1406 3038 1543 3061 
Q 1681 3084 1819 3084 
Q 2600 3084 3056 2656 
Q 3513 2228 3513 1497 
Q 3513 744 3044 326 
Q 2575 -91 1722 -91 
Q 1428 -91 1123 -41 
Q 819 9 494 109 
L 494 744 
Q 775 591 1075 516 
Q 1375 441 1709 441 
Q 2250 441 2565 725 
Q 2881 1009 2881 1497 
Q 2881 1984 2565 2268 
Q 2250 2553 1709 2553 
Q 1456 2553 1204 2497 
Q 953 2441 691 2322 
L 691 4666 
z
" transform="scale(0.015625)"/>
      <path id="DejaVuSans-2e" d="M 684 794 
L 1344 794 
L 1344 0 
L 684 0 
L 684 794 
z
" transform="scale(0.015625)"/>
      <path id="DejaVuSans-25" d="M 4653 2053 
Q 4381 2053 4226 1822 
Q 4072 1591 4072 1178 
Q 4072 772 4226 539 
Q 4381 306 4653 306 
Q 4919 306 5073 539 
Q 5228 772 5228 1178 
Q 5228 1588 5073 1820 
Q 4919 2053 4653 2053 
z
M 4653 2450 
Q 5147 2450 5437 2106 
Q 5728 1763 5728 1178 
Q 5728 594 5436 251 
Q 5144 -91 4653 -91 
Q 4153 -91 3862 251 
Q 3572 594 3572 1178 
Q 3572 1766 3864 2108 
Q 4156 2450 4653 2450 
z
M 1428 4353 
Q 1159 4353 1004 4120 
Q 850 3888 850 3481 
Q 850 3069 1003 2837 
Q 1156 2606 1428 2606 
Q 1700 2606 1854 2837 
Q 2009 3069 2009 3481 
Q 2009 3884 1853 4118 
Q 1697 4353 1428 4353 
z
M 4250 4750 
L 4750 4750 
L 1831 -91 
L 1331 -91 
L 4250 4750 
z
M 1428 4750 
Q 1922 4750 2215 4408 
Q 2509 4066 2509 3481 
Q 2509 2891 2217 2550 
Q 1925 2209 1428 2209 
Q 931 2209 642 2551 
Q 353 2894 353 3481 
Q 353 4063 643 4406 
Q 934 4750 1428 4750 
z
" transform="scale(0.015625)"/>
      <path id="DejaVuSans-29" d="M 513 4856 
L 1013 4856 
Q 1481 4119 1714 3412 
Q 1947 2706 1947 2009 
Q 1947 1309 1714 600 
Q 1481 -109 1013 -844 
L 513 -844 
Q 928 -128 1133 580 
Q 1338 1288 1338 2009 
Q 1338 2731 1133 3434 
Q 928 4138 513 4856 
z
" transform="scale(0.015625)"/>
     </defs>
     <use xlink:href="#DejaVuSans-50"/>
     <use xlink:href="#DejaVuSans-43" transform="translate(60.302734 0)"/>
     <use xlink:href="#DejaVuSans-31" transform="translate(130.126953 0)"/>
     <use xlink:href="#DejaVuSans-20" transform="translate(193.75 0)"/>
     <use xlink:href="#DejaVuSans-28" transform="translate(225.537109 0)"/>
     <use xlink:href="#DejaVuSans-39" transform="translate(264.550781 0)"/>
     <use xlink:href="#DejaVuSans-35" transform="translate(328.173828 0)"/>
     <use xlink:href="#DejaVuSans-2e" transform="translate(391.796875 0)"/>
     <use xlink:href="#DejaVuSans-32" transform="translate(423.583984 0)"/>
     <use xlink:href="#DejaVuSans-32" transform="translate(487.207031 0)"/>
     <use xlink:href="#DejaVuSans-25" transform="translate(550.830078 0)"/>
     <use xlink:href="#DejaVuSans-29" transform="translate(645.849609 0)"/>
    </g>
   </g>
  </g>
  <g id="axis3d_2">
   <g id="line2d_7">
    <path d="M 125.871339 119.823277 
L 368.268149 143.500425 
" style="fill: none; stroke: #000000; stroke-width: 0.8; stroke-linecap: square"/>
   </g>
   <g id="xtick_6">
    <g id="line2d_8">
     <path d="M 366.411123 145.349817 
L 366.454029 139.257536 
" style="fill: none; stroke: #000000; stroke-width: 0.8; stroke-linecap: square"/>
    </g>
    <g id="text_7">
     <!-- −1.5 -->
     <g transform="translate(357.69601 134.314126) scale(0.1 -0.1)">
      <use xlink:href="#DejaVuSans-2212"/>
      <use xlink:href="#DejaVuSans-31" transform="translate(83.789062 0)"/>
      <use xlink:href="#DejaVuSans-2e" transform="translate(147.412109 0)"/>
      <use xlink:href="#DejaVuSans-35" transform="translate(179.199219 0)"/>
     </g>
    </g>
   </g>
   <g id="xtick_7">
    <g id="line2d_9">
     <path d="M 322.436124 141.039436 
L 322.434452 134.987664 
" style="fill: none; stroke: #000000; stroke-width: 0.8; stroke-linecap: square"/>
    </g>
    <g id="text_8">
     <!-- −1.0 -->
     <g transform="translate(313.763987 130.147244) scale(0.1 -0.1)">
      <use xlink:href="#DejaVuSans-2212"/>
      <use xlink:href="#DejaVuSans-31" transform="translate(83.789062 0)"/>
      <use xlink:href="#DejaVuSans-2e" transform="translate(147.412109 0)"/>
      <use xlink:href="#DejaVuSans-30" transform="translate(179.199219 0)"/>
     </g>
    </g>
   </g>
   <g id="xtick_8">
    <g id="line2d_10">
     <path d="M 279.103176 136.791988 
L 279.058218 130.780195 
" style="fill: none; stroke: #000000; stroke-width: 0.8; stroke-linecap: square"/>
    </g>
    <g id="text_9">
     <!-- −0.5 -->
     <g transform="translate(270.4724 126.041107) scale(0.1 -0.1)">
      <use xlink:href="#DejaVuSans-2212"/>
      <use xlink:href="#DejaVuSans-30" transform="translate(83.789062 0)"/>
      <use xlink:href="#DejaVuSans-2e" transform="translate(147.412109 0)"/>
      <use xlink:href="#DejaVuSans-35" transform="translate(179.199219 0)"/>
     </g>
    </g>
   </g>
   <g id="xtick_9">
    <g id="line2d_11">
     <path d="M 236.398318 132.606105 
L 236.311326 126.633773 
" style="fill: none; stroke: #000000; stroke-width: 0.8; stroke-linecap: square"/>
    </g>
    <g id="text_10">
     <!-- 0.0 -->
     <g transform="translate(231.997191 121.994395) scale(0.1 -0.1)">
      <use xlink:href="#DejaVuSans-30"/>
      <use xlink:href="#DejaVuSans-2e" transform="translate(63.623047 0)"/>
      <use xlink:href="#DejaVuSans-30" transform="translate(95.410156 0)"/>
     </g>
    </g>
   </g>
   <g id="xtick_10">
    <g id="line2d_12">
     <path d="M 194.307994 128.480458 
L 194.180179 122.547077 
" style="fill: none; stroke: #000000; stroke-width: 0.8; stroke-linecap: square"/>
    </g>
    <g id="text_11">
     <!-- 0.5 -->
     <g transform="translate(189.945167 118.005828) scale(0.1 -0.1)">
      <use xlink:href="#DejaVuSans-30"/>
      <use xlink:href="#DejaVuSans-2e" transform="translate(63.623047 0)"/>
      <use xlink:href="#DejaVuSans-35" transform="translate(95.410156 0)"/>
     </g>
    </g>
   </g>
   <g id="xtick_11">
    <g id="line2d_13">
     <path d="M 152.819033 124.413756 
L 152.651566 118.518826 
" style="fill: none; stroke: #000000; stroke-width: 0.8; stroke-linecap: square"/>
    </g>
    <g id="text_12">
     <!-- 1.0 -->
     <g transform="translate(148.493055 114.074161) scale(0.1 -0.1)">
      <use xlink:href="#DejaVuSans-31"/>
      <use xlink:href="#DejaVuSans-2e" transform="translate(63.623047 0)"/>
      <use xlink:href="#DejaVuSans-30" transform="translate(95.410156 0)"/>
     </g>
    </g>
   </g>
   <g id="text_13">
    <!-- PC2 (3.39%) -->
    <g transform="translate(215.194467 94.44734) rotate(-354.421087) scale(0.12 -0.12)">
     <defs>
      <path id="DejaVuSans-33" d="M 2597 2516 
Q 3050 2419 3304 2112 
Q 3559 1806 3559 1356 
Q 3559 666 3084 287 
Q 2609 -91 1734 -91 
Q 1441 -91 1130 -33 
Q 819 25 488 141 
L 488 750 
Q 750 597 1062 519 
Q 1375 441 1716 441 
Q 2309 441 2620 675 
Q 2931 909 2931 1356 
Q 2931 1769 2642 2001 
Q 2353 2234 1838 2234 
L 1294 2234 
L 1294 2753 
L 1863 2753 
Q 2328 2753 2575 2939 
Q 2822 3125 2822 3475 
Q 2822 3834 2567 4026 
Q 2313 4219 1838 4219 
Q 1578 4219 1281 4162 
Q 984 4106 628 3988 
L 628 4550 
Q 988 4650 1302 4700 
Q 1616 4750 1894 4750 
Q 2613 4750 3031 4423 
Q 3450 4097 3450 3541 
Q 3450 3153 3228 2886 
Q 3006 2619 2597 2516 
z
" transform="scale(0.015625)"/>
     </defs>
     <use xlink:href="#DejaVuSans-50"/>
     <use xlink:href="#DejaVuSans-43" transform="translate(60.302734 0)"/>
     <use xlink:href="#DejaVuSans-32" transform="translate(130.126953 0)"/>
     <use xlink:href="#DejaVuSans-20" transform="translate(193.75 0)"/>
     <use xlink:href="#DejaVuSans-28" transform="translate(225.537109 0)"/>
     <use xlink:href="#DejaVuSans-33" transform="translate(264.550781 0)"/>
     <use xlink:href="#DejaVuSans-2e" transform="translate(328.173828 0)"/>
     <use xlink:href="#DejaVuSans-33" transform="translate(359.960938 0)"/>
     <use xlink:href="#DejaVuSans-39" transform="translate(423.583984 0)"/>
     <use xlink:href="#DejaVuSans-25" transform="translate(487.207031 0)"/>
     <use xlink:href="#DejaVuSans-29" transform="translate(582.226562 0)"/>
    </g>
   </g>
  </g>
  <g id="axis3d_3">
   <g id="line2d_14">
    <path d="M 125.871339 119.823277 
L 42.48759 175.442912 
" style="fill: none; stroke: #000000; stroke-width: 0.8; stroke-linecap: square"/>
   </g>
   <g id="xtick_12">
    <g id="line2d_15">
     <path d="M 111.976044 131.117038 
L 111.766828 125.177138 
" style="fill: none; stroke: #000000; stroke-width: 0.8; stroke-linecap: square"/>
    </g>
    <g id="text_14">
     <!-- −0.2 -->
     <g transform="translate(101.546415 138.850713) rotate(-90) scale(0.1 -0.1)">
      <use xlink:href="#DejaVuSans-2212"/>
      <use xlink:href="#DejaVuSans-30" transform="translate(83.789062 0)"/>
      <use xlink:href="#DejaVuSans-2e" transform="translate(147.412109 0)"/>
      <use xlink:href="#DejaVuSans-32" transform="translate(179.199219 0)"/>
     </g>
    </g>
   </g>
   <g id="xtick_13">
    <g id="line2d_16">
     <path d="M 97.111034 141.06113 
L 96.883986 135.047047 
" style="fill: none; stroke: #000000; stroke-width: 0.8; stroke-linecap: square"/>
    </g>
    <g id="text_15">
     <!-- 0.0 -->
     <g transform="translate(86.489774 140.184194) rotate(-90) scale(0.1 -0.1)">
      <use xlink:href="#DejaVuSans-30"/>
      <use xlink:href="#DejaVuSans-2e" transform="translate(63.623047 0)"/>
      <use xlink:href="#DejaVuSans-30" transform="translate(95.410156 0)"/>
     </g>
    </g>
   </g>
   <g id="xtick_14">
    <g id="line2d_17">
     <path d="M 81.819326 151.290668 
L 81.5735 145.200559 
" style="fill: none; stroke: #000000; stroke-width: 0.8; stroke-linecap: square"/>
    </g>
    <g id="text_16">
     <!-- 0.2 -->
     <g transform="translate(71.000786 150.176272) rotate(-90) scale(0.1 -0.1)">
      <use xlink:href="#DejaVuSans-30"/>
      <use xlink:href="#DejaVuSans-2e" transform="translate(63.623047 0)"/>
      <use xlink:href="#DejaVuSans-32" transform="translate(95.410156 0)"/>
     </g>
    </g>
   </g>
   <g id="xtick_15">
    <g id="line2d_18">
     <path d="M 66.082278 161.818119 
L 65.816669 155.650076 
" style="fill: none; stroke: #000000; stroke-width: 0.8; stroke-linecap: square"/>
    </g>
    <g id="text_17">
     <!-- 0.4 -->
     <g transform="translate(55.06056 160.459448) rotate(-90) scale(0.1 -0.1)">
      <use xlink:href="#DejaVuSans-30"/>
      <use xlink:href="#DejaVuSans-2e" transform="translate(63.623047 0)"/>
      <use xlink:href="#DejaVuSans-34" transform="translate(95.410156 0)"/>
     </g>
    </g>
   </g>
   <g id="xtick_16">
    <g id="line2d_19">
     <path d="M 49.880148 172.656691 
L 49.593685 166.408732 
" style="fill: none; stroke: #000000; stroke-width: 0.8; stroke-linecap: square"/>
    </g>
    <g id="text_18">
     <!-- 0.6 -->
     <g transform="translate(38.649084 171.046631) rotate(-90) scale(0.1 -0.1)">
      <use xlink:href="#DejaVuSans-30"/>
      <use xlink:href="#DejaVuSans-2e" transform="translate(63.623047 0)"/>
      <use xlink:href="#DejaVuSans-36" transform="translate(95.410156 0)"/>
     </g>
    </g>
   </g>
   <g id="text_19">
    <!-- PC3 (0.54%) -->
    <g transform="translate(26.221822 136.235606) rotate(-33.704559) scale(0.12 -0.12)">
     <use xlink:href="#DejaVuSans-50"/>
     <use xlink:href="#DejaVuSans-43" transform="translate(60.302734 0)"/>
     <use xlink:href="#DejaVuSans-33" transform="translate(130.126953 0)"/>
     <use xlink:href="#DejaVuSans-20" transform="translate(193.75 0)"/>
     <use xlink:href="#DejaVuSans-28" transform="translate(225.537109 0)"/>
     <use xlink:href="#DejaVuSans-30" transform="translate(264.550781 0)"/>
     <use xlink:href="#DejaVuSans-2e" transform="translate(328.173828 0)"/>
     <use xlink:href="#DejaVuSans-35" transform="translate(359.960938 0)"/>
     <use xlink:href="#DejaVuSans-34" transform="translate(423.583984 0)"/>
     <use xlink:href="#DejaVuSans-25" transform="translate(487.207031 0)"/>
     <use xlink:href="#DejaVuSans-29" transform="translate(582.226562 0)"/>
    </g>
   </g>
  </g>
  <g id="axes_1">
   <g id="line2d_20">
    <path d="M 222.506526 370.058651 
L 221.333876 369.095817 
L 220.202674 368.106995 
L 219.113164 367.092158 
L 218.065581 366.051285 
L 217.060158 364.984355 
L 216.097122 363.891355 
L 215.176695 362.772271 
L 214.299092 361.627097 
L 213.464525 360.455829 
L 212.673199 359.258468 
L 211.925314 358.035016 
L 211.221065 356.785482 
L 210.56064 355.509877 
L 209.944223 354.208218 
L 209.37199 352.880524 
L 208.844112 351.526819 
L 208.360756 350.14713 
L 207.922079 348.74149 
L 207.528235 347.309933 
L 207.179371 345.8525 
L 206.875628 344.369233 
L 206.617139 342.860182 
L 206.404032 341.325397 
L 206.236429 339.764935 
L 206.114445 338.178855 
L 206.038189 336.567222 
L 206.007761 334.930103 
L 206.023258 333.267569 
L 206.084767 331.579698 
L 206.192371 329.866569 
L 206.346145 328.128267 
L 206.546156 326.364878 
L 206.792467 324.576496 
L 207.085131 322.763216 
L 207.424195 320.925139 
L 207.809702 319.062368 
L 208.241684 317.175011 
L 208.720167 315.26318 
L 209.245172 313.326991 
L 209.816711 311.366564 
L 210.434789 309.382021 
L 211.099406 307.373491 
L 211.810552 305.341103 
L 212.568211 303.284994 
L 213.372361 301.205302 
L 214.222972 299.102169 
L 215.120006 296.975741 
L 216.063421 294.826168 
L 217.053164 292.653603 
L 218.089177 290.458204 
L 219.171396 288.24013 
L 220.299746 285.999545 
L 221.47415 283.736618 
L 222.694521 281.451518 
L 223.960765 279.14442 
L 225.272781 276.815502 
L 226.630463 274.464944 
L 228.033696 272.09293 
L 229.482359 269.699649 
L 230.976324 267.285289 
L 232.515455 264.850046 
L 234.099612 262.394115 
L 235.728646 259.917696 
L 237.402402 257.420991 
L 239.120717 254.904206 
L 240.883424 252.36755 
L 242.690349 249.811232 
L 244.541308 247.235467 
L 246.436116 244.640472 
L 248.374577 242.026465 
L 250.356491 239.393667 
L 252.381651 236.742303 
L 254.449844 234.0726 
L 256.560853 231.384785 
L 258.71445 228.67909 
L 260.910405 225.955748 
L 263.148482 223.214995 
L 265.428438 220.457068 
L 267.750023 217.682206 
L 270.112984 214.890652 
L 272.517062 212.082648 
L 274.96199 209.258441 
L 277.447498 206.418275 
L 279.97331 203.562402 
L 282.539145 200.691069 
L 285.144717 197.804531 
L 287.789733 194.903039 
L 290.473899 191.98685 
L 293.196911 189.056217 
L 295.958465 186.1114 
L 298.758249 183.152657 
L 301.595948 180.180247 
L 304.471243 177.194431 
L 307.383809 174.195472 
L 310.333318 171.183631 
L 313.319437 168.159172 
L 316.341829 165.12236 
L 319.400154 162.073459 
L 322.494067 159.012736 
" clip-path="url(#p5cd86d2e87)" style="fill: none; stroke: #e68b81; stroke-opacity: 0.7; stroke-width: 3; stroke-linecap: square"/>
   </g>
   <g id="line2d_21">
    <path d="M 222.486366 375.155625 
L 222.831769 374.701047 
L 223.179048 374.243768 
L 223.5282 373.783791 
L 223.879224 373.321119 
L 224.232116 372.855754 
L 224.586876 372.3877 
L 224.943499 371.91696 
L 225.301984 371.443537 
L 225.662329 370.967433 
L 226.02453 370.488654 
L 226.388586 370.0072 
L 226.754493 369.523077 
L 227.12225 369.036287 
L 227.491853 368.546834 
L 227.8633 368.054721 
L 228.236589 367.559952 
L 228.611715 367.06253 
L 228.988678 366.562459 
L 229.367473 366.059742 
L 229.748099 365.554384 
L 230.130552 365.046387 
L 230.51483 364.535756 
L 230.900929 364.022495 
L 231.288847 363.506607 
L 231.67858 362.988097 
L 232.070126 362.466967 
L 232.463482 361.943223 
L 232.858644 361.416868 
L 233.25561 360.887907 
L 233.654377 360.356343 
L 234.05494 359.82218 
L 234.457298 359.285424 
L 234.861447 358.746077 
L 235.267383 358.204146 
L 235.675103 357.659632 
L 236.084605 357.112543 
L 236.495885 356.56288 
L 236.908938 356.01065 
L 237.323763 355.455857 
L 237.740356 354.898504 
L 238.158713 354.338597 
L 238.57883 353.776141 
L 239.000705 353.21114 
L 239.424333 352.643599 
L 239.849711 352.073522 
L 240.276836 351.500915 
L 240.705704 350.925782 
L 241.136311 350.348129 
L 241.568653 349.767959 
L 242.002728 349.185279 
L 242.43853 348.600092 
L 242.876057 348.012405 
L 243.315305 347.422223 
L 243.756269 346.829549 
L 244.198946 346.234391 
L 244.643333 345.636752 
L 245.089424 345.036638 
L 245.537217 344.434055 
L 245.986707 343.829008 
L 246.43789 343.221502 
L 246.890762 342.611542 
L 247.34532 341.999135 
L 247.801559 341.384285 
L 248.259475 340.766998 
L 248.719064 340.14728 
L 249.180321 339.525136 
L 249.643244 338.900573 
L 250.107827 338.273595 
L 250.574066 337.644208 
L 251.041957 337.012419 
L 251.511495 336.378233 
L 251.982677 335.741656 
L 252.455498 335.102693 
L 252.929954 334.461352 
L 253.40604 333.817637 
L 253.883752 333.171554 
L 254.363086 332.523111 
L 254.844036 331.872312 
L 255.326599 331.219164 
L 255.81077 330.563674 
L 256.296545 329.905846 
L 256.783918 329.245688 
L 257.272886 328.583206 
L 257.763444 327.918406 
L 258.255587 327.251295 
L 258.74931 326.581878 
L 259.244609 325.910162 
L 259.741479 325.236154 
L 260.239916 324.55986 
L 260.739914 323.881286 
L 261.241469 323.20044 
L 261.744576 322.517327 
L 262.24923 321.831954 
L 262.755427 321.144329 
L 263.263161 320.454457 
L 263.772428 319.762345 
L 264.283223 319.068001 
L 264.79554 318.37143 
L 265.309375 317.67264 
" clip-path="url(#p5cd86d2e87)" style="fill: none; stroke: #b7b2d0; stroke-opacity: 0.7; stroke-width: 3; stroke-linecap: square"/>
   </g>
   <g id="line2d_22">
    <path d="M 226.601147 369.844686 
L 223.724502 368.373573 
L 220.889316 366.894689 
L 218.095689 365.408053 
L 215.343717 363.913685 
L 212.633495 362.411608 
L 209.965115 360.901842 
L 207.338671 359.384408 
L 204.754252 357.859329 
L 202.211948 356.326627 
L 199.711846 354.786324 
L 197.254031 353.238443 
L 194.838589 351.683007 
L 192.465602 350.12004 
L 190.135152 348.549565 
L 187.847317 346.971606 
L 185.602177 345.386189 
L 183.399809 343.793337 
L 181.240286 342.193075 
L 179.123684 340.58543 
L 177.050073 338.970426 
L 175.019524 337.34809 
L 173.032106 335.718447 
L 171.087885 334.081525 
L 169.186929 332.43735 
L 167.329299 330.78595 
L 165.51506 329.127351 
L 163.744271 327.461583 
L 162.016991 325.788672 
L 160.333278 324.108647 
L 158.693187 322.421536 
L 157.096774 320.72737 
L 155.544089 319.026177 
L 154.035185 317.317986 
L 152.570109 315.602827 
L 151.14891 313.880731 
L 149.771634 312.151728 
L 148.438324 310.415849 
L 147.149024 308.673124 
L 145.903773 306.923585 
L 144.702611 305.167263 
L 143.545575 303.404191 
L 142.432701 301.6344 
L 141.364024 299.857922 
L 140.339575 298.074791 
L 139.359384 296.285038 
L 138.423482 294.488698 
L 137.531895 292.685804 
L 136.684648 290.876389 
L 135.881766 289.060487 
L 135.12327 287.238133 
L 134.409181 285.409361 
L 133.739517 283.574206 
L 133.114296 281.732702 
L 132.533532 279.884886 
L 131.99724 278.030791 
L 131.50543 276.170455 
L 131.058113 274.303913 
L 130.655298 272.4312 
L 130.29699 270.552355 
L 129.983195 268.667413 
L 129.713915 266.776411 
L 129.489153 264.879386 
L 129.308908 262.976377 
L 129.173178 261.067419 
L 129.081958 259.152551 
L 129.035245 257.231812 
L 129.03303 255.305239 
L 129.075304 253.372871 
L 129.162058 251.434746 
L 129.293278 249.490904 
L 129.46895 247.541383 
L 129.689059 245.586223 
L 129.953588 243.625464 
L 130.262516 241.659144 
L 130.615824 239.687305 
L 131.013488 237.709985 
L 131.455484 235.727226 
L 131.941786 233.739067 
L 132.472367 231.74555 
L 133.047196 229.746715 
L 133.666244 227.742604 
L 134.329476 225.733257 
L 135.036859 223.718716 
L 135.788356 221.699023 
L 136.58393 219.674218 
L 137.423541 217.644345 
L 138.307147 215.609446 
L 139.234707 213.569561 
L 140.206175 211.524735 
L 141.221505 209.475008 
L 142.280649 207.420425 
L 143.383558 205.361028 
L 144.530181 203.296859 
L 145.720464 201.227963 
L 146.954355 199.154382 
L 148.231795 197.076159 
L 149.552729 194.993339 
L 150.917096 192.905965 
L 152.324836 190.814081 
" clip-path="url(#p5cd86d2e87)" style="fill: none; stroke: #84c3b7; stroke-opacity: 0.7; stroke-width: 3; stroke-linecap: square"/>
   </g>
   <g id="line2d_23">
    <path d="M 229.619156 377.543547 
L 229.041238 377.32508 
L 228.469809 377.109015 
L 227.904863 376.895352 
L 227.346396 376.684088 
L 226.794403 376.475222 
L 226.248881 376.268751 
L 225.709824 376.064675 
L 225.177229 375.862992 
L 224.651091 375.663699 
L 224.131407 375.466797 
L 223.618173 375.272282 
L 223.111385 375.080155 
L 222.611039 374.890413 
L 222.117132 374.703054 
L 221.629661 374.518079 
L 221.148621 374.335485 
L 220.674011 374.155271 
L 220.205826 373.977437 
L 219.744064 373.80198 
L 219.288722 373.6289 
L 218.839796 373.458196 
L 218.397285 373.289867 
L 217.961186 373.123911 
L 217.531496 372.960328 
L 217.108213 372.799116 
L 216.691334 372.640276 
L 216.280858 372.483806 
L 215.876782 372.329705 
L 215.479104 372.177972 
L 215.087822 372.028607 
L 214.702936 371.88161 
L 214.324442 371.736979 
L 213.95234 371.594713 
L 213.586627 371.454813 
L 213.227304 371.317277 
L 212.874368 371.182106 
L 212.527817 371.049298 
L 212.187653 370.918854 
L 211.853872 370.790773 
L 211.526475 370.665054 
L 211.20546 370.541698 
L 210.890828 370.420703 
L 210.582577 370.302071 
L 210.280707 370.185799 
L 209.985218 370.07189 
L 209.69611 369.960341 
L 209.413382 369.851154 
L 209.137034 369.744328 
L 208.867067 369.639864 
L 208.603481 369.53776 
L 208.346276 369.438018 
L 208.095453 369.340637 
L 207.851011 369.245618 
L 207.612953 369.152961 
L 207.381277 369.062665 
L 207.155986 368.974732 
L 206.93708 368.889162 
L 206.72456 368.805954 
L 206.518428 368.72511 
L 206.318684 368.64663 
L 206.12533 368.570514 
L 205.938368 368.496762 
L 205.757798 368.425376 
L 205.583623 368.356356 
L 205.415845 368.289702 
L 205.254465 368.225415 
L 205.099485 368.163496 
L 204.950908 368.103946 
L 204.808736 368.046765 
L 204.67297 367.991954 
L 204.543614 367.939514 
L 204.420669 367.889446 
L 204.304139 367.841751 
L 204.194027 367.79643 
L 204.090334 367.753484 
L 203.993065 367.712914 
L 203.902222 367.67472 
L 203.817808 367.638905 
L 203.739826 367.605469 
L 203.668281 367.574414 
L 203.603175 367.54574 
L 203.544512 367.519449 
L 203.492296 367.495543 
L 203.44653 367.474023 
L 203.407219 367.45489 
L 203.374367 367.438145 
L 203.347977 367.423791 
L 203.328054 367.411828 
L 203.314603 367.402259 
L 203.307627 367.395084 
L 203.307132 367.390307 
L 203.313122 367.387927 
L 203.325602 367.387947 
L 203.344577 367.390369 
L 203.370052 367.395195 
L 203.402032 367.402426 
L 203.440522 367.412065 
L 203.485528 367.424113 
L 203.537055 367.438572 
" clip-path="url(#p5cd86d2e87)" style="fill: none; stroke: #7da6c6; stroke-opacity: 0.7; stroke-width: 3; stroke-linecap: square"/>
   </g>
   <g id="Path3DCollection_1">
    <path d="M 130.382556 262.832331 
C 131.49198 262.832331 132.556114 262.391552 133.340595 261.607071 
C 134.125077 260.822589 134.565856 259.758455 134.565856 258.649031 
C 134.565856 257.539606 134.125077 256.475472 133.340595 255.690991 
C 132.556114 254.906509 131.49198 254.46573 130.382556 254.46573 
C 129.273131 254.46573 128.208997 254.906509 127.424516 255.690991 
C 126.640034 256.475472 126.199255 257.539606 126.199255 258.649031 
C 126.199255 259.758455 126.640034 260.822589 127.424516 261.607071 
C 128.208997 262.391552 129.273131 262.832331 130.382556 262.832331 
z
" clip-path="url(#p5cd86d2e87)" style="fill: #84c3b7; fill-opacity: 0.24; stroke: #84c3b7; stroke-opacity: 0.24"/>
    <path d="M 228.353868 367.119414 
C 228.94688 367.119414 229.515683 366.883808 229.935006 366.464485 
C 230.354329 366.045162 230.589936 365.476358 230.589936 364.883346 
C 230.589936 364.290334 230.354329 363.72153 229.935006 363.302207 
C 229.515683 362.882885 228.94688 362.647278 228.353868 362.647278 
C 227.760855 362.647278 227.192052 362.882885 226.772729 363.302207 
C 226.353406 363.72153 226.1178 364.290334 226.1178 364.883346 
C 226.1178 365.476358 226.353406 366.045162 226.772729 366.464485 
C 227.192052 366.883808 227.760855 367.119414 228.353868 367.119414 
z
" clip-path="url(#p5cd86d2e87)" style="fill: #84c3b7; fill-opacity: 0.180664; stroke: #84c3b7; stroke-opacity: 0.180664"/>
    <path d="M 224.335302 370.201561 
C 224.928315 370.201561 225.497118 369.965954 225.916441 369.546631 
C 226.335764 369.127308 226.57137 368.558505 226.57137 367.965493 
C 226.57137 367.37248 226.335764 366.803677 225.916441 366.384354 
C 225.497118 365.965031 224.928315 365.729425 224.335302 365.729425 
C 223.74229 365.729425 223.173486 365.965031 222.754164 366.384354 
C 222.334841 366.803677 222.099234 367.37248 222.099234 367.965493 
C 222.099234 368.558505 222.334841 369.127308 222.754164 369.546631 
C 223.173486 369.965954 223.74229 370.201561 224.335302 370.201561 
z
" clip-path="url(#p5cd86d2e87)" style="fill: #84c3b7; fill-opacity: 0.186593; stroke: #84c3b7; stroke-opacity: 0.186593"/>
    <path d="M 267.867794 334.364113 
C 269.258531 334.364113 270.592494 333.811567 271.575894 332.828168 
C 272.559293 331.844768 273.111839 330.510805 273.111839 329.120068 
C 273.111839 327.729332 272.559293 326.395368 271.575894 325.411969 
C 270.592494 324.42857 269.258531 323.876024 267.867794 323.876024 
C 266.477058 323.876024 265.143095 324.42857 264.159695 325.411969 
C 263.176296 326.395368 262.62375 327.729332 262.62375 329.120068 
C 262.62375 330.510805 263.176296 331.844768 264.159695 332.828168 
C 265.143095 333.811567 266.477058 334.364113 267.867794 334.364113 
z
" clip-path="url(#p5cd86d2e87)" style="fill: #b7b2d0; fill-opacity: 0.349318; stroke: #b7b2d0; stroke-opacity: 0.349318"/>
    <path d="M 153.039228 221.526366 
C 154.429965 221.526366 155.763928 220.973821 156.747327 219.990421 
C 157.730726 219.007022 158.283272 217.673059 158.283272 216.282322 
C 158.283272 214.891585 157.730726 213.557622 156.747327 212.574223 
C 155.763928 211.590823 154.429965 211.038278 153.039228 211.038278 
C 151.648491 211.038278 150.314528 211.590823 149.331129 212.574223 
C 148.347729 213.557622 147.795184 214.891585 147.795184 216.282322 
C 147.795184 217.673059 148.347729 219.007022 149.331129 219.990421 
C 150.314528 220.973821 151.648491 221.526366 153.039228 221.526366 
z
" clip-path="url(#p5cd86d2e87)" style="fill: #84c3b7; fill-opacity: 0.358146; stroke: #84c3b7; stroke-opacity: 0.358146"/>
    <path d="M 262.103771 324.321585 
C 263.494508 324.321585 264.828471 323.769039 265.811871 322.78564 
C 266.79527 321.80224 267.347816 320.468277 267.347816 319.07754 
C 267.347816 317.686804 266.79527 316.352841 265.811871 315.369441 
C 264.828471 314.386042 263.494508 313.833496 262.103771 313.833496 
C 260.713035 313.833496 259.379072 314.386042 258.395672 315.369441 
C 257.412273 316.352841 256.859727 317.686804 256.859727 319.07754 
C 256.859727 320.468277 257.412273 321.80224 258.395672 322.78564 
C 259.379072 323.769039 260.713035 324.321585 262.103771 324.321585 
z
" clip-path="url(#p5cd86d2e87)" style="fill: #b7b2d0; fill-opacity: 0.378518; stroke: #b7b2d0; stroke-opacity: 0.378518"/>
    <path d="M 224.567235 377.05309 
C 225.160247 377.05309 225.729051 376.817484 226.148374 376.398161 
C 226.567696 375.978838 226.803303 375.410035 226.803303 374.817022 
C 226.803303 374.22401 226.567696 373.655207 226.148374 373.235884 
C 225.729051 372.816561 225.160247 372.580954 224.567235 372.580954 
C 223.974223 372.580954 223.405419 372.816561 222.986096 373.235884 
C 222.566773 373.655207 222.331167 374.22401 222.331167 374.817022 
C 222.331167 375.410035 222.566773 375.978838 222.986096 376.398161 
C 223.405419 376.817484 223.974223 377.05309 224.567235 377.05309 
z
" clip-path="url(#p5cd86d2e87)" style="fill: #b7b2d0; fill-opacity: 0.211785; stroke: #b7b2d0; stroke-opacity: 0.211785"/>
    <path d="M 230.018696 379.441021 
C 230.611708 379.441021 231.180512 379.205415 231.599835 378.786092 
C 232.019158 378.366769 232.254764 377.797965 232.254764 377.204953 
C 232.254764 376.611941 232.019158 376.043137 231.599835 375.623814 
C 231.180512 375.204492 230.611708 374.968885 230.018696 374.968885 
C 229.425684 374.968885 228.85688 375.204492 228.437557 375.623814 
C 228.018234 376.043137 227.782628 376.611941 227.782628 377.204953 
C 227.782628 377.797965 228.018234 378.366769 228.437557 378.786092 
C 228.85688 379.205415 229.425684 379.441021 230.018696 379.441021 
z
" clip-path="url(#p5cd86d2e87)" style="fill: #7da6c6; fill-opacity: 0.21236; stroke: #7da6c6; stroke-opacity: 0.21236"/>
    <path d="M 225.498687 378.472056 
C 226.091699 378.472056 226.660503 378.23645 227.079826 377.817127 
C 227.499149 377.397804 227.734755 376.829 227.734755 376.235988 
C 227.734755 375.642976 227.499149 375.074172 227.079826 374.654849 
C 226.660503 374.235527 226.091699 373.99992 225.498687 373.99992 
C 224.905675 373.99992 224.336871 374.235527 223.917548 374.654849 
C 223.498225 375.074172 223.262619 375.642976 223.262619 376.235988 
C 223.262619 376.829 223.498225 377.397804 223.917548 377.817127 
C 224.336871 378.23645 224.905675 378.472056 225.498687 378.472056 
z
" clip-path="url(#p5cd86d2e87)" style="fill: #7da6c6; fill-opacity: 0.21294; stroke: #7da6c6; stroke-opacity: 0.21294"/>
    <path d="M 216.655466 377.835166 
C 217.248478 377.835166 217.817281 377.59956 218.236604 377.180237 
C 218.655927 376.760914 218.891534 376.19211 218.891534 375.599098 
C 218.891534 375.006086 218.655927 374.437282 218.236604 374.017959 
C 217.817281 373.598636 217.248478 373.36303 216.655466 373.36303 
C 216.062453 373.36303 215.49365 373.598636 215.074327 374.017959 
C 214.655004 374.437282 214.419398 375.006086 214.419398 375.599098 
C 214.419398 376.19211 214.655004 376.760914 215.074327 377.180237 
C 215.49365 377.59956 216.062453 377.835166 216.655466 377.835166 
z
" clip-path="url(#p5cd86d2e87)" style="fill: #b7b2d0; fill-opacity: 0.213913; stroke: #b7b2d0; stroke-opacity: 0.213913"/>
    <path d="M 226.257317 365.624475 
C 227.095963 365.624475 227.900373 365.291277 228.493385 364.698265 
C 229.086397 364.105253 229.419595 363.300843 229.419595 362.462197 
C 229.419595 361.623551 229.086397 360.819141 228.493385 360.226129 
C 227.900373 359.633117 227.095963 359.29992 226.257317 359.29992 
C 225.418671 359.29992 224.614261 359.633117 224.021249 360.226129 
C 223.428237 360.819141 223.09504 361.623551 223.09504 362.462197 
C 223.09504 363.300843 223.428237 364.105253 224.021249 364.698265 
C 224.614261 365.291277 225.418671 365.624475 226.257317 365.624475 
z
" clip-path="url(#p5cd86d2e87)" style="fill: #b7b2d0; fill-opacity: 0.255391; stroke: #b7b2d0; stroke-opacity: 0.255391"/>
    <path d="M 239.739619 369.546858 
C 240.578264 369.546858 241.382674 369.21366 241.975687 368.620648 
C 242.568699 368.027636 242.901896 367.223226 242.901896 366.38458 
C 242.901896 365.545934 242.568699 364.741524 241.975687 364.148512 
C 241.382674 363.5555 240.578264 363.222303 239.739619 363.222303 
C 238.900973 363.222303 238.096563 363.5555 237.503551 364.148512 
C 236.910539 364.741524 236.577341 365.545934 236.577341 366.38458 
C 236.577341 367.223226 236.910539 368.027636 237.503551 368.620648 
C 238.096563 369.21366 238.900973 369.546858 239.739619 369.546858 
z
" clip-path="url(#p5cd86d2e87)" style="fill: #b7b2d0; fill-opacity: 0.255921; stroke: #b7b2d0; stroke-opacity: 0.255921"/>
    <path d="M 215.720635 375.051008 
C 216.559281 375.051008 217.363691 374.717811 217.956703 374.124799 
C 218.549715 373.531787 218.882913 372.727377 218.882913 371.888731 
C 218.882913 371.050085 218.549715 370.245675 217.956703 369.652663 
C 217.363691 369.059651 216.559281 368.726453 215.720635 368.726453 
C 214.881989 368.726453 214.077579 369.059651 213.484567 369.652663 
C 212.891555 370.245675 212.558357 371.050085 212.558357 371.888731 
C 212.558357 372.727377 212.891555 373.531787 213.484567 374.124799 
C 214.077579 374.717811 214.881989 375.051008 215.720635 375.051008 
z
" clip-path="url(#p5cd86d2e87)" style="fill: #7da6c6; fill-opacity: 0.259827; stroke: #7da6c6; stroke-opacity: 0.259827"/>
    <path d="M 244.415345 358.79728 
C 245.524769 358.79728 246.588904 358.356501 247.373385 357.572019 
C 248.157866 356.787538 248.598645 355.723404 248.598645 354.613979 
C 248.598645 353.504555 248.157866 352.440421 247.373385 351.655939 
C 246.588904 350.871458 245.524769 350.430679 244.415345 350.430679 
C 243.305921 350.430679 242.241787 350.871458 241.457305 351.655939 
C 240.672824 352.440421 240.232045 353.504555 240.232045 354.613979 
C 240.232045 355.723404 240.672824 356.787538 241.457305 357.572019 
C 242.241787 358.356501 243.305921 358.79728 244.415345 358.79728 
z
" clip-path="url(#p5cd86d2e87)" style="fill: #b7b2d0; fill-opacity: 0.335922; stroke: #b7b2d0; stroke-opacity: 0.335922"/>
    <path d="M 210.859892 375.274414 
C 211.698538 375.274414 212.502948 374.941216 213.09596 374.348204 
C 213.688973 373.755192 214.02217 372.950782 214.02217 372.112136 
C 214.02217 371.27349 213.688973 370.46908 213.09596 369.876068 
C 212.502948 369.283056 211.698538 368.949858 210.859892 368.949858 
C 210.021247 368.949858 209.216837 369.283056 208.623824 369.876068 
C 208.030812 370.46908 207.697615 371.27349 207.697615 372.112136 
C 207.697615 372.950782 208.030812 373.755192 208.623824 374.348204 
C 209.216837 374.941216 210.021247 375.274414 210.859892 375.274414 
z
" clip-path="url(#p5cd86d2e87)" style="fill: #7da6c6; fill-opacity: 0.275359; stroke: #7da6c6; stroke-opacity: 0.275359"/>
    <path d="M 198.053519 368.472875 
C 199.162943 368.472875 200.227077 368.032097 201.011559 367.247615 
C 201.79604 366.463134 202.236819 365.398999 202.236819 364.289575 
C 202.236819 363.180151 201.79604 362.116017 201.011559 361.331535 
C 200.227077 360.547054 199.162943 360.106275 198.053519 360.106275 
C 196.944094 360.106275 195.87996 360.547054 195.095479 361.331535 
C 194.310997 362.116017 193.870219 363.180151 193.870219 364.289575 
C 193.870219 365.398999 194.310997 366.463134 195.095479 367.247615 
C 195.87996 368.032097 196.944094 368.472875 198.053519 368.472875 
z
" clip-path="url(#p5cd86d2e87)" style="fill: #7da6c6; fill-opacity: 0.338993; stroke: #7da6c6; stroke-opacity: 0.338993"/>
    <path d="M 225.935952 352.77682 
C 227.045377 352.77682 228.109511 352.336042 228.893992 351.55156 
C 229.678474 350.767079 230.119253 349.702944 230.119253 348.59352 
C 230.119253 347.484096 229.678474 346.419962 228.893992 345.63548 
C 228.109511 344.850999 227.045377 344.41022 225.935952 344.41022 
C 224.826528 344.41022 223.762394 344.850999 222.977913 345.63548 
C 222.193431 346.419962 221.752652 347.484096 221.752652 348.59352 
C 221.752652 349.702944 222.193431 350.767079 222.977913 351.55156 
C 223.762394 352.336042 224.826528 352.77682 225.935952 352.77682 
z
" clip-path="url(#p5cd86d2e87)" style="fill: #b7b2d0; fill-opacity: 0.345035; stroke: #b7b2d0; stroke-opacity: 0.345035"/>
    <path d="M 136.070512 249.429146 
C 137.179936 249.429146 138.24407 248.988368 139.028552 248.203886 
C 139.813033 247.419405 140.253812 246.355271 140.253812 245.245846 
C 140.253812 244.136422 139.813033 243.072288 139.028552 242.287806 
C 138.24407 241.503325 137.179936 241.062546 136.070512 241.062546 
C 134.961088 241.062546 133.896953 241.503325 133.112472 242.287806 
C 132.327991 243.072288 131.887212 244.136422 131.887212 245.245846 
C 131.887212 246.355271 132.327991 247.419405 133.112472 248.203886 
C 133.896953 248.988368 134.961088 249.429146 136.070512 249.429146 
z
" clip-path="url(#p5cd86d2e87)" style="fill: #84c3b7; fill-opacity: 0.346132; stroke: #84c3b7; stroke-opacity: 0.346132"/>
    <path d="M 209.035938 373.380082 
C 210.145362 373.380082 211.209496 372.939303 211.993977 372.154822 
C 212.778459 371.370341 213.219238 370.306206 213.219238 369.196782 
C 213.219238 368.087358 212.778459 367.023224 211.993977 366.238742 
C 211.209496 365.454261 210.145362 365.013482 209.035938 365.013482 
C 207.926513 365.013482 206.862379 365.454261 206.077898 366.238742 
C 205.293416 367.023224 204.852637 368.087358 204.852637 369.196782 
C 204.852637 370.306206 205.293416 371.370341 206.077898 372.154822 
C 206.862379 372.939303 207.926513 373.380082 209.035938 373.380082 
z
" clip-path="url(#p5cd86d2e87)" style="fill: #7da6c6; fill-opacity: 0.350787; stroke: #7da6c6; stroke-opacity: 0.350787"/>
    <path d="M 139.698054 202.493316 
C 141.088791 202.493316 142.422754 201.94077 143.406154 200.957371 
C 144.389553 199.973972 144.942099 198.640009 144.942099 197.249272 
C 144.942099 195.858535 144.389553 194.524572 143.406154 193.541173 
C 142.422754 192.557773 141.088791 192.005228 139.698054 192.005228 
C 138.307318 192.005228 136.973354 192.557773 135.989955 193.541173 
C 135.006556 194.524572 134.45401 195.858535 134.45401 197.249272 
C 134.45401 198.640009 135.006556 199.973972 135.989955 200.957371 
C 136.973354 201.94077 138.307318 202.493316 139.698054 202.493316 
z
" clip-path="url(#p5cd86d2e87)" style="fill: #84c3b7; fill-opacity: 0.466693; stroke: #84c3b7; stroke-opacity: 0.466693"/>
    <path d="M 204.78879 372.685193 
C 206.179527 372.685193 207.51349 372.132648 208.496889 371.149248 
C 209.480288 370.165849 210.032834 368.831886 210.032834 367.441149 
C 210.032834 366.050412 209.480288 364.716449 208.496889 363.73305 
C 207.51349 362.74965 206.179527 362.197105 204.78879 362.197105 
C 203.398053 362.197105 202.06409 362.74965 201.08069 363.73305 
C 200.097291 364.716449 199.544745 366.050412 199.544745 367.441149 
C 199.544745 368.831886 200.097291 370.165849 201.08069 371.149248 
C 202.06409 372.132648 203.398053 372.685193 204.78879 372.685193 
z
" clip-path="url(#p5cd86d2e87)" style="fill: #7da6c6; fill-opacity: 0.484486; stroke: #7da6c6; stroke-opacity: 0.484486"/>
    <path d="M 204.582977 374.152747 
C 205.973714 374.152747 207.307677 373.600202 208.291076 372.616802 
C 209.274476 371.633403 209.827021 370.29944 209.827021 368.908703 
C 209.827021 367.517966 209.274476 366.184003 208.291076 365.200604 
C 207.307677 364.217204 205.973714 363.664659 204.582977 363.664659 
C 203.19224 363.664659 201.858277 364.217204 200.874878 365.200604 
C 199.891479 366.184003 199.338933 367.517966 199.338933 368.908703 
C 199.338933 370.29944 199.891479 371.633403 200.874878 372.616802 
C 201.858277 373.600202 203.19224 374.152747 204.582977 374.152747 
z
" clip-path="url(#p5cd86d2e87)" style="fill: #7da6c6; fill-opacity: 0.515877; stroke: #7da6c6; stroke-opacity: 0.515877"/>
    <path d="M 121.54216 309.07222 
C 122.380805 309.07222 123.185215 308.739023 123.778228 308.146011 
C 124.37124 307.552999 124.704437 306.748589 124.704437 305.909943 
C 124.704437 305.071297 124.37124 304.266887 123.778228 303.673875 
C 123.185215 303.080863 122.380805 302.747665 121.54216 302.747665 
C 120.703514 302.747665 119.899104 303.080863 119.306092 303.673875 
C 118.713079 304.266887 118.379882 305.071297 118.379882 305.909943 
C 118.379882 306.748589 118.713079 307.552999 119.306092 308.146011 
C 119.899104 308.739023 120.703514 309.07222 121.54216 309.07222 
z
" clip-path="url(#p5cd86d2e87)" style="fill: #84c3b7; fill-opacity: 0.337788; stroke: #84c3b7; stroke-opacity: 0.337788"/>
    <path d="M 234.229854 368.798433 
C 234.822866 368.798433 235.39167 368.562827 235.810993 368.143504 
C 236.230316 367.724181 236.465922 367.155377 236.465922 366.562365 
C 236.465922 365.969353 236.230316 365.400549 235.810993 364.981226 
C 235.39167 364.561903 234.822866 364.326297 234.229854 364.326297 
C 233.636842 364.326297 233.068038 364.561903 232.648715 364.981226 
C 232.229392 365.400549 231.993786 365.969353 231.993786 366.562365 
C 231.993786 367.155377 232.229392 367.724181 232.648715 368.143504 
C 233.068038 368.562827 233.636842 368.798433 234.229854 368.798433 
z
" clip-path="url(#p5cd86d2e87)" style="fill: #e68b81; fill-opacity: 0.302107; stroke: #e68b81; stroke-opacity: 0.302107"/>
    <path d="M 158.906064 332.523856 
C 159.74471 332.523856 160.54912 332.190659 161.142132 331.597646 
C 161.735144 331.004634 162.068342 330.200224 162.068342 329.361578 
C 162.068342 328.522933 161.735144 327.718523 161.142132 327.12551 
C 160.54912 326.532498 159.74471 326.199301 158.906064 326.199301 
C 158.067418 326.199301 157.263008 326.532498 156.669996 327.12551 
C 156.076984 327.718523 155.743786 328.522933 155.743786 329.361578 
C 155.743786 330.200224 156.076984 331.004634 156.669996 331.597646 
C 157.263008 332.190659 158.067418 332.523856 158.906064 332.523856 
z
" clip-path="url(#p5cd86d2e87)" style="fill: #84c3b7; fill-opacity: 0.36016; stroke: #84c3b7; stroke-opacity: 0.36016"/>
    <path d="M 215.595313 374.605274 
C 216.188325 374.605274 216.757129 374.369668 217.176452 373.950345 
C 217.595774 373.531022 217.831381 372.962219 217.831381 372.369206 
C 217.831381 371.776194 217.595774 371.20739 217.176452 370.788068 
C 216.757129 370.368745 216.188325 370.133138 215.595313 370.133138 
C 215.002301 370.133138 214.433497 370.368745 214.014174 370.788068 
C 213.594851 371.20739 213.359245 371.776194 213.359245 372.369206 
C 213.359245 372.962219 213.594851 373.531022 214.014174 373.950345 
C 214.433497 374.369668 215.002301 374.605274 215.595313 374.605274 
z
" clip-path="url(#p5cd86d2e87)" style="fill: #e68b81; fill-opacity: 0.339473; stroke: #e68b81; stroke-opacity: 0.339473"/>
    <path d="M 299.252069 164.012187 
C 300.642806 164.012187 301.976769 163.459641 302.960169 162.476242 
C 303.943568 161.492842 304.496114 160.158879 304.496114 158.768143 
C 304.496114 157.377406 303.943568 156.043443 302.960169 155.060043 
C 301.976769 154.076644 300.642806 153.524098 299.252069 153.524098 
C 297.861333 153.524098 296.52737 154.076644 295.54397 155.060043 
C 294.560571 156.043443 294.008025 157.377406 294.008025 158.768143 
C 294.008025 160.158879 294.560571 161.492842 295.54397 162.476242 
C 296.52737 163.459641 297.861333 164.012187 299.252069 164.012187 
z
" clip-path="url(#p5cd86d2e87)" style="fill: #e68b81; fill-opacity: 0.656037; stroke: #e68b81; stroke-opacity: 0.656037"/>
    <path d="M 259.087769 267.780274 
C 260.197194 267.780274 261.261328 267.339495 262.045809 266.555013 
C 262.830291 265.770532 263.27107 264.706398 263.27107 263.596973 
C 263.27107 262.487549 262.830291 261.423415 262.045809 260.638934 
C 261.261328 259.854452 260.197194 259.413673 259.087769 259.413673 
C 257.978345 259.413673 256.914211 259.854452 256.12973 260.638934 
C 255.345248 261.423415 254.904469 262.487549 254.904469 263.596973 
C 254.904469 264.706398 255.345248 265.770532 256.12973 266.555013 
C 256.914211 267.339495 257.978345 267.780274 259.087769 267.780274 
z
" clip-path="url(#p5cd86d2e87)" style="fill: #e68b81; fill-opacity: 0.573126; stroke: #e68b81; stroke-opacity: 0.573126"/>
    <path d="M 338.790124 201.648308 
C 340.180861 201.648308 341.514824 201.095763 342.498223 200.112363 
C 343.481623 199.128964 344.034168 197.795001 344.034168 196.404264 
C 344.034168 195.013527 343.481623 193.679564 342.498223 192.696165 
C 341.514824 191.712765 340.180861 191.16022 338.790124 191.16022 
C 337.399387 191.16022 336.065424 191.712765 335.082025 192.696165 
C 334.098625 193.679564 333.54608 195.013527 333.54608 196.404264 
C 333.54608 197.795001 334.098625 199.128964 335.082025 200.112363 
C 336.065424 201.095763 337.399387 201.648308 338.790124 201.648308 
z
" clip-path="url(#p5cd86d2e87)" style="fill: #e68b81; fill-opacity: 0.766713; stroke: #e68b81; stroke-opacity: 0.766713"/>
    <path d="M 197.199128 336.699004 
C 198.037774 336.699004 198.842184 336.365807 199.435196 335.772794 
C 200.028208 335.179782 200.361406 334.375372 200.361406 333.536726 
C 200.361406 332.698081 200.028208 331.893671 199.435196 331.300659 
C 198.842184 330.707646 198.037774 330.374449 197.199128 330.374449 
C 196.360482 330.374449 195.556072 330.707646 194.96306 331.300659 
C 194.370048 331.893671 194.03685 332.698081 194.03685 333.536726 
C 194.03685 334.375372 194.370048 335.179782 194.96306 335.772794 
C 195.556072 336.365807 196.360482 336.699004 197.199128 336.699004 
z
" clip-path="url(#p5cd86d2e87)" style="fill: #e68b81; fill-opacity: 0.50562; stroke: #e68b81; stroke-opacity: 0.50562"/>
    <path d="M 194.833313 336.450181 
C 195.671959 336.450181 196.476369 336.116984 197.069381 335.523971 
C 197.662393 334.930959 197.995591 334.126549 197.995591 333.287903 
C 197.995591 332.449258 197.662393 331.644848 197.069381 331.051835 
C 196.476369 330.458823 195.671959 330.125626 194.833313 330.125626 
C 193.994668 330.125626 193.190258 330.458823 192.597245 331.051835 
C 192.004233 331.644848 191.671036 332.449258 191.671036 333.287903 
C 191.671036 334.126549 192.004233 334.930959 192.597245 335.523971 
C 193.190258 336.116984 193.994668 336.450181 194.833313 336.450181 
z
" clip-path="url(#p5cd86d2e87)" style="fill: #e68b81; fill-opacity: 0.645909; stroke: #e68b81; stroke-opacity: 0.645909"/>
    <path d="M 195.032267 258.358036 
C 196.141691 258.358036 197.205825 257.917257 197.990307 257.132776 
C 198.774788 256.348295 199.215567 255.28416 199.215567 254.174736 
C 199.215567 253.065312 198.774788 252.001178 197.990307 251.216696 
C 197.205825 250.432215 196.141691 249.991436 195.032267 249.991436 
C 193.922843 249.991436 192.858708 250.432215 192.074227 251.216696 
C 191.289746 252.001178 190.848967 253.065312 190.848967 254.174736 
C 190.848967 255.28416 191.289746 256.348295 192.074227 257.132776 
C 192.858708 257.917257 193.922843 258.358036 195.032267 258.358036 
z
" clip-path="url(#p5cd86d2e87)" style="fill: #e68b81; fill-opacity: 0.8; stroke: #e68b81; stroke-opacity: 0.8"/>
   </g>
   <g id="text_20">
    <!--  Acetone -->
    <g style="opacity: 0.95" transform="translate(322.494067 161.772111) scale(0.1 -0.1)">
     <defs>
      <path id="DejaVuSans-41" d="M 2188 4044 
L 1331 1722 
L 3047 1722 
L 2188 4044 
z
M 1831 4666 
L 2547 4666 
L 4325 0 
L 3669 0 
L 3244 1197 
L 1141 1197 
L 716 0 
L 50 0 
L 1831 4666 
z
" transform="scale(0.015625)"/>
      <path id="DejaVuSans-63" d="M 3122 3366 
L 3122 2828 
Q 2878 2963 2633 3030 
Q 2388 3097 2138 3097 
Q 1578 3097 1268 2742 
Q 959 2388 959 1747 
Q 959 1106 1268 751 
Q 1578 397 2138 397 
Q 2388 397 2633 464 
Q 2878 531 3122 666 
L 3122 134 
Q 2881 22 2623 -34 
Q 2366 -91 2075 -91 
Q 1284 -91 818 406 
Q 353 903 353 1747 
Q 353 2603 823 3093 
Q 1294 3584 2113 3584 
Q 2378 3584 2631 3529 
Q 2884 3475 3122 3366 
z
" transform="scale(0.015625)"/>
      <path id="DejaVuSans-65" d="M 3597 1894 
L 3597 1613 
L 953 1613 
Q 991 1019 1311 708 
Q 1631 397 2203 397 
Q 2534 397 2845 478 
Q 3156 559 3463 722 
L 3463 178 
Q 3153 47 2828 -22 
Q 2503 -91 2169 -91 
Q 1331 -91 842 396 
Q 353 884 353 1716 
Q 353 2575 817 3079 
Q 1281 3584 2069 3584 
Q 2775 3584 3186 3129 
Q 3597 2675 3597 1894 
z
M 3022 2063 
Q 3016 2534 2758 2815 
Q 2500 3097 2075 3097 
Q 1594 3097 1305 2825 
Q 1016 2553 972 2059 
L 3022 2063 
z
" transform="scale(0.015625)"/>
      <path id="DejaVuSans-74" d="M 1172 4494 
L 1172 3500 
L 2356 3500 
L 2356 3053 
L 1172 3053 
L 1172 1153 
Q 1172 725 1289 603 
Q 1406 481 1766 481 
L 2356 481 
L 2356 0 
L 1766 0 
Q 1100 0 847 248 
Q 594 497 594 1153 
L 594 3053 
L 172 3053 
L 172 3500 
L 594 3500 
L 594 4494 
L 1172 4494 
z
" transform="scale(0.015625)"/>
      <path id="DejaVuSans-6f" d="M 1959 3097 
Q 1497 3097 1228 2736 
Q 959 2375 959 1747 
Q 959 1119 1226 758 
Q 1494 397 1959 397 
Q 2419 397 2687 759 
Q 2956 1122 2956 1747 
Q 2956 2369 2687 2733 
Q 2419 3097 1959 3097 
z
M 1959 3584 
Q 2709 3584 3137 3096 
Q 3566 2609 3566 1747 
Q 3566 888 3137 398 
Q 2709 -91 1959 -91 
Q 1206 -91 779 398 
Q 353 888 353 1747 
Q 353 2609 779 3096 
Q 1206 3584 1959 3584 
z
" transform="scale(0.015625)"/>
      <path id="DejaVuSans-6e" d="M 3513 2113 
L 3513 0 
L 2938 0 
L 2938 2094 
Q 2938 2591 2744 2837 
Q 2550 3084 2163 3084 
Q 1697 3084 1428 2787 
Q 1159 2491 1159 1978 
L 1159 0 
L 581 0 
L 581 3500 
L 1159 3500 
L 1159 2956 
Q 1366 3272 1645 3428 
Q 1925 3584 2291 3584 
Q 2894 3584 3203 3211 
Q 3513 2838 3513 2113 
z
" transform="scale(0.015625)"/>
     </defs>
     <use xlink:href="#DejaVuSans-20"/>
     <use xlink:href="#DejaVuSans-41" transform="translate(31.787109 0)"/>
     <use xlink:href="#DejaVuSans-63" transform="translate(98.445312 0)"/>
     <use xlink:href="#DejaVuSans-65" transform="translate(153.425781 0)"/>
     <use xlink:href="#DejaVuSans-74" transform="translate(214.949219 0)"/>
     <use xlink:href="#DejaVuSans-6f" transform="translate(254.158203 0)"/>
     <use xlink:href="#DejaVuSans-6e" transform="translate(315.339844 0)"/>
     <use xlink:href="#DejaVuSans-65" transform="translate(378.71875 0)"/>
    </g>
   </g>
   <g id="text_21">
    <!--  Benzene -->
    <g style="opacity: 0.95" transform="translate(265.309375 320.432015) scale(0.1 -0.1)">
     <defs>
      <path id="DejaVuSans-42" d="M 1259 2228 
L 1259 519 
L 2272 519 
Q 2781 519 3026 730 
Q 3272 941 3272 1375 
Q 3272 1813 3026 2020 
Q 2781 2228 2272 2228 
L 1259 2228 
z
M 1259 4147 
L 1259 2741 
L 2194 2741 
Q 2656 2741 2882 2914 
Q 3109 3088 3109 3444 
Q 3109 3797 2882 3972 
Q 2656 4147 2194 4147 
L 1259 4147 
z
M 628 4666 
L 2241 4666 
Q 2963 4666 3353 4366 
Q 3744 4066 3744 3513 
Q 3744 3084 3544 2831 
Q 3344 2578 2956 2516 
Q 3422 2416 3680 2098 
Q 3938 1781 3938 1306 
Q 3938 681 3513 340 
Q 3088 0 2303 0 
L 628 0 
L 628 4666 
z
" transform="scale(0.015625)"/>
      <path id="DejaVuSans-7a" d="M 353 3500 
L 3084 3500 
L 3084 2975 
L 922 459 
L 3084 459 
L 3084 0 
L 275 0 
L 275 525 
L 2438 3041 
L 353 3041 
L 353 3500 
z
" transform="scale(0.015625)"/>
     </defs>
     <use xlink:href="#DejaVuSans-20"/>
     <use xlink:href="#DejaVuSans-42" transform="translate(31.787109 0)"/>
     <use xlink:href="#DejaVuSans-65" transform="translate(100.390625 0)"/>
     <use xlink:href="#DejaVuSans-6e" transform="translate(161.914062 0)"/>
     <use xlink:href="#DejaVuSans-7a" transform="translate(225.292969 0)"/>
     <use xlink:href="#DejaVuSans-65" transform="translate(277.783203 0)"/>
     <use xlink:href="#DejaVuSans-6e" transform="translate(339.306641 0)"/>
     <use xlink:href="#DejaVuSans-65" transform="translate(402.685547 0)"/>
    </g>
   </g>
   <g id="text_22">
    <!--  Toluene -->
    <g style="opacity: 0.95" transform="translate(152.324836 193.573456) scale(0.1 -0.1)">
     <defs>
      <path id="DejaVuSans-54" d="M -19 4666 
L 3928 4666 
L 3928 4134 
L 2272 4134 
L 2272 0 
L 1638 0 
L 1638 4134 
L -19 4134 
L -19 4666 
z
" transform="scale(0.015625)"/>
      <path id="DejaVuSans-6c" d="M 603 4863 
L 1178 4863 
L 1178 0 
L 603 0 
L 603 4863 
z
" transform="scale(0.015625)"/>
      <path id="DejaVuSans-75" d="M 544 1381 
L 544 3500 
L 1119 3500 
L 1119 1403 
Q 1119 906 1312 657 
Q 1506 409 1894 409 
Q 2359 409 2629 706 
Q 2900 1003 2900 1516 
L 2900 3500 
L 3475 3500 
L 3475 0 
L 2900 0 
L 2900 538 
Q 2691 219 2414 64 
Q 2138 -91 1772 -91 
Q 1169 -91 856 284 
Q 544 659 544 1381 
z
M 1991 3584 
L 1991 3584 
z
" transform="scale(0.015625)"/>
     </defs>
     <use xlink:href="#DejaVuSans-20"/>
     <use xlink:href="#DejaVuSans-54" transform="translate(31.787109 0)"/>
     <use xlink:href="#DejaVuSans-6f" transform="translate(75.871094 0)"/>
     <use xlink:href="#DejaVuSans-6c" transform="translate(137.052734 0)"/>
     <use xlink:href="#DejaVuSans-75" transform="translate(164.835938 0)"/>
     <use xlink:href="#DejaVuSans-65" transform="translate(228.214844 0)"/>
     <use xlink:href="#DejaVuSans-6e" transform="translate(289.738281 0)"/>
     <use xlink:href="#DejaVuSans-65" transform="translate(353.117188 0)"/>
    </g>
   </g>
   <g id="text_23">
    <!--  Formaldehyde -->
    <g style="opacity: 0.95" transform="translate(203.537055 370.197947) scale(0.1 -0.1)">
     <defs>
      <path id="DejaVuSans-46" d="M 628 4666 
L 3309 4666 
L 3309 4134 
L 1259 4134 
L 1259 2759 
L 3109 2759 
L 3109 2228 
L 1259 2228 
L 1259 0 
L 628 0 
L 628 4666 
z
" transform="scale(0.015625)"/>
      <path id="DejaVuSans-72" d="M 2631 2963 
Q 2534 3019 2420 3045 
Q 2306 3072 2169 3072 
Q 1681 3072 1420 2755 
Q 1159 2438 1159 1844 
L 1159 0 
L 581 0 
L 581 3500 
L 1159 3500 
L 1159 2956 
Q 1341 3275 1631 3429 
Q 1922 3584 2338 3584 
Q 2397 3584 2469 3576 
Q 2541 3569 2628 3553 
L 2631 2963 
z
" transform="scale(0.015625)"/>
      <path id="DejaVuSans-6d" d="M 3328 2828 
Q 3544 3216 3844 3400 
Q 4144 3584 4550 3584 
Q 5097 3584 5394 3201 
Q 5691 2819 5691 2113 
L 5691 0 
L 5113 0 
L 5113 2094 
Q 5113 2597 4934 2840 
Q 4756 3084 4391 3084 
Q 3944 3084 3684 2787 
Q 3425 2491 3425 1978 
L 3425 0 
L 2847 0 
L 2847 2094 
Q 2847 2600 2669 2842 
Q 2491 3084 2119 3084 
Q 1678 3084 1418 2786 
Q 1159 2488 1159 1978 
L 1159 0 
L 581 0 
L 581 3500 
L 1159 3500 
L 1159 2956 
Q 1356 3278 1631 3431 
Q 1906 3584 2284 3584 
Q 2666 3584 2933 3390 
Q 3200 3197 3328 2828 
z
" transform="scale(0.015625)"/>
      <path id="DejaVuSans-61" d="M 2194 1759 
Q 1497 1759 1228 1600 
Q 959 1441 959 1056 
Q 959 750 1161 570 
Q 1363 391 1709 391 
Q 2188 391 2477 730 
Q 2766 1069 2766 1631 
L 2766 1759 
L 2194 1759 
z
M 3341 1997 
L 3341 0 
L 2766 0 
L 2766 531 
Q 2569 213 2275 61 
Q 1981 -91 1556 -91 
Q 1019 -91 701 211 
Q 384 513 384 1019 
Q 384 1609 779 1909 
Q 1175 2209 1959 2209 
L 2766 2209 
L 2766 2266 
Q 2766 2663 2505 2880 
Q 2244 3097 1772 3097 
Q 1472 3097 1187 3025 
Q 903 2953 641 2809 
L 641 3341 
Q 956 3463 1253 3523 
Q 1550 3584 1831 3584 
Q 2591 3584 2966 3190 
Q 3341 2797 3341 1997 
z
" transform="scale(0.015625)"/>
      <path id="DejaVuSans-64" d="M 2906 2969 
L 2906 4863 
L 3481 4863 
L 3481 0 
L 2906 0 
L 2906 525 
Q 2725 213 2448 61 
Q 2172 -91 1784 -91 
Q 1150 -91 751 415 
Q 353 922 353 1747 
Q 353 2572 751 3078 
Q 1150 3584 1784 3584 
Q 2172 3584 2448 3432 
Q 2725 3281 2906 2969 
z
M 947 1747 
Q 947 1113 1208 752 
Q 1469 391 1925 391 
Q 2381 391 2643 752 
Q 2906 1113 2906 1747 
Q 2906 2381 2643 2742 
Q 2381 3103 1925 3103 
Q 1469 3103 1208 2742 
Q 947 2381 947 1747 
z
" transform="scale(0.015625)"/>
      <path id="DejaVuSans-68" d="M 3513 2113 
L 3513 0 
L 2938 0 
L 2938 2094 
Q 2938 2591 2744 2837 
Q 2550 3084 2163 3084 
Q 1697 3084 1428 2787 
Q 1159 2491 1159 1978 
L 1159 0 
L 581 0 
L 581 4863 
L 1159 4863 
L 1159 2956 
Q 1366 3272 1645 3428 
Q 1925 3584 2291 3584 
Q 2894 3584 3203 3211 
Q 3513 2838 3513 2113 
z
" transform="scale(0.015625)"/>
      <path id="DejaVuSans-79" d="M 2059 -325 
Q 1816 -950 1584 -1140 
Q 1353 -1331 966 -1331 
L 506 -1331 
L 506 -850 
L 844 -850 
Q 1081 -850 1212 -737 
Q 1344 -625 1503 -206 
L 1606 56 
L 191 3500 
L 800 3500 
L 1894 763 
L 2988 3500 
L 3597 3500 
L 2059 -325 
z
" transform="scale(0.015625)"/>
     </defs>
     <use xlink:href="#DejaVuSans-20"/>
     <use xlink:href="#DejaVuSans-46" transform="translate(31.787109 0)"/>
     <use xlink:href="#DejaVuSans-6f" transform="translate(85.681641 0)"/>
     <use xlink:href="#DejaVuSans-72" transform="translate(146.863281 0)"/>
     <use xlink:href="#DejaVuSans-6d" transform="translate(186.226562 0)"/>
     <use xlink:href="#DejaVuSans-61" transform="translate(283.638672 0)"/>
     <use xlink:href="#DejaVuSans-6c" transform="translate(344.917969 0)"/>
     <use xlink:href="#DejaVuSans-64" transform="translate(372.701172 0)"/>
     <use xlink:href="#DejaVuSans-65" transform="translate(436.177734 0)"/>
     <use xlink:href="#DejaVuSans-68" transform="translate(497.701172 0)"/>
     <use xlink:href="#DejaVuSans-79" transform="translate(561.080078 0)"/>
     <use xlink:href="#DejaVuSans-64" transform="translate(620.259766 0)"/>
     <use xlink:href="#DejaVuSans-65" transform="translate(683.736328 0)"/>
    </g>
   </g>
  </g>
 </g>
 <defs>
  <clipPath id="p5cd86d2e87">
   <rect x="0" y="85.68" width="410.4" height="410.4"/>
  </clipPath>
 </defs>
</svg>
