<?xml version="1.0" encoding="utf-8" standalone="no"?>
<!DOCTYPE svg PUBLIC "-//W3C//DTD SVG 1.1//EN"
  "http://www.w3.org/Graphics/SVG/1.1/DTD/svg11.dtd">
<svg xmlns:xlink="http://www.w3.org/1999/xlink" width="432pt" height="576pt" viewBox="0 0 432 576" xmlns="http://www.w3.org/2000/svg" version="1.1">
 <metadata>
  <rdf:RDF xmlns:dc="http://purl.org/dc/elements/1.1/" xmlns:cc="http://creativecommons.org/ns#" xmlns:rdf="http://www.w3.org/1999/02/22-rdf-syntax-ns#">
   <cc:Work>
    <dc:type rdf:resource="http://purl.org/dc/dcmitype/StillImage"/>
    <dc:date>2025-06-23T13:40:08.956820</dc:date>
    <dc:format>image/svg+xml</dc:format>
    <dc:creator>
     <cc:Agent>
      <dc:title>Matplotlib v3.10.1, https://matplotlib.org/</dc:title>
     </cc:Agent>
    </dc:creator>
   </cc:Work>
  </rdf:RDF>
 </metadata>
 <defs>
  <style type="text/css">*{stroke-linejoin: round; stroke-linecap: butt}</style>
 </defs>
 <g id="figure_1">
  <g id="patch_1">
   <path d="M 0 576 
L 432 576 
L 432 0 
L 0 0 
z
" style="fill: #ffffff"/>
  </g>
  <g id="patch_2">
   <path d="M 64.8 463.68 
L 410.4 463.68 
L 410.4 118.08 
L 64.8 118.08 
z
" style="fill: #ffffff"/>
  </g>
  <g id="pane3d_1">
   <g id="patch_3">
    <path d="M 105.48942 175.993734 
L 293.374065 182.134066 
L 381.507667 174.014285 
L 183.659385 166.845467 
" style="fill: #f2f2f2; opacity: 0.5; stroke: #f2f2f2; stroke-linejoin: miter"/>
   </g>
  </g>
  <g id="pane3d_2">
   <g id="patch_4">
    <path d="M 293.374065 182.134066 
L 293.374065 390.285394 
L 381.507667 398.405174 
L 381.507667 174.014285 
" style="fill: #e6e6e6; opacity: 0.5; stroke: #e6e6e6; stroke-linejoin: miter"/>
   </g>
  </g>
  <g id="pane3d_3">
   <g id="patch_5">
    <path d="M 105.48942 175.993734 
L 105.48942 396.425725 
L 293.374065 390.285394 
L 293.374065 182.134066 
" style="fill: #ececec; opacity: 0.5; stroke: #ececec; stroke-linejoin: miter"/>
   </g>
  </g>
  <g id="grid3d_1">
   <g id="Line3DCollection_1">
    <path d="M 105.48942 209.047563 
L 293.374065 213.346406 
L 381.507667 207.661752 
" style="fill: none; stroke: #b0b0b0; stroke-width: 0.8"/>
    <path d="M 105.48942 247.48726 
L 293.374065 249.644558 
L 381.507667 246.791815 
" style="fill: none; stroke: #b0b0b0; stroke-width: 0.8"/>
    <path d="M 105.48942 285.926956 
L 293.374065 285.94271 
L 381.507667 285.921878 
" style="fill: none; stroke: #b0b0b0; stroke-width: 0.8"/>
    <path d="M 105.48942 324.366653 
L 293.374065 322.240862 
L 381.507667 325.051941 
" style="fill: none; stroke: #b0b0b0; stroke-width: 0.8"/>
    <path d="M 105.48942 362.806349 
L 293.374065 358.539014 
L 381.507667 364.182004 
" style="fill: none; stroke: #b0b0b0; stroke-width: 0.8"/>
   </g>
  </g>
  <g id="grid3d_2">
   <g id="Line3DCollection_2">
    <path d="M 192.995336 167.183745 
L 114.316321 176.28221 
L 114.316321 396.13725 
" style="fill: none; stroke: #b0b0b0; stroke-width: 0.8"/>
    <path d="M 223.72102 168.297057 
L 143.393764 177.232501 
L 143.393764 395.186958 
" style="fill: none; stroke: #b0b0b0; stroke-width: 0.8"/>
    <path d="M 253.877244 169.389735 
L 171.972784 178.166503 
L 171.972784 394.252956 
" style="fill: none; stroke: #b0b0b0; stroke-width: 0.8"/>
    <path d="M 283.479694 170.462348 
L 200.066088 179.084631 
L 200.066088 393.334828 
" style="fill: none; stroke: #b0b0b0; stroke-width: 0.8"/>
    <path d="M 312.543485 171.515443 
L 227.685952 179.987287 
L 227.685952 392.432172 
" style="fill: none; stroke: #b0b0b0; stroke-width: 0.8"/>
    <path d="M 341.083187 172.549548 
L 254.844246 180.874858 
L 254.844246 391.544602 
" style="fill: none; stroke: #b0b0b0; stroke-width: 0.8"/>
    <path d="M 369.112848 173.565172 
L 281.552444 181.747719 
L 281.552444 390.671741 
" style="fill: none; stroke: #b0b0b0; stroke-width: 0.8"/>
   </g>
  </g>
  <g id="grid3d_3">
   <g id="Line3DCollection_3">
    <path d="M 293.565074 390.302991 
L 293.565074 182.116468 
L 105.658057 175.973999 
" style="fill: none; stroke: #b0b0b0; stroke-width: 0.8"/>
    <path d="M 303.482434 391.216681 
L 303.482434 181.202778 
L 114.418468 174.948764 
" style="fill: none; stroke: #b0b0b0; stroke-width: 0.8"/>
    <path d="M 313.575436 392.146553 
L 313.575436 180.272906 
L 123.343359 173.90428 
" style="fill: none; stroke: #b0b0b0; stroke-width: 0.8"/>
    <path d="M 323.848789 393.093041 
L 323.848789 179.326418 
L 132.437405 172.839999 
" style="fill: none; stroke: #b0b0b0; stroke-width: 0.8"/>
    <path d="M 334.307371 394.056594 
L 334.307371 178.362865 
L 141.705464 171.755354 
" style="fill: none; stroke: #b0b0b0; stroke-width: 0.8"/>
    <path d="M 344.956237 395.037678 
L 344.956237 177.381782 
L 151.152576 170.649754 
" style="fill: none; stroke: #b0b0b0; stroke-width: 0.8"/>
    <path d="M 355.800627 396.036775 
L 355.800627 176.382684 
L 160.783982 169.522586 
" style="fill: none; stroke: #b0b0b0; stroke-width: 0.8"/>
    <path d="M 366.845976 397.054387 
L 366.845976 175.365072 
L 170.605128 168.373213 
" style="fill: none; stroke: #b0b0b0; stroke-width: 0.8"/>
    <path d="M 378.097923 398.091033 
L 378.097923 174.328426 
L 180.621676 167.200972 
" style="fill: none; stroke: #b0b0b0; stroke-width: 0.8"/>
   </g>
  </g>
  <g id="axis3d_1">
   <g id="line2d_1">
    <path d="M 105.48942 175.993734 
L 105.48942 396.425725 
" style="fill: none; stroke: #000000; stroke-width: 0.8; stroke-linecap: square"/>
   </g>
   <g id="xtick_1">
    <g id="line2d_2">
     <path d="M 107.080426 209.083966 
L 102.302899 208.974655 
" style="fill: none; stroke: #000000; stroke-width: 0.8; stroke-linecap: square"/>
    </g>
    <g id="text_1">
     <!-- −6 -->
     <g transform="translate(80.814455 216.732879) scale(0.1 -0.1)">
      <defs>
       <path id="DejaVuSans-2212" d="M 678 2272 
L 4684 2272 
L 4684 1741 
L 678 1741 
L 678 2272 
z
" transform="scale(0.015625)"/>
       <path id="DejaVuSans-36" d="M 2113 2584 
Q 1688 2584 1439 2293 
Q 1191 2003 1191 1497 
Q 1191 994 1439 701 
Q 1688 409 2113 409 
Q 2538 409 2786 701 
Q 3034 994 3034 1497 
Q 3034 2003 2786 2293 
Q 2538 2584 2113 2584 
z
M 3366 4563 
L 3366 3988 
Q 3128 4100 2886 4159 
Q 2644 4219 2406 4219 
Q 1781 4219 1451 3797 
Q 1122 3375 1075 2522 
Q 1259 2794 1537 2939 
Q 1816 3084 2150 3084 
Q 2853 3084 3261 2657 
Q 3669 2231 3669 1497 
Q 3669 778 3244 343 
Q 2819 -91 2113 -91 
Q 1303 -91 875 529 
Q 447 1150 447 2328 
Q 447 3434 972 4092 
Q 1497 4750 2381 4750 
Q 2619 4750 2861 4703 
Q 3103 4656 3366 4563 
z
" transform="scale(0.015625)"/>
      </defs>
      <use xlink:href="#DejaVuSans-2212"/>
      <use xlink:href="#DejaVuSans-36" transform="translate(83.789062 0)"/>
     </g>
    </g>
   </g>
   <g id="xtick_2">
    <g id="line2d_3">
     <path d="M 107.080426 247.505528 
L 102.302899 247.450672 
" style="fill: none; stroke: #000000; stroke-width: 0.8; stroke-linecap: square"/>
    </g>
    <g id="text_2">
     <!-- −4 -->
     <g transform="translate(80.814455 255.129296) scale(0.1 -0.1)">
      <defs>
       <path id="DejaVuSans-34" d="M 2419 4116 
L 825 1625 
L 2419 1625 
L 2419 4116 
z
M 2253 4666 
L 3047 4666 
L 3047 1625 
L 3713 1625 
L 3713 1100 
L 3047 1100 
L 3047 0 
L 2419 0 
L 2419 1100 
L 313 1100 
L 313 1709 
L 2253 4666 
z
" transform="scale(0.015625)"/>
      </defs>
      <use xlink:href="#DejaVuSans-2212"/>
      <use xlink:href="#DejaVuSans-34" transform="translate(83.789062 0)"/>
     </g>
    </g>
   </g>
   <g id="xtick_3">
    <g id="line2d_4">
     <path d="M 107.080426 285.92709 
L 102.302899 285.926689 
" style="fill: none; stroke: #000000; stroke-width: 0.8; stroke-linecap: square"/>
    </g>
    <g id="text_3">
     <!-- −2 -->
     <g transform="translate(80.814455 293.525712) scale(0.1 -0.1)">
      <defs>
       <path id="DejaVuSans-32" d="M 1228 531 
L 3431 531 
L 3431 0 
L 469 0 
L 469 531 
Q 828 903 1448 1529 
Q 2069 2156 2228 2338 
Q 2531 2678 2651 2914 
Q 2772 3150 2772 3378 
Q 2772 3750 2511 3984 
Q 2250 4219 1831 4219 
Q 1534 4219 1204 4116 
Q 875 4013 500 3803 
L 500 4441 
Q 881 4594 1212 4672 
Q 1544 4750 1819 4750 
Q 2544 4750 2975 4387 
Q 3406 4025 3406 3419 
Q 3406 3131 3298 2873 
Q 3191 2616 2906 2266 
Q 2828 2175 2409 1742 
Q 1991 1309 1228 531 
z
" transform="scale(0.015625)"/>
      </defs>
      <use xlink:href="#DejaVuSans-2212"/>
      <use xlink:href="#DejaVuSans-32" transform="translate(83.789062 0)"/>
     </g>
    </g>
   </g>
   <g id="xtick_4">
    <g id="line2d_5">
     <path d="M 107.080426 324.348652 
L 102.302899 324.402706 
" style="fill: none; stroke: #000000; stroke-width: 0.8; stroke-linecap: square"/>
    </g>
    <g id="text_4">
     <!-- 0 -->
     <g transform="translate(85.004299 331.922129) scale(0.1 -0.1)">
      <defs>
       <path id="DejaVuSans-30" d="M 2034 4250 
Q 1547 4250 1301 3770 
Q 1056 3291 1056 2328 
Q 1056 1369 1301 889 
Q 1547 409 2034 409 
Q 2525 409 2770 889 
Q 3016 1369 3016 2328 
Q 3016 3291 2770 3770 
Q 2525 4250 2034 4250 
z
M 2034 4750 
Q 2819 4750 3233 4129 
Q 3647 3509 3647 2328 
Q 3647 1150 3233 529 
Q 2819 -91 2034 -91 
Q 1250 -91 836 529 
Q 422 1150 422 2328 
Q 422 3509 836 4129 
Q 1250 4750 2034 4750 
z
" transform="scale(0.015625)"/>
      </defs>
      <use xlink:href="#DejaVuSans-30"/>
     </g>
    </g>
   </g>
   <g id="xtick_5">
    <g id="line2d_6">
     <path d="M 107.080426 362.770214 
L 102.302899 362.878723 
" style="fill: none; stroke: #000000; stroke-width: 0.8; stroke-linecap: square"/>
    </g>
    <g id="text_5">
     <!-- 2 -->
     <g transform="translate(85.004299 370.318546) scale(0.1 -0.1)">
      <use xlink:href="#DejaVuSans-32"/>
     </g>
    </g>
   </g>
   <g id="text_6">
    <!-- PC1 (91.46%) -->
    <g transform="translate(69.734334 327.301292) rotate(-90) scale(0.12 -0.12)">
     <defs>
      <path id="DejaVuSans-50" d="M 1259 4147 
L 1259 2394 
L 2053 2394 
Q 2494 2394 2734 2622 
Q 2975 2850 2975 3272 
Q 2975 3691 2734 3919 
Q 2494 4147 2053 4147 
L 1259 4147 
z
M 628 4666 
L 2053 4666 
Q 2838 4666 3239 4311 
Q 3641 3956 3641 3272 
Q 3641 2581 3239 2228 
Q 2838 1875 2053 1875 
L 1259 1875 
L 1259 0 
L 628 0 
L 628 4666 
z
" transform="scale(0.015625)"/>
      <path id="DejaVuSans-43" d="M 4122 4306 
L 4122 3641 
Q 3803 3938 3442 4084 
Q 3081 4231 2675 4231 
Q 1875 4231 1450 3742 
Q 1025 3253 1025 2328 
Q 1025 1406 1450 917 
Q 1875 428 2675 428 
Q 3081 428 3442 575 
Q 3803 722 4122 1019 
L 4122 359 
Q 3791 134 3420 21 
Q 3050 -91 2638 -91 
Q 1578 -91 968 557 
Q 359 1206 359 2328 
Q 359 3453 968 4101 
Q 1578 4750 2638 4750 
Q 3056 4750 3426 4639 
Q 3797 4528 4122 4306 
z
" transform="scale(0.015625)"/>
      <path id="DejaVuSans-31" d="M 794 531 
L 1825 531 
L 1825 4091 
L 703 3866 
L 703 4441 
L 1819 4666 
L 2450 4666 
L 2450 531 
L 3481 531 
L 3481 0 
L 794 0 
L 794 531 
z
" transform="scale(0.015625)"/>
      <path id="DejaVuSans-20" transform="scale(0.015625)"/>
      <path id="DejaVuSans-28" d="M 1984 4856 
Q 1566 4138 1362 3434 
Q 1159 2731 1159 2009 
Q 1159 1288 1364 580 
Q 1569 -128 1984 -844 
L 1484 -844 
Q 1016 -109 783 600 
Q 550 1309 550 2009 
Q 550 2706 781 3412 
Q 1013 4119 1484 4856 
L 1984 4856 
z
" transform="scale(0.015625)"/>
      <path id="DejaVuSans-39" d="M 703 97 
L 703 672 
Q 941 559 1184 500 
Q 1428 441 1663 441 
Q 2288 441 2617 861 
Q 2947 1281 2994 2138 
Q 2813 1869 2534 1725 
Q 2256 1581 1919 1581 
Q 1219 1581 811 2004 
Q 403 2428 403 3163 
Q 403 3881 828 4315 
Q 1253 4750 1959 4750 
Q 2769 4750 3195 4129 
Q 3622 3509 3622 2328 
Q 3622 1225 3098 567 
Q 2575 -91 1691 -91 
Q 1453 -91 1209 -44 
Q 966 3 703 97 
z
M 1959 2075 
Q 2384 2075 2632 2365 
Q 2881 2656 2881 3163 
Q 2881 3666 2632 3958 
Q 2384 4250 1959 4250 
Q 1534 4250 1286 3958 
Q 1038 3666 1038 3163 
Q 1038 2656 1286 2365 
Q 1534 2075 1959 2075 
z
" transform="scale(0.015625)"/>
      <path id="DejaVuSans-2e" d="M 684 794 
L 1344 794 
L 1344 0 
L 684 0 
L 684 794 
z
" transform="scale(0.015625)"/>
      <path id="DejaVuSans-25" d="M 4653 2053 
Q 4381 2053 4226 1822 
Q 4072 1591 4072 1178 
Q 4072 772 4226 539 
Q 4381 306 4653 306 
Q 4919 306 5073 539 
Q 5228 772 5228 1178 
Q 5228 1588 5073 1820 
Q 4919 2053 4653 2053 
z
M 4653 2450 
Q 5147 2450 5437 2106 
Q 5728 1763 5728 1178 
Q 5728 594 5436 251 
Q 5144 -91 4653 -91 
Q 4153 -91 3862 251 
Q 3572 594 3572 1178 
Q 3572 1766 3864 2108 
Q 4156 2450 4653 2450 
z
M 1428 4353 
Q 1159 4353 1004 4120 
Q 850 3888 850 3481 
Q 850 3069 1003 2837 
Q 1156 2606 1428 2606 
Q 1700 2606 1854 2837 
Q 2009 3069 2009 3481 
Q 2009 3884 1853 4118 
Q 1697 4353 1428 4353 
z
M 4250 4750 
L 4750 4750 
L 1831 -91 
L 1331 -91 
L 4250 4750 
z
M 1428 4750 
Q 1922 4750 2215 4408 
Q 2509 4066 2509 3481 
Q 2509 2891 2217 2550 
Q 1925 2209 1428 2209 
Q 931 2209 642 2551 
Q 353 2894 353 3481 
Q 353 4063 643 4406 
Q 934 4750 1428 4750 
z
" transform="scale(0.015625)"/>
      <path id="DejaVuSans-29" d="M 513 4856 
L 1013 4856 
Q 1481 4119 1714 3412 
Q 1947 2706 1947 2009 
Q 1947 1309 1714 600 
Q 1481 -109 1013 -844 
L 513 -844 
Q 928 -128 1133 580 
Q 1338 1288 1338 2009 
Q 1338 2731 1133 3434 
Q 928 4138 513 4856 
z
" transform="scale(0.015625)"/>
     </defs>
     <use xlink:href="#DejaVuSans-50"/>
     <use xlink:href="#DejaVuSans-43" transform="translate(60.302734 0)"/>
     <use xlink:href="#DejaVuSans-31" transform="translate(130.126953 0)"/>
     <use xlink:href="#DejaVuSans-20" transform="translate(193.75 0)"/>
     <use xlink:href="#DejaVuSans-28" transform="translate(225.537109 0)"/>
     <use xlink:href="#DejaVuSans-39" transform="translate(264.550781 0)"/>
     <use xlink:href="#DejaVuSans-31" transform="translate(328.173828 0)"/>
     <use xlink:href="#DejaVuSans-2e" transform="translate(391.796875 0)"/>
     <use xlink:href="#DejaVuSans-34" transform="translate(423.583984 0)"/>
     <use xlink:href="#DejaVuSans-36" transform="translate(487.207031 0)"/>
     <use xlink:href="#DejaVuSans-25" transform="translate(550.830078 0)"/>
     <use xlink:href="#DejaVuSans-29" transform="translate(645.849609 0)"/>
    </g>
   </g>
  </g>
  <g id="axis3d_2">
   <g id="line2d_7">
    <path d="M 293.374065 390.285394 
L 105.48942 396.425725 
" style="fill: none; stroke: #000000; stroke-width: 0.8; stroke-linecap: square"/>
   </g>
   <g id="xtick_6">
    <g id="line2d_8">
     <path d="M 114.316321 394.378409 
L 114.316321 399.65493 
" style="fill: none; stroke: #000000; stroke-width: 0.8; stroke-linecap: square"/>
    </g>
    <g id="text_7">
     <!-- −1.5 -->
     <g transform="translate(97.55501 417.179469) scale(0.1 -0.1)">
      <defs>
       <path id="DejaVuSans-35" d="M 691 4666 
L 3169 4666 
L 3169 4134 
L 1269 4134 
L 1269 2991 
Q 1406 3038 1543 3061 
Q 1681 3084 1819 3084 
Q 2600 3084 3056 2656 
Q 3513 2228 3513 1497 
Q 3513 744 3044 326 
Q 2575 -91 1722 -91 
Q 1428 -91 1123 -41 
Q 819 9 494 109 
L 494 744 
Q 775 591 1075 516 
Q 1375 441 1709 441 
Q 2250 441 2565 725 
Q 2881 1009 2881 1497 
Q 2881 1984 2565 2268 
Q 2250 2553 1709 2553 
Q 1456 2553 1204 2497 
Q 953 2441 691 2322 
L 691 4666 
z
" transform="scale(0.015625)"/>
      </defs>
      <use xlink:href="#DejaVuSans-2212"/>
      <use xlink:href="#DejaVuSans-31" transform="translate(83.789062 0)"/>
      <use xlink:href="#DejaVuSans-2e" transform="translate(147.412109 0)"/>
      <use xlink:href="#DejaVuSans-35" transform="translate(179.199219 0)"/>
     </g>
    </g>
   </g>
   <g id="xtick_7">
    <g id="line2d_9">
     <path d="M 143.393764 393.443323 
L 143.393764 398.67423 
" style="fill: none; stroke: #000000; stroke-width: 0.8; stroke-linecap: square"/>
    </g>
    <g id="text_8">
     <!-- −1.0 -->
     <g transform="translate(126.532098 416.118099) scale(0.1 -0.1)">
      <use xlink:href="#DejaVuSans-2212"/>
      <use xlink:href="#DejaVuSans-31" transform="translate(83.789062 0)"/>
      <use xlink:href="#DejaVuSans-2e" transform="translate(147.412109 0)"/>
      <use xlink:href="#DejaVuSans-30" transform="translate(179.199219 0)"/>
     </g>
    </g>
   </g>
   <g id="xtick_8">
    <g id="line2d_10">
     <path d="M 171.972784 392.524265 
L 171.972784 397.71034 
" style="fill: none; stroke: #000000; stroke-width: 0.8; stroke-linecap: square"/>
    </g>
    <g id="text_9">
     <!-- −0.5 -->
     <g transform="translate(155.014855 415.074835) scale(0.1 -0.1)">
      <use xlink:href="#DejaVuSans-2212"/>
      <use xlink:href="#DejaVuSans-30" transform="translate(83.789062 0)"/>
      <use xlink:href="#DejaVuSans-2e" transform="translate(147.412109 0)"/>
      <use xlink:href="#DejaVuSans-35" transform="translate(179.199219 0)"/>
     </g>
    </g>
   </g>
   <g id="xtick_9">
    <g id="line2d_11">
     <path d="M 200.066088 391.620826 
L 200.066088 396.762831 
" style="fill: none; stroke: #000000; stroke-width: 0.8; stroke-linecap: square"/>
    </g>
    <g id="text_10">
     <!-- 0.0 -->
     <g transform="translate(187.205669 414.049218) scale(0.1 -0.1)">
      <use xlink:href="#DejaVuSans-30"/>
      <use xlink:href="#DejaVuSans-2e" transform="translate(63.623047 0)"/>
      <use xlink:href="#DejaVuSans-30" transform="translate(95.410156 0)"/>
     </g>
    </g>
   </g>
   <g id="xtick_10">
    <g id="line2d_12">
     <path d="M 227.685952 390.732613 
L 227.685952 395.831291 
" style="fill: none; stroke: #000000; stroke-width: 0.8; stroke-linecap: square"/>
    </g>
    <g id="text_11">
     <!-- 0.5 -->
     <g transform="translate(214.736973 413.040804) scale(0.1 -0.1)">
      <use xlink:href="#DejaVuSans-30"/>
      <use xlink:href="#DejaVuSans-2e" transform="translate(63.623047 0)"/>
      <use xlink:href="#DejaVuSans-35" transform="translate(95.410156 0)"/>
     </g>
    </g>
   </g>
   <g id="xtick_11">
    <g id="line2d_13">
     <path d="M 254.844246 389.859244 
L 254.844246 394.915318 
" style="fill: none; stroke: #000000; stroke-width: 0.8; stroke-linecap: square"/>
    </g>
    <g id="text_12">
     <!-- 1.0 -->
     <g transform="translate(241.810329 412.049163) scale(0.1 -0.1)">
      <use xlink:href="#DejaVuSans-31"/>
      <use xlink:href="#DejaVuSans-2e" transform="translate(63.623047 0)"/>
      <use xlink:href="#DejaVuSans-30" transform="translate(95.410156 0)"/>
     </g>
    </g>
   </g>
   <g id="xtick_12">
    <g id="line2d_14">
     <path d="M 281.552444 389.000348 
L 281.552444 394.014525 
" style="fill: none; stroke: #000000; stroke-width: 0.8; stroke-linecap: square"/>
    </g>
    <g id="text_13">
     <!-- 1.5 -->
     <g transform="translate(268.437069 411.073882) scale(0.1 -0.1)">
      <use xlink:href="#DejaVuSans-31"/>
      <use xlink:href="#DejaVuSans-2e" transform="translate(63.623047 0)"/>
      <use xlink:href="#DejaVuSans-35" transform="translate(95.410156 0)"/>
     </g>
    </g>
   </g>
   <g id="text_14">
    <!-- PC2 (6.15%) -->
    <g transform="translate(145.59076 449.492722) rotate(-1.871839) scale(0.12 -0.12)">
     <use xlink:href="#DejaVuSans-50"/>
     <use xlink:href="#DejaVuSans-43" transform="translate(60.302734 0)"/>
     <use xlink:href="#DejaVuSans-32" transform="translate(130.126953 0)"/>
     <use xlink:href="#DejaVuSans-20" transform="translate(193.75 0)"/>
     <use xlink:href="#DejaVuSans-28" transform="translate(225.537109 0)"/>
     <use xlink:href="#DejaVuSans-36" transform="translate(264.550781 0)"/>
     <use xlink:href="#DejaVuSans-2e" transform="translate(328.173828 0)"/>
     <use xlink:href="#DejaVuSans-31" transform="translate(359.960938 0)"/>
     <use xlink:href="#DejaVuSans-35" transform="translate(423.583984 0)"/>
     <use xlink:href="#DejaVuSans-25" transform="translate(487.207031 0)"/>
     <use xlink:href="#DejaVuSans-29" transform="translate(582.226562 0)"/>
    </g>
   </g>
  </g>
  <g id="axis3d_3">
   <g id="line2d_15">
    <path d="M 293.374065 390.285394 
L 381.507667 398.405174 
" style="fill: none; stroke: #000000; stroke-width: 0.8; stroke-linecap: square"/>
   </g>
   <g id="xtick_13">
    <g id="line2d_16">
     <path d="M 293.565074 388.637499 
L 293.565074 393.633976 
" style="fill: none; stroke: #000000; stroke-width: 0.8; stroke-linecap: square"/>
    </g>
    <g id="text_15">
     <!-- −1.0 -->
     <g transform="translate(307.620464 427.470173) rotate(-90) scale(0.1 -0.1)">
      <use xlink:href="#DejaVuSans-2212"/>
      <use xlink:href="#DejaVuSans-31" transform="translate(83.789062 0)"/>
      <use xlink:href="#DejaVuSans-2e" transform="translate(147.412109 0)"/>
      <use xlink:href="#DejaVuSans-30" transform="translate(179.199219 0)"/>
     </g>
    </g>
   </g>
   <g id="xtick_14">
    <g id="line2d_17">
     <path d="M 303.482434 389.53657 
L 303.482434 394.576904 
" style="fill: none; stroke: #000000; stroke-width: 0.8; stroke-linecap: square"/>
    </g>
    <g id="text_16">
     <!-- −0.8 -->
     <g transform="translate(317.601132 428.493283) rotate(-90) scale(0.1 -0.1)">
      <defs>
       <path id="DejaVuSans-38" d="M 2034 2216 
Q 1584 2216 1326 1975 
Q 1069 1734 1069 1313 
Q 1069 891 1326 650 
Q 1584 409 2034 409 
Q 2484 409 2743 651 
Q 3003 894 3003 1313 
Q 3003 1734 2745 1975 
Q 2488 2216 2034 2216 
z
M 1403 2484 
Q 997 2584 770 2862 
Q 544 3141 544 3541 
Q 544 4100 942 4425 
Q 1341 4750 2034 4750 
Q 2731 4750 3128 4425 
Q 3525 4100 3525 3541 
Q 3525 3141 3298 2862 
Q 3072 2584 2669 2484 
Q 3125 2378 3379 2068 
Q 3634 1759 3634 1313 
Q 3634 634 3220 271 
Q 2806 -91 2034 -91 
Q 1263 -91 848 271 
Q 434 634 434 1313 
Q 434 1759 690 2068 
Q 947 2378 1403 2484 
z
M 1172 3481 
Q 1172 3119 1398 2916 
Q 1625 2713 2034 2713 
Q 2441 2713 2670 2916 
Q 2900 3119 2900 3481 
Q 2900 3844 2670 4047 
Q 2441 4250 2034 4250 
Q 1625 4250 1398 4047 
Q 1172 3844 1172 3481 
z
" transform="scale(0.015625)"/>
      </defs>
      <use xlink:href="#DejaVuSans-2212"/>
      <use xlink:href="#DejaVuSans-30" transform="translate(83.789062 0)"/>
      <use xlink:href="#DejaVuSans-2e" transform="translate(147.412109 0)"/>
      <use xlink:href="#DejaVuSans-38" transform="translate(179.199219 0)"/>
     </g>
    </g>
   </g>
   <g id="xtick_15">
    <g id="line2d_18">
     <path d="M 313.575436 390.451564 
L 313.575436 395.536532 
" style="fill: none; stroke: #000000; stroke-width: 0.8; stroke-linecap: square"/>
    </g>
    <g id="text_17">
     <!-- −0.6 -->
     <g transform="translate(327.757927 429.534447) rotate(-90) scale(0.1 -0.1)">
      <use xlink:href="#DejaVuSans-2212"/>
      <use xlink:href="#DejaVuSans-30" transform="translate(83.789062 0)"/>
      <use xlink:href="#DejaVuSans-2e" transform="translate(147.412109 0)"/>
      <use xlink:href="#DejaVuSans-36" transform="translate(179.199219 0)"/>
     </g>
    </g>
   </g>
   <g id="xtick_16">
    <g id="line2d_19">
     <path d="M 323.848789 391.382908 
L 323.848789 396.513307 
" style="fill: none; stroke: #000000; stroke-width: 0.8; stroke-linecap: square"/>
    </g>
    <g id="text_18">
     <!-- −0.4 -->
     <g transform="translate(338.095552 430.594148) rotate(-90) scale(0.1 -0.1)">
      <use xlink:href="#DejaVuSans-2212"/>
      <use xlink:href="#DejaVuSans-30" transform="translate(83.789062 0)"/>
      <use xlink:href="#DejaVuSans-2e" transform="translate(147.412109 0)"/>
      <use xlink:href="#DejaVuSans-34" transform="translate(179.199219 0)"/>
     </g>
    </g>
   </g>
   <g id="xtick_17">
    <g id="line2d_20">
     <path d="M 334.307371 392.331044 
L 334.307371 397.507694 
" style="fill: none; stroke: #000000; stroke-width: 0.8; stroke-linecap: square"/>
    </g>
    <g id="text_19">
     <!-- −0.2 -->
     <g transform="translate(348.618879 431.672885) rotate(-90) scale(0.1 -0.1)">
      <use xlink:href="#DejaVuSans-2212"/>
      <use xlink:href="#DejaVuSans-30" transform="translate(83.789062 0)"/>
      <use xlink:href="#DejaVuSans-2e" transform="translate(147.412109 0)"/>
      <use xlink:href="#DejaVuSans-32" transform="translate(179.199219 0)"/>
     </g>
    </g>
   </g>
   <g id="xtick_18">
    <g id="line2d_21">
     <path d="M 344.956237 393.296431 
L 344.956237 398.520172 
" style="fill: none; stroke: #000000; stroke-width: 0.8; stroke-linecap: square"/>
    </g>
    <g id="text_20">
     <!-- 0.0 -->
     <g transform="translate(359.332958 424.391488) rotate(-90) scale(0.1 -0.1)">
      <use xlink:href="#DejaVuSans-30"/>
      <use xlink:href="#DejaVuSans-2e" transform="translate(63.623047 0)"/>
      <use xlink:href="#DejaVuSans-30" transform="translate(95.410156 0)"/>
     </g>
    </g>
   </g>
   <g id="xtick_19">
    <g id="line2d_22">
     <path d="M 355.800627 394.279543 
L 355.800627 399.551241 
" style="fill: none; stroke: #000000; stroke-width: 0.8; stroke-linecap: square"/>
    </g>
    <g id="text_21">
     <!-- 0.2 -->
     <g transform="translate(370.243022 425.509869) rotate(-90) scale(0.1 -0.1)">
      <use xlink:href="#DejaVuSans-30"/>
      <use xlink:href="#DejaVuSans-2e" transform="translate(63.623047 0)"/>
      <use xlink:href="#DejaVuSans-32" transform="translate(95.410156 0)"/>
     </g>
    </g>
   </g>
   <g id="xtick_20">
    <g id="line2d_23">
     <path d="M 366.845976 395.280873 
L 366.845976 400.601416 
" style="fill: none; stroke: #000000; stroke-width: 0.8; stroke-linecap: square"/>
    </g>
    <g id="text_22">
     <!-- 0.4 -->
     <g transform="translate(381.354499 426.648897) rotate(-90) scale(0.1 -0.1)">
      <use xlink:href="#DejaVuSans-30"/>
      <use xlink:href="#DejaVuSans-2e" transform="translate(63.623047 0)"/>
      <use xlink:href="#DejaVuSans-34" transform="translate(95.410156 0)"/>
     </g>
    </g>
   </g>
   <g id="xtick_21">
    <g id="line2d_24">
     <path d="M 378.097923 396.300932 
L 378.097923 401.671235 
" style="fill: none; stroke: #000000; stroke-width: 0.8; stroke-linecap: square"/>
    </g>
    <g id="text_23">
     <!-- 0.6 -->
     <g transform="translate(392.673018 427.809149) rotate(-90) scale(0.1 -0.1)">
      <use xlink:href="#DejaVuSans-30"/>
      <use xlink:href="#DejaVuSans-2e" transform="translate(63.623047 0)"/>
      <use xlink:href="#DejaVuSans-36" transform="translate(95.410156 0)"/>
     </g>
    </g>
   </g>
   <g id="text_24">
    <!-- PC3 (1.36%) -->
    <g transform="translate(344.105793 446.886604) rotate(-354.736179) scale(0.12 -0.12)">
     <defs>
      <path id="DejaVuSans-33" d="M 2597 2516 
Q 3050 2419 3304 2112 
Q 3559 1806 3559 1356 
Q 3559 666 3084 287 
Q 2609 -91 1734 -91 
Q 1441 -91 1130 -33 
Q 819 25 488 141 
L 488 750 
Q 750 597 1062 519 
Q 1375 441 1716 441 
Q 2309 441 2620 675 
Q 2931 909 2931 1356 
Q 2931 1769 2642 2001 
Q 2353 2234 1838 2234 
L 1294 2234 
L 1294 2753 
L 1863 2753 
Q 2328 2753 2575 2939 
Q 2822 3125 2822 3475 
Q 2822 3834 2567 4026 
Q 2313 4219 1838 4219 
Q 1578 4219 1281 4162 
Q 984 4106 628 3988 
L 628 4550 
Q 988 4650 1302 4700 
Q 1616 4750 1894 4750 
Q 2613 4750 3031 4423 
Q 3450 4097 3450 3541 
Q 3450 3153 3228 2886 
Q 3006 2619 2597 2516 
z
" transform="scale(0.015625)"/>
     </defs>
     <use xlink:href="#DejaVuSans-50"/>
     <use xlink:href="#DejaVuSans-43" transform="translate(60.302734 0)"/>
     <use xlink:href="#DejaVuSans-33" transform="translate(130.126953 0)"/>
     <use xlink:href="#DejaVuSans-20" transform="translate(193.75 0)"/>
     <use xlink:href="#DejaVuSans-28" transform="translate(225.537109 0)"/>
     <use xlink:href="#DejaVuSans-31" transform="translate(264.550781 0)"/>
     <use xlink:href="#DejaVuSans-2e" transform="translate(328.173828 0)"/>
     <use xlink:href="#DejaVuSans-33" transform="translate(359.960938 0)"/>
     <use xlink:href="#DejaVuSans-36" transform="translate(423.583984 0)"/>
     <use xlink:href="#DejaVuSans-25" transform="translate(487.207031 0)"/>
     <use xlink:href="#DejaVuSans-29" transform="translate(582.226562 0)"/>
    </g>
   </g>
  </g>
  <g id="axes_1">
   <g id="line2d_25">
    <path d="M 328.535143 188.501517 
L 327.567003 190.322881 
L 326.610392 192.143809 
L 325.665314 193.964286 
L 324.731769 195.784291 
L 323.809761 197.60381 
L 322.899289 199.422823 
L 322.000357 201.241314 
L 321.112963 203.059264 
L 320.237111 204.876658 
L 319.372799 206.693476 
L 318.520029 208.509703 
L 317.678801 210.32532 
L 316.849114 212.14031 
L 316.030969 213.954657 
L 315.224364 215.768342 
L 314.429299 217.581349 
L 313.645774 219.393661 
L 312.873786 221.205259 
L 312.113335 223.016129 
L 311.364419 224.826251 
L 310.627035 226.635609 
L 309.901183 228.444187 
L 309.186859 230.251967 
L 308.484062 232.058932 
L 307.792788 233.865065 
L 307.113034 235.67035 
L 306.444797 237.474769 
L 305.788074 239.278307 
L 305.142862 241.080945 
L 304.509155 242.882668 
L 303.886951 244.683458 
L 303.276245 246.4833 
L 302.677032 248.282175 
L 302.089309 250.080069 
L 301.513069 251.876964 
L 300.948307 253.672844 
L 300.395019 255.467692 
L 299.853199 257.261492 
L 299.322841 259.054228 
L 298.803938 260.845883 
L 298.296485 262.636441 
L 297.800476 264.425886 
L 297.315903 266.214202 
L 296.84276 268.001371 
L 296.381039 269.787379 
L 295.930734 271.57221 
L 295.491836 273.355846 
L 295.064339 275.138273 
L 294.648234 276.919474 
L 294.243513 278.699433 
L 293.850168 280.478135 
L 293.46819 282.255564 
L 293.097571 284.031703 
L 292.738301 285.806538 
L 292.390372 287.580053 
L 292.053773 289.352232 
L 291.728496 291.123059 
L 291.41453 292.89252 
L 291.111867 294.660598 
L 290.820494 296.427278 
L 290.540403 298.192545 
L 290.271582 299.956384 
L 290.014021 301.718779 
L 289.767709 303.479715 
L 289.532635 305.239177 
L 289.308787 306.99715 
L 289.096153 308.753619 
L 288.894722 310.508569 
L 288.704482 312.261984 
L 288.525421 314.013851 
L 288.357526 315.764154 
L 288.200786 317.512878 
L 288.055186 319.260009 
L 287.920714 321.005533 
L 287.797358 322.749433 
L 287.685104 324.491697 
L 287.583937 326.232309 
L 287.493845 327.971256 
L 287.414814 329.708522 
L 287.34683 331.444093 
L 287.289878 333.177956 
L 287.243944 334.910095 
L 287.209014 336.640497 
L 287.185072 338.369148 
L 287.172104 340.096034 
L 287.170094 341.82114 
L 287.179027 343.544453 
L 287.198888 345.265959 
L 287.229661 346.985645 
L 287.27133 348.703495 
L 287.323879 350.419498 
L 287.387292 352.133639 
L 287.461552 353.845904 
L 287.546642 355.556281 
L 287.642547 357.264755 
L 287.749249 358.971314 
L 287.866732 360.675945 
L 287.994977 362.378633 
L 288.133967 364.079365 
" clip-path="url(#p443c5f5641)" style="fill: none; stroke: #e68b81; stroke-opacity: 0.7; stroke-width: 3; stroke-linecap: square"/>
   </g>
   <g id="line2d_26">
    <path d="M 250.638945 327.914693 
L 250.718028 328.389272 
L 250.792382 328.863864 
L 250.862004 329.338461 
L 250.926888 329.813054 
L 250.987029 330.287635 
L 251.042423 330.762194 
L 251.093064 331.236725 
L 251.138948 331.711217 
L 251.180072 332.185663 
L 251.21643 332.660055 
L 251.24802 333.134382 
L 251.274837 333.608638 
L 251.296878 334.082813 
L 251.314139 334.5569 
L 251.326617 335.030888 
L 251.334309 335.504771 
L 251.337213 335.978538 
L 251.335325 336.452183 
L 251.328643 336.925695 
L 251.317164 337.399067 
L 251.300886 337.872291 
L 251.279808 338.345356 
L 251.253927 338.818256 
L 251.223241 339.290981 
L 251.18775 339.763523 
L 251.147451 340.235873 
L 251.102343 340.708022 
L 251.052426 341.179963 
L 250.997699 341.651686 
L 250.93816 342.123184 
L 250.87381 342.594446 
L 250.804648 343.065466 
L 250.730674 343.536234 
L 250.651888 344.006742 
L 250.56829 344.476982 
L 250.47988 344.946944 
L 250.38666 345.416621 
L 250.288629 345.886003 
L 250.185788 346.355083 
L 250.07814 346.823852 
L 249.965684 347.292301 
L 249.848422 347.760422 
L 249.726356 348.228206 
L 249.599487 348.695646 
L 249.467818 349.162732 
L 249.331351 349.629456 
L 249.190087 350.09581 
L 249.04403 350.561786 
L 248.893181 351.027374 
L 248.737544 351.492568 
L 248.577122 351.957357 
L 248.411917 352.421735 
L 248.241933 352.885692 
L 248.067174 353.34922 
L 247.887642 353.812312 
L 247.703343 354.274958 
L 247.514279 354.737151 
L 247.320455 355.198883 
L 247.121876 355.660144 
L 246.918545 356.120927 
L 246.710468 356.581224 
L 246.497649 357.041027 
L 246.280094 357.500327 
L 246.057806 357.959116 
L 245.830793 358.417386 
L 245.599059 358.87513 
L 245.36261 359.332339 
L 245.121451 359.789004 
L 244.875589 360.245119 
L 244.62503 360.700675 
L 244.369781 361.155664 
L 244.109847 361.610078 
L 243.845235 362.06391 
L 243.575953 362.51715 
L 243.302007 362.969793 
L 243.023404 363.421829 
L 242.740152 363.873251 
L 242.452258 364.324051 
L 242.15973 364.774221 
L 241.862576 365.223754 
L 241.560803 365.672643 
L 241.25442 366.120878 
L 240.943434 366.568453 
L 240.627855 367.01536 
L 240.307691 367.461592 
L 239.98295 367.90714 
L 239.653643 368.351998 
L 239.319776 368.796158 
L 238.981361 369.239612 
L 238.638406 369.682354 
L 238.29092 370.124375 
L 237.938914 370.565669 
L 237.582398 371.006227 
L 237.22138 371.446044 
L 236.855872 371.885111 
L 236.485883 372.323421 
L 236.111424 372.760967 
L 235.732506 373.197743 
L 235.34914 373.63374 
" clip-path="url(#p443c5f5641)" style="fill: none; stroke: #b7b2d0; stroke-opacity: 0.7; stroke-width: 3; stroke-linecap: square"/>
   </g>
   <g id="line2d_27">
    <path d="M 156.860093 231.376122 
L 157.139769 232.876064 
L 157.432371 234.379686 
L 157.737908 235.886882 
L 158.056384 237.397549 
L 158.387805 238.911579 
L 158.732171 240.428866 
L 159.089484 241.949303 
L 159.459742 243.47278 
L 159.84294 244.999188 
L 160.239074 246.528418 
L 160.648134 248.060359 
L 161.070113 249.5949 
L 161.504997 251.131929 
L 161.952774 252.671333 
L 162.413428 254.212999 
L 162.886941 255.756814 
L 163.373294 257.302664 
L 163.872466 258.850433 
L 164.384432 260.400007 
L 164.909167 261.951271 
L 165.446644 263.504108 
L 165.996834 265.058401 
L 166.559705 266.614035 
L 167.135224 268.170893 
L 167.723355 269.728856 
L 168.324062 271.287808 
L 168.937305 272.84763 
L 169.563043 274.408205 
L 170.201233 275.969415 
L 170.85183 277.53114 
L 171.514788 279.093263 
L 172.190057 280.655665 
L 172.877588 282.218228 
L 173.577327 283.780832 
L 174.289221 285.34336 
L 175.013214 286.905692 
L 175.749246 288.46771 
L 176.49726 290.029296 
L 177.257192 291.590332 
L 178.028981 293.150698 
L 178.81256 294.710278 
L 179.607863 296.268953 
L 180.414822 297.826605 
L 181.233366 299.383119 
L 182.063423 300.938376 
L 182.904921 302.49226 
L 183.757783 304.044655 
L 184.621932 305.595445 
L 185.497292 307.144515 
L 186.383781 308.691749 
L 187.281317 310.237032 
L 188.189819 311.780251 
L 189.109201 313.321293 
L 190.039378 314.860044 
L 190.980262 316.396392 
L 191.931763 317.930225 
L 192.893793 319.461432 
L 193.866258 320.989902 
L 194.849067 322.515526 
L 195.842124 324.038195 
L 196.845335 325.5578 
L 197.858602 327.074234 
L 198.881828 328.587389 
L 199.914912 330.09716 
L 200.957756 331.603442 
L 202.010256 333.106131 
L 203.07231 334.605122 
L 204.143815 336.100314 
L 205.224665 337.591604 
L 206.314755 339.078893 
L 207.413978 340.56208 
L 208.522226 342.041066 
L 209.63939 343.515755 
L 210.765362 344.986049 
L 211.900029 346.451852 
L 213.043281 347.913071 
L 214.195005 349.369611 
L 215.35509 350.82138 
L 216.523421 352.268287 
L 217.699883 353.710242 
L 218.884362 355.147155 
L 220.076742 356.57894 
L 221.276907 358.005508 
L 222.48474 359.426774 
L 223.700124 360.842655 
L 224.92294 362.253067 
L 226.15307 363.657928 
L 227.390396 365.057158 
L 228.634798 366.450677 
L 229.886156 367.838407 
L 231.144351 369.220272 
L 232.409262 370.596195 
L 233.680769 371.966103 
L 234.95875 373.329922 
L 236.243085 374.687582 
L 237.533652 376.03901 
L 238.83033 377.384139 
L 240.132998 378.722901 
L 241.441533 380.05523 
" clip-path="url(#p443c5f5641)" style="fill: none; stroke: #84c3b7; stroke-opacity: 0.7; stroke-width: 3; stroke-linecap: square"/>
   </g>
   <g id="line2d_28">
    <path d="M 259.338486 353.691893 
L 259.239111 353.885515 
L 259.142706 354.078841 
L 259.049275 354.271869 
L 258.958819 354.464595 
L 258.871341 354.657017 
L 258.786842 354.849132 
L 258.705324 355.040937 
L 258.62679 355.232429 
L 258.551239 355.423606 
L 258.478676 355.614463 
L 258.4091 355.804999 
L 258.342513 355.995211 
L 258.278917 356.185096 
L 258.218312 356.37465 
L 258.160701 356.563872 
L 258.106084 356.752758 
L 258.054461 356.941306 
L 258.005835 357.129512 
L 257.960206 357.317375 
L 257.917574 357.504891 
L 257.87794 357.692057 
L 257.841306 357.878871 
L 257.80767 358.06533 
L 257.777034 358.251431 
L 257.749397 358.437172 
L 257.724761 358.62255 
L 257.703125 358.807562 
L 257.684489 358.992205 
L 257.668853 359.176477 
L 257.656217 359.360376 
L 257.646581 359.543898 
L 257.639945 359.72704 
L 257.636307 359.909801 
L 257.635668 360.092178 
L 257.638026 360.274168 
L 257.643382 360.455768 
L 257.651735 360.636976 
L 257.663083 360.817789 
L 257.677425 360.998205 
L 257.694761 361.178221 
L 257.71509 361.357835 
L 257.73841 361.537044 
L 257.76472 361.715846 
L 257.794018 361.894238 
L 257.826304 362.072218 
L 257.861575 362.249783 
L 257.89983 362.42693 
L 257.941068 362.603658 
L 257.985286 362.779964 
L 258.032482 362.955846 
L 258.082655 363.131301 
L 258.135802 363.306326 
L 258.191922 363.48092 
L 258.251011 363.65508 
L 258.313068 363.828803 
L 258.378091 364.002088 
L 258.446076 364.174932 
L 258.517022 364.347333 
L 258.590925 364.519289 
L 258.667783 364.690796 
L 258.747593 364.861854 
L 258.830351 365.032459 
L 258.916056 365.20261 
L 259.004704 365.372304 
L 259.096291 365.541539 
L 259.190815 365.710314 
L 259.288272 365.878625 
L 259.388659 366.046471 
L 259.491972 366.213849 
L 259.598207 366.380758 
L 259.707362 366.547195 
L 259.819431 366.713158 
L 259.934412 366.878646 
L 260.052301 367.043655 
L 260.173093 367.208185 
L 260.296784 367.372233 
L 260.423371 367.535797 
L 260.552848 367.698875 
L 260.685212 367.861465 
L 260.820459 368.023565 
L 260.958583 368.185174 
L 261.09958 368.346289 
L 261.243446 368.506908 
L 261.390176 368.66703 
L 261.539765 368.826653 
L 261.692209 368.985774 
L 261.847501 369.144393 
L 262.005638 369.302506 
L 262.166614 369.460113 
L 262.330424 369.617212 
L 262.497063 369.7738 
L 262.666526 369.929877 
L 262.838806 370.085439 
L 263.0139 370.240487 
L 263.1918 370.395017 
L 263.372501 370.549029 
L 263.555999 370.70252 
L 263.742286 370.855489 
L 263.931358 371.007935 
" clip-path="url(#p443c5f5641)" style="fill: none; stroke: #7da6c6; stroke-opacity: 0.7; stroke-width: 3; stroke-linecap: square"/>
   </g>
   <g id="Path3DCollection_1">
    <path d="M 232.336893 381.597557 
C 232.929905 381.597557 233.498708 381.36195 233.918031 380.942628 
C 234.337354 380.523305 234.572961 379.954501 234.572961 379.361489 
C 234.572961 378.768477 234.337354 378.199673 233.918031 377.78035 
C 233.498708 377.361027 232.929905 377.125421 232.336893 377.125421 
C 231.74388 377.125421 231.175077 377.361027 230.755754 377.78035 
C 230.336431 378.199673 230.100825 378.768477 230.100825 379.361489 
C 230.100825 379.954501 230.336431 380.523305 230.755754 380.942628 
C 231.175077 381.36195 231.74388 381.597557 232.336893 381.597557 
z
" clip-path="url(#p443c5f5641)" style="fill: #84c3b7; fill-opacity: 0.165; stroke: #84c3b7; stroke-opacity: 0.165"/>
    <path d="M 289.059381 366.212999 
C 289.652393 366.212999 290.221197 365.977393 290.64052 365.55807 
C 291.059843 365.138747 291.295449 364.569943 291.295449 363.976931 
C 291.295449 363.383919 291.059843 362.815115 290.64052 362.395792 
C 290.221197 361.976469 289.652393 361.740863 289.059381 361.740863 
C 288.466369 361.740863 287.897565 361.976469 287.478242 362.395792 
C 287.058919 362.815115 286.823313 363.383919 286.823313 363.976931 
C 286.823313 364.569943 287.058919 365.138747 287.478242 365.55807 
C 287.897565 365.977393 288.466369 366.212999 289.059381 366.212999 
z
" clip-path="url(#p443c5f5641)" style="fill: #e68b81; fill-opacity: 0.220432; stroke: #e68b81; stroke-opacity: 0.220432"/>
    <path d="M 289.019824 365.721247 
C 289.612836 365.721247 290.18164 365.485641 290.600963 365.066318 
C 291.020286 364.646995 291.255892 364.078191 291.255892 363.485179 
C 291.255892 362.892167 291.020286 362.323363 290.600963 361.90404 
C 290.18164 361.484717 289.612836 361.249111 289.019824 361.249111 
C 288.426812 361.249111 287.858008 361.484717 287.438685 361.90404 
C 287.019362 362.323363 286.783756 362.892167 286.783756 363.485179 
C 286.783756 364.078191 287.019362 364.646995 287.438685 365.066318 
C 287.858008 365.485641 288.426812 365.721247 289.019824 365.721247 
z
" clip-path="url(#p443c5f5641)" style="fill: #e68b81; fill-opacity: 0.227097; stroke: #e68b81; stroke-opacity: 0.227097"/>
    <path d="M 324.338696 218.796951 
C 325.729433 218.796951 327.063396 218.244406 328.046795 217.261006 
C 329.030195 216.277607 329.58274 214.943644 329.58274 213.552907 
C 329.58274 212.16217 329.030195 210.828207 328.046795 209.844808 
C 327.063396 208.861408 325.729433 208.308863 324.338696 208.308863 
C 322.947959 208.308863 321.613996 208.861408 320.630597 209.844808 
C 319.647197 210.828207 319.094652 212.16217 319.094652 213.552907 
C 319.094652 214.943644 319.647197 216.277607 320.630597 217.261006 
C 321.613996 218.244406 322.947959 218.796951 324.338696 218.796951 
z
" clip-path="url(#p443c5f5641)" style="fill: #e68b81; fill-opacity: 0.440727; stroke: #e68b81; stroke-opacity: 0.440727"/>
    <path d="M 294.66907 273.206504 
C 295.778495 273.206504 296.842629 272.765725 297.62711 271.981244 
C 298.411592 271.196762 298.852371 270.132628 298.852371 269.023204 
C 298.852371 267.913779 298.411592 266.849645 297.62711 266.065164 
C 296.842629 265.280682 295.778495 264.839903 294.66907 264.839903 
C 293.559646 264.839903 292.495512 265.280682 291.71103 266.065164 
C 290.926549 266.849645 290.48577 267.913779 290.48577 269.023204 
C 290.48577 270.132628 290.926549 271.196762 291.71103 271.981244 
C 292.495512 272.765725 293.559646 273.206504 294.66907 273.206504 
z
" clip-path="url(#p443c5f5641)" style="fill: #e68b81; fill-opacity: 0.400262; stroke: #e68b81; stroke-opacity: 0.400262"/>
    <path d="M 280.778952 323.088682 
C 281.617598 323.088682 282.422008 322.755484 283.01502 322.162472 
C 283.608032 321.56946 283.941229 320.76505 283.941229 319.926404 
C 283.941229 319.087758 283.608032 318.283348 283.01502 317.690336 
C 282.422008 317.097324 281.617598 316.764126 280.778952 316.764126 
C 279.940306 316.764126 279.135896 317.097324 278.542884 317.690336 
C 277.949872 318.283348 277.616674 319.087758 277.616674 319.926404 
C 277.616674 320.76505 277.949872 321.56946 278.542884 322.162472 
C 279.135896 322.755484 279.940306 323.088682 280.778952 323.088682 
z
" clip-path="url(#p443c5f5641)" style="fill: #e68b81; fill-opacity: 0.336144; stroke: #e68b81; stroke-opacity: 0.336144"/>
    <path d="M 241.020248 370.012602 
C 241.61326 370.012602 242.182064 369.776996 242.601387 369.357673 
C 243.02071 368.93835 243.256316 368.369546 243.256316 367.776534 
C 243.256316 367.183522 243.02071 366.614718 242.601387 366.195395 
C 242.182064 365.776072 241.61326 365.540466 241.020248 365.540466 
C 240.427236 365.540466 239.858432 365.776072 239.439109 366.195395 
C 239.019786 366.614718 238.78418 367.183522 238.78418 367.776534 
C 238.78418 368.369546 239.019786 368.93835 239.439109 369.357673 
C 239.858432 369.776996 240.427236 370.012602 241.020248 370.012602 
z
" clip-path="url(#p443c5f5641)" style="fill: #84c3b7; fill-opacity: 0.336; stroke: #84c3b7; stroke-opacity: 0.336"/>
    <path d="M 295.841304 306.84866 
C 296.67995 306.84866 297.48436 306.515463 298.077372 305.922451 
C 298.670384 305.329439 299.003582 304.525029 299.003582 303.686383 
C 299.003582 302.847737 298.670384 302.043327 298.077372 301.450315 
C 297.48436 300.857303 296.67995 300.524105 295.841304 300.524105 
C 295.002658 300.524105 294.198248 300.857303 293.605236 301.450315 
C 293.012224 302.043327 292.679026 302.847737 292.679026 303.686383 
C 292.679026 304.525029 293.012224 305.329439 293.605236 305.922451 
C 294.198248 306.515463 295.002658 306.84866 295.841304 306.84866 
z
" clip-path="url(#p443c5f5641)" style="fill: #e68b81; fill-opacity: 0.407769; stroke: #e68b81; stroke-opacity: 0.407769"/>
    <path d="M 178.216827 320.24711 
C 179.055473 320.24711 179.859883 319.913913 180.452895 319.3209 
C 181.045907 318.727888 181.379105 317.923478 181.379105 317.084832 
C 181.379105 316.246187 181.045907 315.441777 180.452895 314.848764 
C 179.859883 314.255752 179.055473 313.922555 178.216827 313.922555 
C 177.378181 313.922555 176.573771 314.255752 175.980759 314.848764 
C 175.387747 315.441777 175.05455 316.246187 175.05455 317.084832 
C 175.05455 317.923478 175.387747 318.727888 175.980759 319.3209 
C 176.573771 319.913913 177.378181 320.24711 178.216827 320.24711 
z
" clip-path="url(#p443c5f5641)" style="fill: #84c3b7; fill-opacity: 0.458385; stroke: #84c3b7; stroke-opacity: 0.458385"/>
    <path d="M 155.081363 236.63868 
C 156.4721 236.63868 157.806063 236.086135 158.789462 235.102735 
C 159.772862 234.119336 160.325407 232.785373 160.325407 231.394636 
C 160.325407 230.003899 159.772862 228.669936 158.789462 227.686537 
C 157.806063 226.703137 156.4721 226.150592 155.081363 226.150592 
C 153.690626 226.150592 152.356663 226.703137 151.373264 227.686537 
C 150.389864 228.669936 149.837319 230.003899 149.837319 231.394636 
C 149.837319 232.785373 150.389864 234.119336 151.373264 235.102735 
C 152.356663 236.086135 153.690626 236.63868 155.081363 236.63868 
z
" clip-path="url(#p443c5f5641)" style="fill: #84c3b7; fill-opacity: 0.753077; stroke: #84c3b7; stroke-opacity: 0.753077"/>
    <path d="M 252.8663 340.041747 
C 254.257036 340.041747 255.590999 339.489202 256.574399 338.505802 
C 257.557798 337.522403 258.110344 336.18844 258.110344 334.797703 
C 258.110344 333.406966 257.557798 332.073003 256.574399 331.089604 
C 255.590999 330.106204 254.257036 329.553659 252.8663 329.553659 
C 251.475563 329.553659 250.1416 330.106204 249.1582 331.089604 
C 248.174801 332.073003 247.622255 333.406966 247.622255 334.797703 
C 247.622255 336.18844 248.174801 337.522403 249.1582 338.505802 
C 250.1416 339.489202 251.475563 340.041747 252.8663 340.041747 
z
" clip-path="url(#p443c5f5641)" style="fill: #b7b2d0; fill-opacity: 0.775498; stroke: #b7b2d0; stroke-opacity: 0.775498"/>
    <path d="M 233.146277 371.596615 
C 233.739289 371.596615 234.308093 371.361009 234.727415 370.941686 
C 235.146738 370.522363 235.382345 369.95356 235.382345 369.360547 
C 235.382345 368.767535 235.146738 368.198732 234.727415 367.779409 
C 234.308093 367.360086 233.739289 367.124479 233.146277 367.124479 
C 232.553264 367.124479 231.984461 367.360086 231.565138 367.779409 
C 231.145815 368.198732 230.910209 368.767535 230.910209 369.360547 
C 230.910209 369.95356 231.145815 370.522363 231.565138 370.941686 
C 231.984461 371.361009 232.553264 371.596615 233.146277 371.596615 
z
" clip-path="url(#p443c5f5641)" style="fill: #b7b2d0; fill-opacity: 0.433687; stroke: #b7b2d0; stroke-opacity: 0.433687"/>
    <path d="M 169.005656 277.792983 
C 170.115081 277.792983 171.179215 277.352204 171.963696 276.567723 
C 172.748178 275.783241 173.188957 274.719107 173.188957 273.609683 
C 173.188957 272.500259 172.748178 271.436124 171.963696 270.651643 
C 171.179215 269.867162 170.115081 269.426383 169.005656 269.426383 
C 167.896232 269.426383 166.832098 269.867162 166.047617 270.651643 
C 165.263135 271.436124 164.822356 272.500259 164.822356 273.609683 
C 164.822356 274.719107 165.263135 275.783241 166.047617 276.567723 
C 166.832098 277.352204 167.896232 277.792983 169.005656 277.792983 
z
" clip-path="url(#p443c5f5641)" style="fill: #84c3b7; fill-opacity: 0.636604; stroke: #84c3b7; stroke-opacity: 0.636604"/>
    <path d="M 239.607821 376.068367 
C 240.200833 376.068367 240.769637 375.832761 241.18896 375.413438 
C 241.608283 374.994115 241.843889 374.425312 241.843889 373.832299 
C 241.843889 373.239287 241.608283 372.670483 241.18896 372.251161 
C 240.769637 371.831838 240.200833 371.596231 239.607821 371.596231 
C 239.014809 371.596231 238.446005 371.831838 238.026682 372.251161 
C 237.607359 372.670483 237.371753 373.239287 237.371753 373.832299 
C 237.371753 374.425312 237.607359 374.994115 238.026682 375.413438 
C 238.446005 375.832761 239.014809 376.068367 239.607821 376.068367 
z
" clip-path="url(#p443c5f5641)" style="fill: #b7b2d0; fill-opacity: 0.443991; stroke: #b7b2d0; stroke-opacity: 0.443991"/>
    <path d="M 249.760941 333.263868 
C 251.151678 333.263868 252.485641 332.711322 253.469041 331.727923 
C 254.45244 330.744523 255.004986 329.41056 255.004986 328.019823 
C 255.004986 326.629087 254.45244 325.295124 253.469041 324.311724 
C 252.485641 323.328325 251.151678 322.775779 249.760941 322.775779 
C 248.370205 322.775779 247.036242 323.328325 246.052842 324.311724 
C 245.069443 325.295124 244.516897 326.629087 244.516897 328.019823 
C 244.516897 329.41056 245.069443 330.744523 246.052842 331.727923 
C 247.036242 332.711322 248.370205 333.263868 249.760941 333.263868 
z
" clip-path="url(#p443c5f5641)" style="fill: #b7b2d0; fill-opacity: 0.819472; stroke: #b7b2d0; stroke-opacity: 0.819472"/>
    <path d="M 264.664097 373.340645 
C 265.257109 373.340645 265.825913 373.105039 266.245236 372.685716 
C 266.664559 372.266393 266.900165 371.697589 266.900165 371.104577 
C 266.900165 370.511565 266.664559 369.942761 266.245236 369.523438 
C 265.825913 369.104115 265.257109 368.868509 264.664097 368.868509 
C 264.071085 368.868509 263.502281 369.104115 263.082958 369.523438 
C 262.663635 369.942761 262.428029 370.511565 262.428029 371.104577 
C 262.428029 371.697589 262.663635 372.266393 263.082958 372.685716 
C 263.502281 373.105039 264.071085 373.340645 264.664097 373.340645 
z
" clip-path="url(#p443c5f5641)" style="fill: #7da6c6; fill-opacity: 0.452269; stroke: #7da6c6; stroke-opacity: 0.452269"/>
    <path d="M 261.498651 372.294942 
C 262.091664 372.294942 262.660467 372.059336 263.07979 371.640013 
C 263.499113 371.22069 263.734719 370.651887 263.734719 370.058875 
C 263.734719 369.465862 263.499113 368.897059 263.07979 368.477736 
C 262.660467 368.058413 262.091664 367.822807 261.498651 367.822807 
C 260.905639 367.822807 260.336835 368.058413 259.917513 368.477736 
C 259.49819 368.897059 259.262583 369.465862 259.262583 370.058875 
C 259.262583 370.651887 259.49819 371.22069 259.917513 371.640013 
C 260.336835 372.059336 260.905639 372.294942 261.498651 372.294942 
z
" clip-path="url(#p443c5f5641)" style="fill: #7da6c6; fill-opacity: 0.453701; stroke: #7da6c6; stroke-opacity: 0.453701"/>
    <path d="M 250.598778 364.934736 
C 251.437423 364.934736 252.241833 364.601538 252.834846 364.008526 
C 253.427858 363.415514 253.761055 362.611104 253.761055 361.772458 
C 253.761055 360.933812 253.427858 360.129402 252.834846 359.53639 
C 252.241833 358.943378 251.437423 358.61018 250.598778 358.61018 
C 249.760132 358.61018 248.955722 358.943378 248.36271 359.53639 
C 247.769697 360.129402 247.4365 360.933812 247.4365 361.772458 
C 247.4365 362.611104 247.769697 363.415514 248.36271 364.008526 
C 248.955722 364.601538 249.760132 364.934736 250.598778 364.934736 
z
" clip-path="url(#p443c5f5641)" style="fill: #b7b2d0; fill-opacity: 0.536252; stroke: #b7b2d0; stroke-opacity: 0.536252"/>
    <path d="M 236.772655 366.177311 
C 237.6113 366.177311 238.41571 365.844113 239.008723 365.251101 
C 239.601735 364.658089 239.934932 363.853679 239.934932 363.015033 
C 239.934932 362.176387 239.601735 361.371977 239.008723 360.778965 
C 238.41571 360.185953 237.6113 359.852756 236.772655 359.852756 
C 235.934009 359.852756 235.129599 360.185953 234.536587 360.778965 
C 233.943574 361.371977 233.610377 362.176387 233.610377 363.015033 
C 233.610377 363.853679 233.943574 364.658089 234.536587 365.251101 
C 235.129599 365.844113 235.934009 366.177311 236.772655 366.177311 
z
" clip-path="url(#p443c5f5641)" style="fill: #b7b2d0; fill-opacity: 0.54067; stroke: #b7b2d0; stroke-opacity: 0.54067"/>
    <path d="M 167.659027 252.644063 
C 169.049763 252.644063 170.383727 252.091518 171.367126 251.108118 
C 172.350525 250.124719 172.903071 248.790756 172.903071 247.400019 
C 172.903071 246.009282 172.350525 244.675319 171.367126 243.69192 
C 170.383727 242.708521 169.049763 242.155975 167.659027 242.155975 
C 166.26829 242.155975 164.934327 242.708521 163.950927 243.69192 
C 162.967528 244.675319 162.414982 246.009282 162.414982 247.400019 
C 162.414982 248.790756 162.967528 250.124719 163.950927 251.108118 
C 164.934327 252.091518 166.26829 252.644063 167.659027 252.644063 
z
" clip-path="url(#p443c5f5641)" style="fill: #84c3b7; fill-opacity: 0.836256; stroke: #84c3b7; stroke-opacity: 0.836256"/>
    <path d="M 207.052836 321.430448 
C 207.891482 321.430448 208.695892 321.097251 209.288904 320.504239 
C 209.881916 319.911226 210.215114 319.106817 210.215114 318.268171 
C 210.215114 317.429525 209.881916 316.625115 209.288904 316.032103 
C 208.695892 315.439091 207.891482 315.105893 207.052836 315.105893 
C 206.21419 315.105893 205.40978 315.439091 204.816768 316.032103 
C 204.223756 316.625115 203.890558 317.429525 203.890558 318.268171 
C 203.890558 319.106817 204.223756 319.911226 204.816768 320.504239 
C 205.40978 321.097251 206.21419 321.430448 207.052836 321.430448 
z
" clip-path="url(#p443c5f5641)" style="fill: #84c3b7; fill-opacity: 0.546252; stroke: #84c3b7; stroke-opacity: 0.546252"/>
    <path d="M 324.094101 192.407341 
C 325.484838 192.407341 326.818801 191.854796 327.8022 190.871396 
C 328.7856 189.887997 329.338145 188.554034 329.338145 187.163297 
C 329.338145 185.77256 328.7856 184.438597 327.8022 183.455198 
C 326.818801 182.471798 325.484838 181.919253 324.094101 181.919253 
C 322.703364 181.919253 321.369401 182.471798 320.386002 183.455198 
C 319.402602 184.438597 318.850057 185.77256 318.850057 187.163297 
C 318.850057 188.554034 319.402602 189.887997 320.386002 190.871396 
C 321.369401 191.854796 322.703364 192.407341 324.094101 192.407341 
z
" clip-path="url(#p443c5f5641)" style="fill: #e68b81; fill-opacity: 0.872704; stroke: #e68b81; stroke-opacity: 0.872704"/>
    <path d="M 259.546767 354.079106 
C 260.656191 354.079106 261.720325 353.638327 262.504807 352.853846 
C 263.289288 352.069364 263.730067 351.00523 263.730067 349.895806 
C 263.730067 348.786382 263.289288 347.722247 262.504807 346.937766 
C 261.720325 346.153285 260.656191 345.712506 259.546767 345.712506 
C 258.437343 345.712506 257.373208 346.153285 256.588727 346.937766 
C 255.804246 347.722247 255.363467 348.786382 255.363467 349.895806 
C 255.363467 351.00523 255.804246 352.069364 256.588727 352.853846 
C 257.373208 353.638327 258.437343 354.079106 259.546767 354.079106 
z
" clip-path="url(#p443c5f5641)" style="fill: #b7b2d0; fill-opacity: 0.710195; stroke: #b7b2d0; stroke-opacity: 0.710195"/>
    <path d="M 240.052984 352.26741 
C 241.162408 352.26741 242.226542 351.826632 243.011024 351.04215 
C 243.795505 350.257669 244.236284 349.193534 244.236284 348.08411 
C 244.236284 346.974686 243.795505 345.910552 243.011024 345.12607 
C 242.226542 344.341589 241.162408 343.90081 240.052984 343.90081 
C 238.943559 343.90081 237.879425 344.341589 237.094944 345.12607 
C 236.310462 345.910552 235.869684 346.974686 235.869684 348.08411 
C 235.869684 349.193534 236.310462 350.257669 237.094944 351.04215 
C 237.879425 351.826632 238.943559 352.26741 240.052984 352.26741 
z
" clip-path="url(#p443c5f5641)" style="fill: #b7b2d0; fill-opacity: 0.710949; stroke: #b7b2d0; stroke-opacity: 0.710949"/>
    <path d="M 259.482361 367.887154 
C 260.321007 367.887154 261.125417 367.553956 261.718429 366.960944 
C 262.311441 366.367932 262.644639 365.563522 262.644639 364.724876 
C 262.644639 363.88623 262.311441 363.08182 261.718429 362.488808 
C 261.125417 361.895796 260.321007 361.562599 259.482361 361.562599 
C 258.643715 361.562599 257.839305 361.895796 257.246293 362.488808 
C 256.653281 363.08182 256.320084 363.88623 256.320084 364.724876 
C 256.320084 365.563522 256.653281 366.367932 257.246293 366.960944 
C 257.839305 367.553956 258.643715 367.887154 259.482361 367.887154 
z
" clip-path="url(#p443c5f5641)" style="fill: #7da6c6; fill-opacity: 0.588523; stroke: #7da6c6; stroke-opacity: 0.588523"/>
    <path d="M 259.125815 367.811292 
C 259.964461 367.811292 260.768871 367.478095 261.361883 366.885083 
C 261.954895 366.29207 262.288092 365.48766 262.288092 364.649015 
C 262.288092 363.810369 261.954895 363.005959 261.361883 362.412947 
C 260.768871 361.819934 259.964461 361.486737 259.125815 361.486737 
C 258.287169 361.486737 257.482759 361.819934 256.889747 362.412947 
C 256.296735 363.005959 255.963537 363.810369 255.963537 364.649015 
C 255.963537 365.48766 256.296735 366.29207 256.889747 366.885083 
C 257.482759 367.478095 258.287169 367.811292 259.125815 367.811292 
z
" clip-path="url(#p443c5f5641)" style="fill: #7da6c6; fill-opacity: 0.595509; stroke: #7da6c6; stroke-opacity: 0.595509"/>
    <path d="M 303.534218 243.846758 
C 304.643642 243.846758 305.707777 243.405979 306.492258 242.621498 
C 307.276739 241.837016 307.717518 240.772882 307.717518 239.663458 
C 307.717518 238.554033 307.276739 237.489899 306.492258 236.705418 
C 305.707777 235.920936 304.643642 235.480158 303.534218 235.480158 
C 302.424794 235.480158 301.36066 235.920936 300.576178 236.705418 
C 299.791697 237.489899 299.350918 238.554033 299.350918 239.663458 
C 299.350918 240.772882 299.791697 241.837016 300.576178 242.621498 
C 301.36066 243.405979 302.424794 243.846758 303.534218 243.846758 
z
" clip-path="url(#p443c5f5641)" style="fill: #e68b81; fill-opacity: 0.735422; stroke: #e68b81; stroke-opacity: 0.735422"/>
    <path d="M 260.638433 358.845085 
C 262.02917 358.845085 263.363133 358.292539 264.346532 357.30914 
C 265.329931 356.32574 265.882477 354.991777 265.882477 353.601041 
C 265.882477 352.210304 265.329931 350.876341 264.346532 349.892941 
C 263.363133 348.909542 262.02917 348.356996 260.638433 348.356996 
C 259.247696 348.356996 257.913733 348.909542 256.930333 349.892941 
C 255.946934 350.876341 255.394388 352.210304 255.394388 353.601041 
C 255.394388 354.991777 255.946934 356.32574 256.930333 357.30914 
C 257.913733 358.292539 259.247696 358.845085 260.638433 358.845085 
z
" clip-path="url(#p443c5f5641)" style="fill: #7da6c6; fill-opacity: 0.93581; stroke: #7da6c6; stroke-opacity: 0.93581"/>
    <path d="M 259.059451 359.514915 
C 260.450188 359.514915 261.784151 358.962369 262.767551 357.97897 
C 263.75095 356.99557 264.303496 355.661607 264.303496 354.27087 
C 264.303496 352.880134 263.75095 351.546171 262.767551 350.562771 
C 261.784151 349.579372 260.450188 349.026826 259.059451 349.026826 
C 257.668715 349.026826 256.334751 349.579372 255.351352 350.562771 
C 254.367953 351.546171 253.815407 352.880134 253.815407 354.27087 
C 253.815407 355.661607 254.367953 356.99557 255.351352 357.97897 
C 256.334751 358.962369 257.668715 359.514915 259.059451 359.514915 
z
" clip-path="url(#p443c5f5641)" style="fill: #7da6c6; fill-opacity: 0.953657; stroke: #7da6c6; stroke-opacity: 0.953657"/>
    <path d="M 260.840616 363.78795 
C 261.95004 363.78795 263.014174 363.347172 263.798655 362.56269 
C 264.583137 361.778209 265.023916 360.714074 265.023916 359.60465 
C 265.023916 358.495226 264.583137 357.431092 263.798655 356.64661 
C 263.014174 355.862129 261.95004 355.42135 260.840616 355.42135 
C 259.731191 355.42135 258.667057 355.862129 257.882576 356.64661 
C 257.098094 357.431092 256.657315 358.495226 256.657315 359.60465 
C 256.657315 360.714074 257.098094 361.778209 257.882576 362.56269 
C 258.667057 363.347172 259.731191 363.78795 260.840616 363.78795 
z
" clip-path="url(#p443c5f5641)" style="fill: #7da6c6; fill-opacity: 0.767079; stroke: #7da6c6; stroke-opacity: 0.767079"/>
    <path d="M 252.733247 362.393717 
C 253.842671 362.393717 254.906805 361.952938 255.691287 361.168457 
C 256.475768 360.383975 256.916547 359.319841 256.916547 358.210417 
C 256.916547 357.100993 256.475768 356.036858 255.691287 355.252377 
C 254.906805 354.467895 253.842671 354.027117 252.733247 354.027117 
C 251.623823 354.027117 250.559688 354.467895 249.775207 355.252377 
C 248.990725 356.036858 248.549947 357.100993 248.549947 358.210417 
C 248.549947 359.319841 248.990725 360.383975 249.775207 361.168457 
C 250.559688 361.952938 251.623823 362.393717 252.733247 362.393717 
z
" clip-path="url(#p443c5f5641)" style="fill: #7da6c6; fill-opacity: 0.782452; stroke: #7da6c6; stroke-opacity: 0.782452"/>
    <path d="M 163.198809 285.737366 
C 164.308233 285.737366 165.372368 285.296587 166.156849 284.512106 
C 166.94133 283.727625 167.382109 282.66349 167.382109 281.554066 
C 167.382109 280.444642 166.94133 279.380507 166.156849 278.596026 
C 165.372368 277.811545 164.308233 277.370766 163.198809 277.370766 
C 162.089385 277.370766 161.025251 277.811545 160.240769 278.596026 
C 159.456288 279.380507 159.015509 280.444642 159.015509 281.554066 
C 159.015509 282.66349 159.456288 283.727625 160.240769 284.512106 
C 161.025251 285.296587 162.089385 285.737366 163.198809 285.737366 
z
" clip-path="url(#p443c5f5641)" style="fill: #84c3b7; fill-opacity: 0.8; stroke: #84c3b7; stroke-opacity: 0.8"/>
   </g>
   <g id="text_25">
    <!--  Acetone -->
    <g style="opacity: 0.95" transform="translate(328.535143 191.260892) scale(0.1 -0.1)">
     <defs>
      <path id="DejaVuSans-41" d="M 2188 4044 
L 1331 1722 
L 3047 1722 
L 2188 4044 
z
M 1831 4666 
L 2547 4666 
L 4325 0 
L 3669 0 
L 3244 1197 
L 1141 1197 
L 716 0 
L 50 0 
L 1831 4666 
z
" transform="scale(0.015625)"/>
      <path id="DejaVuSans-63" d="M 3122 3366 
L 3122 2828 
Q 2878 2963 2633 3030 
Q 2388 3097 2138 3097 
Q 1578 3097 1268 2742 
Q 959 2388 959 1747 
Q 959 1106 1268 751 
Q 1578 397 2138 397 
Q 2388 397 2633 464 
Q 2878 531 3122 666 
L 3122 134 
Q 2881 22 2623 -34 
Q 2366 -91 2075 -91 
Q 1284 -91 818 406 
Q 353 903 353 1747 
Q 353 2603 823 3093 
Q 1294 3584 2113 3584 
Q 2378 3584 2631 3529 
Q 2884 3475 3122 3366 
z
" transform="scale(0.015625)"/>
      <path id="DejaVuSans-65" d="M 3597 1894 
L 3597 1613 
L 953 1613 
Q 991 1019 1311 708 
Q 1631 397 2203 397 
Q 2534 397 2845 478 
Q 3156 559 3463 722 
L 3463 178 
Q 3153 47 2828 -22 
Q 2503 -91 2169 -91 
Q 1331 -91 842 396 
Q 353 884 353 1716 
Q 353 2575 817 3079 
Q 1281 3584 2069 3584 
Q 2775 3584 3186 3129 
Q 3597 2675 3597 1894 
z
M 3022 2063 
Q 3016 2534 2758 2815 
Q 2500 3097 2075 3097 
Q 1594 3097 1305 2825 
Q 1016 2553 972 2059 
L 3022 2063 
z
" transform="scale(0.015625)"/>
      <path id="DejaVuSans-74" d="M 1172 4494 
L 1172 3500 
L 2356 3500 
L 2356 3053 
L 1172 3053 
L 1172 1153 
Q 1172 725 1289 603 
Q 1406 481 1766 481 
L 2356 481 
L 2356 0 
L 1766 0 
Q 1100 0 847 248 
Q 594 497 594 1153 
L 594 3053 
L 172 3053 
L 172 3500 
L 594 3500 
L 594 4494 
L 1172 4494 
z
" transform="scale(0.015625)"/>
      <path id="DejaVuSans-6f" d="M 1959 3097 
Q 1497 3097 1228 2736 
Q 959 2375 959 1747 
Q 959 1119 1226 758 
Q 1494 397 1959 397 
Q 2419 397 2687 759 
Q 2956 1122 2956 1747 
Q 2956 2369 2687 2733 
Q 2419 3097 1959 3097 
z
M 1959 3584 
Q 2709 3584 3137 3096 
Q 3566 2609 3566 1747 
Q 3566 888 3137 398 
Q 2709 -91 1959 -91 
Q 1206 -91 779 398 
Q 353 888 353 1747 
Q 353 2609 779 3096 
Q 1206 3584 1959 3584 
z
" transform="scale(0.015625)"/>
      <path id="DejaVuSans-6e" d="M 3513 2113 
L 3513 0 
L 2938 0 
L 2938 2094 
Q 2938 2591 2744 2837 
Q 2550 3084 2163 3084 
Q 1697 3084 1428 2787 
Q 1159 2491 1159 1978 
L 1159 0 
L 581 0 
L 581 3500 
L 1159 3500 
L 1159 2956 
Q 1366 3272 1645 3428 
Q 1925 3584 2291 3584 
Q 2894 3584 3203 3211 
Q 3513 2838 3513 2113 
z
" transform="scale(0.015625)"/>
     </defs>
     <use xlink:href="#DejaVuSans-20"/>
     <use xlink:href="#DejaVuSans-41" transform="translate(31.787109 0)"/>
     <use xlink:href="#DejaVuSans-63" transform="translate(98.445312 0)"/>
     <use xlink:href="#DejaVuSans-65" transform="translate(153.425781 0)"/>
     <use xlink:href="#DejaVuSans-74" transform="translate(214.949219 0)"/>
     <use xlink:href="#DejaVuSans-6f" transform="translate(254.158203 0)"/>
     <use xlink:href="#DejaVuSans-6e" transform="translate(315.339844 0)"/>
     <use xlink:href="#DejaVuSans-65" transform="translate(378.71875 0)"/>
    </g>
   </g>
   <g id="text_26">
    <!--  Benzene -->
    <g style="opacity: 0.95" transform="translate(250.638945 330.674068) scale(0.1 -0.1)">
     <defs>
      <path id="DejaVuSans-42" d="M 1259 2228 
L 1259 519 
L 2272 519 
Q 2781 519 3026 730 
Q 3272 941 3272 1375 
Q 3272 1813 3026 2020 
Q 2781 2228 2272 2228 
L 1259 2228 
z
M 1259 4147 
L 1259 2741 
L 2194 2741 
Q 2656 2741 2882 2914 
Q 3109 3088 3109 3444 
Q 3109 3797 2882 3972 
Q 2656 4147 2194 4147 
L 1259 4147 
z
M 628 4666 
L 2241 4666 
Q 2963 4666 3353 4366 
Q 3744 4066 3744 3513 
Q 3744 3084 3544 2831 
Q 3344 2578 2956 2516 
Q 3422 2416 3680 2098 
Q 3938 1781 3938 1306 
Q 3938 681 3513 340 
Q 3088 0 2303 0 
L 628 0 
L 628 4666 
z
" transform="scale(0.015625)"/>
      <path id="DejaVuSans-7a" d="M 353 3500 
L 3084 3500 
L 3084 2975 
L 922 459 
L 3084 459 
L 3084 0 
L 275 0 
L 275 525 
L 2438 3041 
L 353 3041 
L 353 3500 
z
" transform="scale(0.015625)"/>
     </defs>
     <use xlink:href="#DejaVuSans-20"/>
     <use xlink:href="#DejaVuSans-42" transform="translate(31.787109 0)"/>
     <use xlink:href="#DejaVuSans-65" transform="translate(100.390625 0)"/>
     <use xlink:href="#DejaVuSans-6e" transform="translate(161.914062 0)"/>
     <use xlink:href="#DejaVuSans-7a" transform="translate(225.292969 0)"/>
     <use xlink:href="#DejaVuSans-65" transform="translate(277.783203 0)"/>
     <use xlink:href="#DejaVuSans-6e" transform="translate(339.306641 0)"/>
     <use xlink:href="#DejaVuSans-65" transform="translate(402.685547 0)"/>
    </g>
   </g>
   <g id="text_27">
    <!--  Toluene -->
    <g style="opacity: 0.95" transform="translate(156.860093 234.135497) scale(0.1 -0.1)">
     <defs>
      <path id="DejaVuSans-54" d="M -19 4666 
L 3928 4666 
L 3928 4134 
L 2272 4134 
L 2272 0 
L 1638 0 
L 1638 4134 
L -19 4134 
L -19 4666 
z
" transform="scale(0.015625)"/>
      <path id="DejaVuSans-6c" d="M 603 4863 
L 1178 4863 
L 1178 0 
L 603 0 
L 603 4863 
z
" transform="scale(0.015625)"/>
      <path id="DejaVuSans-75" d="M 544 1381 
L 544 3500 
L 1119 3500 
L 1119 1403 
Q 1119 906 1312 657 
Q 1506 409 1894 409 
Q 2359 409 2629 706 
Q 2900 1003 2900 1516 
L 2900 3500 
L 3475 3500 
L 3475 0 
L 2900 0 
L 2900 538 
Q 2691 219 2414 64 
Q 2138 -91 1772 -91 
Q 1169 -91 856 284 
Q 544 659 544 1381 
z
M 1991 3584 
L 1991 3584 
z
" transform="scale(0.015625)"/>
     </defs>
     <use xlink:href="#DejaVuSans-20"/>
     <use xlink:href="#DejaVuSans-54" transform="translate(31.787109 0)"/>
     <use xlink:href="#DejaVuSans-6f" transform="translate(75.871094 0)"/>
     <use xlink:href="#DejaVuSans-6c" transform="translate(137.052734 0)"/>
     <use xlink:href="#DejaVuSans-75" transform="translate(164.835938 0)"/>
     <use xlink:href="#DejaVuSans-65" transform="translate(228.214844 0)"/>
     <use xlink:href="#DejaVuSans-6e" transform="translate(289.738281 0)"/>
     <use xlink:href="#DejaVuSans-65" transform="translate(353.117188 0)"/>
    </g>
   </g>
   <g id="text_28">
    <!--  Formaldehyde -->
    <g style="opacity: 0.95" transform="translate(259.338486 356.451268) scale(0.1 -0.1)">
     <defs>
      <path id="DejaVuSans-46" d="M 628 4666 
L 3309 4666 
L 3309 4134 
L 1259 4134 
L 1259 2759 
L 3109 2759 
L 3109 2228 
L 1259 2228 
L 1259 0 
L 628 0 
L 628 4666 
z
" transform="scale(0.015625)"/>
      <path id="DejaVuSans-72" d="M 2631 2963 
Q 2534 3019 2420 3045 
Q 2306 3072 2169 3072 
Q 1681 3072 1420 2755 
Q 1159 2438 1159 1844 
L 1159 0 
L 581 0 
L 581 3500 
L 1159 3500 
L 1159 2956 
Q 1341 3275 1631 3429 
Q 1922 3584 2338 3584 
Q 2397 3584 2469 3576 
Q 2541 3569 2628 3553 
L 2631 2963 
z
" transform="scale(0.015625)"/>
      <path id="DejaVuSans-6d" d="M 3328 2828 
Q 3544 3216 3844 3400 
Q 4144 3584 4550 3584 
Q 5097 3584 5394 3201 
Q 5691 2819 5691 2113 
L 5691 0 
L 5113 0 
L 5113 2094 
Q 5113 2597 4934 2840 
Q 4756 3084 4391 3084 
Q 3944 3084 3684 2787 
Q 3425 2491 3425 1978 
L 3425 0 
L 2847 0 
L 2847 2094 
Q 2847 2600 2669 2842 
Q 2491 3084 2119 3084 
Q 1678 3084 1418 2786 
Q 1159 2488 1159 1978 
L 1159 0 
L 581 0 
L 581 3500 
L 1159 3500 
L 1159 2956 
Q 1356 3278 1631 3431 
Q 1906 3584 2284 3584 
Q 2666 3584 2933 3390 
Q 3200 3197 3328 2828 
z
" transform="scale(0.015625)"/>
      <path id="DejaVuSans-61" d="M 2194 1759 
Q 1497 1759 1228 1600 
Q 959 1441 959 1056 
Q 959 750 1161 570 
Q 1363 391 1709 391 
Q 2188 391 2477 730 
Q 2766 1069 2766 1631 
L 2766 1759 
L 2194 1759 
z
M 3341 1997 
L 3341 0 
L 2766 0 
L 2766 531 
Q 2569 213 2275 61 
Q 1981 -91 1556 -91 
Q 1019 -91 701 211 
Q 384 513 384 1019 
Q 384 1609 779 1909 
Q 1175 2209 1959 2209 
L 2766 2209 
L 2766 2266 
Q 2766 2663 2505 2880 
Q 2244 3097 1772 3097 
Q 1472 3097 1187 3025 
Q 903 2953 641 2809 
L 641 3341 
Q 956 3463 1253 3523 
Q 1550 3584 1831 3584 
Q 2591 3584 2966 3190 
Q 3341 2797 3341 1997 
z
" transform="scale(0.015625)"/>
      <path id="DejaVuSans-64" d="M 2906 2969 
L 2906 4863 
L 3481 4863 
L 3481 0 
L 2906 0 
L 2906 525 
Q 2725 213 2448 61 
Q 2172 -91 1784 -91 
Q 1150 -91 751 415 
Q 353 922 353 1747 
Q 353 2572 751 3078 
Q 1150 3584 1784 3584 
Q 2172 3584 2448 3432 
Q 2725 3281 2906 2969 
z
M 947 1747 
Q 947 1113 1208 752 
Q 1469 391 1925 391 
Q 2381 391 2643 752 
Q 2906 1113 2906 1747 
Q 2906 2381 2643 2742 
Q 2381 3103 1925 3103 
Q 1469 3103 1208 2742 
Q 947 2381 947 1747 
z
" transform="scale(0.015625)"/>
      <path id="DejaVuSans-68" d="M 3513 2113 
L 3513 0 
L 2938 0 
L 2938 2094 
Q 2938 2591 2744 2837 
Q 2550 3084 2163 3084 
Q 1697 3084 1428 2787 
Q 1159 2491 1159 1978 
L 1159 0 
L 581 0 
L 581 4863 
L 1159 4863 
L 1159 2956 
Q 1366 3272 1645 3428 
Q 1925 3584 2291 3584 
Q 2894 3584 3203 3211 
Q 3513 2838 3513 2113 
z
" transform="scale(0.015625)"/>
      <path id="DejaVuSans-79" d="M 2059 -325 
Q 1816 -950 1584 -1140 
Q 1353 -1331 966 -1331 
L 506 -1331 
L 506 -850 
L 844 -850 
Q 1081 -850 1212 -737 
Q 1344 -625 1503 -206 
L 1606 56 
L 191 3500 
L 800 3500 
L 1894 763 
L 2988 3500 
L 3597 3500 
L 2059 -325 
z
" transform="scale(0.015625)"/>
     </defs>
     <use xlink:href="#DejaVuSans-20"/>
     <use xlink:href="#DejaVuSans-46" transform="translate(31.787109 0)"/>
     <use xlink:href="#DejaVuSans-6f" transform="translate(85.681641 0)"/>
     <use xlink:href="#DejaVuSans-72" transform="translate(146.863281 0)"/>
     <use xlink:href="#DejaVuSans-6d" transform="translate(186.226562 0)"/>
     <use xlink:href="#DejaVuSans-61" transform="translate(283.638672 0)"/>
     <use xlink:href="#DejaVuSans-6c" transform="translate(344.917969 0)"/>
     <use xlink:href="#DejaVuSans-64" transform="translate(372.701172 0)"/>
     <use xlink:href="#DejaVuSans-65" transform="translate(436.177734 0)"/>
     <use xlink:href="#DejaVuSans-68" transform="translate(497.701172 0)"/>
     <use xlink:href="#DejaVuSans-79" transform="translate(561.080078 0)"/>
     <use xlink:href="#DejaVuSans-64" transform="translate(620.259766 0)"/>
     <use xlink:href="#DejaVuSans-65" transform="translate(683.736328 0)"/>
    </g>
   </g>
  </g>
 </g>
 <defs>
  <clipPath id="p443c5f5641">
   <rect x="64.8" y="118.08" width="345.6" height="345.6"/>
  </clipPath>
 </defs>
</svg>
