<?xml version="1.0" encoding="utf-8" standalone="no"?>
<!DOCTYPE svg PUBLIC "-//W3C//DTD SVG 1.1//EN"
  "http://www.w3.org/Graphics/SVG/1.1/DTD/svg11.dtd">
<svg xmlns:xlink="http://www.w3.org/1999/xlink" width="432pt" height="288pt" viewBox="0 0 432 288" xmlns="http://www.w3.org/2000/svg" version="1.1">
 <metadata>
  <rdf:RDF xmlns:dc="http://purl.org/dc/elements/1.1/" xmlns:cc="http://creativecommons.org/ns#" xmlns:rdf="http://www.w3.org/1999/02/22-rdf-syntax-ns#">
   <cc:Work>
    <dc:type rdf:resource="http://purl.org/dc/dcmitype/StillImage"/>
    <dc:date>2025-06-23T15:19:42.602038</dc:date>
    <dc:format>image/svg+xml</dc:format>
    <dc:creator>
     <cc:Agent>
      <dc:title>Matplotlib v3.10.1, https://matplotlib.org/</dc:title>
     </cc:Agent>
    </dc:creator>
   </cc:Work>
  </rdf:RDF>
 </metadata>
 <defs>
  <style type="text/css">*{stroke-linejoin: round; stroke-linecap: butt}</style>
 </defs>
 <g id="figure_1">
  <g id="patch_1">
   <path d="M 0 288 
L 432 288 
L 432 0 
L 0 0 
z
" style="fill: #ffffff"/>
  </g>
  <g id="patch_2">
   <path d="M 46.8 288 
L 363.6 288 
L 363.6 -28.8 
L 46.8 -28.8 
z
" style="fill: #ffffff"/>
  </g>
  <g id="pane3d_1">
   <g id="patch_3">
    <path d="M 84.098635 24.28759 
L 256.326226 29.916227 
L 337.115362 22.473095 
L 155.754436 15.901678 
" style="fill: #f2f2f2; opacity: 0.5; stroke: #f2f2f2; stroke-linejoin: miter"/>
   </g>
  </g>
  <g id="pane3d_2">
   <g id="patch_4">
    <path d="M 256.326226 29.916227 
L 256.326226 220.721611 
L 337.115362 228.164743 
L 337.115362 22.473095 
" style="fill: #e6e6e6; opacity: 0.5; stroke: #e6e6e6; stroke-linejoin: miter"/>
   </g>
  </g>
  <g id="pane3d_3">
   <g id="patch_5">
    <path d="M 84.098635 24.28759 
L 84.098635 226.350248 
L 256.326226 220.721611 
L 256.326226 29.916227 
" style="fill: #ececec; opacity: 0.5; stroke: #ececec; stroke-linejoin: miter"/>
   </g>
  </g>
  <g id="grid3d_1">
   <g id="Line3DCollection_1">
    <path d="M 84.098635 54.586933 
L 256.326226 58.527539 
L 337.115362 53.316606 
" style="fill: none; stroke: #b0b0b0; stroke-width: 0.8"/>
    <path d="M 84.098635 89.823322 
L 256.326226 91.800845 
L 337.115362 89.18583 
" style="fill: none; stroke: #b0b0b0; stroke-width: 0.8"/>
    <path d="M 84.098635 125.05971 
L 256.326226 125.074151 
L 337.115362 125.055055 
" style="fill: none; stroke: #b0b0b0; stroke-width: 0.8"/>
    <path d="M 84.098635 160.296098 
L 256.326226 158.347457 
L 337.115362 160.924279 
" style="fill: none; stroke: #b0b0b0; stroke-width: 0.8"/>
    <path d="M 84.098635 195.532487 
L 256.326226 191.620763 
L 337.115362 196.793503 
" style="fill: none; stroke: #b0b0b0; stroke-width: 0.8"/>
   </g>
  </g>
  <g id="grid3d_2">
   <g id="Line3DCollection_2">
    <path d="M 164.312392 16.211767 
L 92.189961 24.552026 
L 92.189961 226.085812 
" style="fill: none; stroke: #b0b0b0; stroke-width: 0.8"/>
    <path d="M 192.477602 17.232303 
L 118.844284 25.423126 
L 118.844284 225.214712 
" style="fill: none; stroke: #b0b0b0; stroke-width: 0.8"/>
    <path d="M 220.120807 18.233924 
L 145.041719 26.279295 
L 145.041719 224.358543 
" style="fill: none; stroke: #b0b0b0; stroke-width: 0.8"/>
    <path d="M 247.256386 19.217152 
L 170.793914 27.120912 
L 170.793914 223.516926 
" style="fill: none; stroke: #b0b0b0; stroke-width: 0.8"/>
    <path d="M 273.898195 20.182489 
L 196.112123 27.948346 
L 196.112123 222.689491 
" style="fill: none; stroke: #b0b0b0; stroke-width: 0.8"/>
    <path d="M 300.059588 21.130419 
L 221.007226 28.761953 
L 221.007226 221.875885 
" style="fill: none; stroke: #b0b0b0; stroke-width: 0.8"/>
    <path d="M 325.753444 22.061408 
L 245.48974 29.562076 
L 245.48974 221.075762 
" style="fill: none; stroke: #b0b0b0; stroke-width: 0.8"/>
   </g>
  </g>
  <g id="grid3d_3">
   <g id="Line3DCollection_3">
    <path d="M 256.501318 220.737742 
L 256.501318 29.900096 
L 84.253219 24.269499 
" style="fill: none; stroke: #b0b0b0; stroke-width: 0.8"/>
    <path d="M 265.592231 221.575291 
L 265.592231 29.062547 
L 92.283596 23.3297 
" style="fill: none; stroke: #b0b0b0; stroke-width: 0.8"/>
    <path d="M 274.84415 222.427674 
L 274.84415 28.210164 
L 100.464745 22.372256 
" style="fill: none; stroke: #b0b0b0; stroke-width: 0.8"/>
    <path d="M 284.26139 223.295288 
L 284.26139 27.34255 
L 108.800955 21.396666 
" style="fill: none; stroke: #b0b0b0; stroke-width: 0.8"/>
    <path d="M 293.848424 224.178544 
L 293.848424 26.459293 
L 117.296675 20.402408 
" style="fill: none; stroke: #b0b0b0; stroke-width: 0.8"/>
    <path d="M 303.609884 225.077871 
L 303.609884 25.559967 
L 125.956528 19.388941 
" style="fill: none; stroke: #b0b0b0; stroke-width: 0.8"/>
    <path d="M 313.550574 225.993711 
L 313.550574 24.644127 
L 134.785317 18.355704 
" style="fill: none; stroke: #b0b0b0; stroke-width: 0.8"/>
    <path d="M 323.675478 226.926522 
L 323.675478 23.711316 
L 143.788034 17.302112 
" style="fill: none; stroke: #b0b0b0; stroke-width: 0.8"/>
    <path d="M 333.989762 227.876781 
L 333.989762 22.761057 
L 152.969869 16.227558 
" style="fill: none; stroke: #b0b0b0; stroke-width: 0.8"/>
   </g>
  </g>
  <g id="axis3d_1">
   <g id="line2d_1">
    <path d="M 84.098635 24.28759 
L 84.098635 226.350248 
" style="fill: none; stroke: #000000; stroke-width: 0.8; stroke-linecap: square"/>
   </g>
   <g id="xtick_1">
    <g id="line2d_2">
     <path d="M 85.557057 54.620302 
L 81.177657 54.5201 
" style="fill: none; stroke: #000000; stroke-width: 0.8; stroke-linecap: square"/>
    </g>
    <g id="text_1">
     <!-- −6 -->
     <g transform="translate(59.425441 62.27224) scale(0.1 -0.1)">
      <defs>
       <path id="DejaVuSans-2212" d="M 678 2272 
L 4684 2272 
L 4684 1741 
L 678 1741 
L 678 2272 
z
" transform="scale(0.015625)"/>
       <path id="DejaVuSans-36" d="M 2113 2584 
Q 1688 2584 1439 2293 
Q 1191 2003 1191 1497 
Q 1191 994 1439 701 
Q 1688 409 2113 409 
Q 2538 409 2786 701 
Q 3034 994 3034 1497 
Q 3034 2003 2786 2293 
Q 2538 2584 2113 2584 
z
M 3366 4563 
L 3366 3988 
Q 3128 4100 2886 4159 
Q 2644 4219 2406 4219 
Q 1781 4219 1451 3797 
Q 1122 3375 1075 2522 
Q 1259 2794 1537 2939 
Q 1816 3084 2150 3084 
Q 2853 3084 3261 2657 
Q 3669 2231 3669 1497 
Q 3669 778 3244 343 
Q 2819 -91 2113 -91 
Q 1303 -91 875 529 
Q 447 1150 447 2328 
Q 447 3434 972 4092 
Q 1497 4750 2381 4750 
Q 2619 4750 2861 4703 
Q 3103 4656 3366 4563 
z
" transform="scale(0.015625)"/>
      </defs>
      <use xlink:href="#DejaVuSans-2212"/>
      <use xlink:href="#DejaVuSans-36" transform="translate(83.789062 0)"/>
     </g>
    </g>
   </g>
   <g id="xtick_2">
    <g id="line2d_3">
     <path d="M 85.557057 89.840067 
L 81.177657 89.789783 
" style="fill: none; stroke: #000000; stroke-width: 0.8; stroke-linecap: square"/>
    </g>
    <g id="text_2">
     <!-- −4 -->
     <g transform="translate(59.425441 97.465353) scale(0.1 -0.1)">
      <defs>
       <path id="DejaVuSans-34" d="M 2419 4116 
L 825 1625 
L 2419 1625 
L 2419 4116 
z
M 2253 4666 
L 3047 4666 
L 3047 1625 
L 3713 1625 
L 3713 1100 
L 3047 1100 
L 3047 0 
L 2419 0 
L 2419 1100 
L 313 1100 
L 313 1709 
L 2253 4666 
z
" transform="scale(0.015625)"/>
      </defs>
      <use xlink:href="#DejaVuSans-2212"/>
      <use xlink:href="#DejaVuSans-34" transform="translate(83.789062 0)"/>
     </g>
    </g>
   </g>
   <g id="xtick_3">
    <g id="line2d_4">
     <path d="M 85.557057 125.059832 
L 81.177657 125.059465 
" style="fill: none; stroke: #000000; stroke-width: 0.8; stroke-linecap: square"/>
    </g>
    <g id="text_3">
     <!-- −2 -->
     <g transform="translate(59.425441 132.658466) scale(0.1 -0.1)">
      <defs>
       <path id="DejaVuSans-32" d="M 1228 531 
L 3431 531 
L 3431 0 
L 469 0 
L 469 531 
Q 828 903 1448 1529 
Q 2069 2156 2228 2338 
Q 2531 2678 2651 2914 
Q 2772 3150 2772 3378 
Q 2772 3750 2511 3984 
Q 2250 4219 1831 4219 
Q 1534 4219 1204 4116 
Q 875 4013 500 3803 
L 500 4441 
Q 881 4594 1212 4672 
Q 1544 4750 1819 4750 
Q 2544 4750 2975 4387 
Q 3406 4025 3406 3419 
Q 3406 3131 3298 2873 
Q 3191 2616 2906 2266 
Q 2828 2175 2409 1742 
Q 1991 1309 1228 531 
z
" transform="scale(0.015625)"/>
      </defs>
      <use xlink:href="#DejaVuSans-2212"/>
      <use xlink:href="#DejaVuSans-32" transform="translate(83.789062 0)"/>
     </g>
    </g>
   </g>
   <g id="xtick_4">
    <g id="line2d_5">
     <path d="M 85.557057 160.279597 
L 81.177657 160.329147 
" style="fill: none; stroke: #000000; stroke-width: 0.8; stroke-linecap: square"/>
    </g>
    <g id="text_4">
     <!-- 0 -->
     <g transform="translate(63.615285 167.851579) scale(0.1 -0.1)">
      <defs>
       <path id="DejaVuSans-30" d="M 2034 4250 
Q 1547 4250 1301 3770 
Q 1056 3291 1056 2328 
Q 1056 1369 1301 889 
Q 1547 409 2034 409 
Q 2525 409 2770 889 
Q 3016 1369 3016 2328 
Q 3016 3291 2770 3770 
Q 2525 4250 2034 4250 
z
M 2034 4750 
Q 2819 4750 3233 4129 
Q 3647 3509 3647 2328 
Q 3647 1150 3233 529 
Q 2819 -91 2034 -91 
Q 1250 -91 836 529 
Q 422 1150 422 2328 
Q 422 3509 836 4129 
Q 1250 4750 2034 4750 
z
" transform="scale(0.015625)"/>
      </defs>
      <use xlink:href="#DejaVuSans-30"/>
     </g>
    </g>
   </g>
   <g id="xtick_5">
    <g id="line2d_6">
     <path d="M 85.557057 195.499362 
L 81.177657 195.59883 
" style="fill: none; stroke: #000000; stroke-width: 0.8; stroke-linecap: square"/>
    </g>
    <g id="text_5">
     <!-- 2 -->
     <g transform="translate(63.615285 203.044692) scale(0.1 -0.1)">
      <use xlink:href="#DejaVuSans-32"/>
     </g>
    </g>
   </g>
   <g id="text_6">
    <!-- PC1 (91.46%) -->
    <g transform="translate(48.352574 166.410481) rotate(-90) scale(0.12 -0.12)">
     <defs>
      <path id="DejaVuSans-50" d="M 1259 4147 
L 1259 2394 
L 2053 2394 
Q 2494 2394 2734 2622 
Q 2975 2850 2975 3272 
Q 2975 3691 2734 3919 
Q 2494 4147 2053 4147 
L 1259 4147 
z
M 628 4666 
L 2053 4666 
Q 2838 4666 3239 4311 
Q 3641 3956 3641 3272 
Q 3641 2581 3239 2228 
Q 2838 1875 2053 1875 
L 1259 1875 
L 1259 0 
L 628 0 
L 628 4666 
z
" transform="scale(0.015625)"/>
      <path id="DejaVuSans-43" d="M 4122 4306 
L 4122 3641 
Q 3803 3938 3442 4084 
Q 3081 4231 2675 4231 
Q 1875 4231 1450 3742 
Q 1025 3253 1025 2328 
Q 1025 1406 1450 917 
Q 1875 428 2675 428 
Q 3081 428 3442 575 
Q 3803 722 4122 1019 
L 4122 359 
Q 3791 134 3420 21 
Q 3050 -91 2638 -91 
Q 1578 -91 968 557 
Q 359 1206 359 2328 
Q 359 3453 968 4101 
Q 1578 4750 2638 4750 
Q 3056 4750 3426 4639 
Q 3797 4528 4122 4306 
z
" transform="scale(0.015625)"/>
      <path id="DejaVuSans-31" d="M 794 531 
L 1825 531 
L 1825 4091 
L 703 3866 
L 703 4441 
L 1819 4666 
L 2450 4666 
L 2450 531 
L 3481 531 
L 3481 0 
L 794 0 
L 794 531 
z
" transform="scale(0.015625)"/>
      <path id="DejaVuSans-20" transform="scale(0.015625)"/>
      <path id="DejaVuSans-28" d="M 1984 4856 
Q 1566 4138 1362 3434 
Q 1159 2731 1159 2009 
Q 1159 1288 1364 580 
Q 1569 -128 1984 -844 
L 1484 -844 
Q 1016 -109 783 600 
Q 550 1309 550 2009 
Q 550 2706 781 3412 
Q 1013 4119 1484 4856 
L 1984 4856 
z
" transform="scale(0.015625)"/>
      <path id="DejaVuSans-39" d="M 703 97 
L 703 672 
Q 941 559 1184 500 
Q 1428 441 1663 441 
Q 2288 441 2617 861 
Q 2947 1281 2994 2138 
Q 2813 1869 2534 1725 
Q 2256 1581 1919 1581 
Q 1219 1581 811 2004 
Q 403 2428 403 3163 
Q 403 3881 828 4315 
Q 1253 4750 1959 4750 
Q 2769 4750 3195 4129 
Q 3622 3509 3622 2328 
Q 3622 1225 3098 567 
Q 2575 -91 1691 -91 
Q 1453 -91 1209 -44 
Q 966 3 703 97 
z
M 1959 2075 
Q 2384 2075 2632 2365 
Q 2881 2656 2881 3163 
Q 2881 3666 2632 3958 
Q 2384 4250 1959 4250 
Q 1534 4250 1286 3958 
Q 1038 3666 1038 3163 
Q 1038 2656 1286 2365 
Q 1534 2075 1959 2075 
z
" transform="scale(0.015625)"/>
      <path id="DejaVuSans-2e" d="M 684 794 
L 1344 794 
L 1344 0 
L 684 0 
L 684 794 
z
" transform="scale(0.015625)"/>
      <path id="DejaVuSans-25" d="M 4653 2053 
Q 4381 2053 4226 1822 
Q 4072 1591 4072 1178 
Q 4072 772 4226 539 
Q 4381 306 4653 306 
Q 4919 306 5073 539 
Q 5228 772 5228 1178 
Q 5228 1588 5073 1820 
Q 4919 2053 4653 2053 
z
M 4653 2450 
Q 5147 2450 5437 2106 
Q 5728 1763 5728 1178 
Q 5728 594 5436 251 
Q 5144 -91 4653 -91 
Q 4153 -91 3862 251 
Q 3572 594 3572 1178 
Q 3572 1766 3864 2108 
Q 4156 2450 4653 2450 
z
M 1428 4353 
Q 1159 4353 1004 4120 
Q 850 3888 850 3481 
Q 850 3069 1003 2837 
Q 1156 2606 1428 2606 
Q 1700 2606 1854 2837 
Q 2009 3069 2009 3481 
Q 2009 3884 1853 4118 
Q 1697 4353 1428 4353 
z
M 4250 4750 
L 4750 4750 
L 1831 -91 
L 1331 -91 
L 4250 4750 
z
M 1428 4750 
Q 1922 4750 2215 4408 
Q 2509 4066 2509 3481 
Q 2509 2891 2217 2550 
Q 1925 2209 1428 2209 
Q 931 2209 642 2551 
Q 353 2894 353 3481 
Q 353 4063 643 4406 
Q 934 4750 1428 4750 
z
" transform="scale(0.015625)"/>
      <path id="DejaVuSans-29" d="M 513 4856 
L 1013 4856 
Q 1481 4119 1714 3412 
Q 1947 2706 1947 2009 
Q 1947 1309 1714 600 
Q 1481 -109 1013 -844 
L 513 -844 
Q 928 -128 1133 580 
Q 1338 1288 1338 2009 
Q 1338 2731 1133 3434 
Q 928 4138 513 4856 
z
" transform="scale(0.015625)"/>
     </defs>
     <use xlink:href="#DejaVuSans-50"/>
     <use xlink:href="#DejaVuSans-43" transform="translate(60.302734 0)"/>
     <use xlink:href="#DejaVuSans-31" transform="translate(130.126953 0)"/>
     <use xlink:href="#DejaVuSans-20" transform="translate(193.75 0)"/>
     <use xlink:href="#DejaVuSans-28" transform="translate(225.537109 0)"/>
     <use xlink:href="#DejaVuSans-39" transform="translate(264.550781 0)"/>
     <use xlink:href="#DejaVuSans-31" transform="translate(328.173828 0)"/>
     <use xlink:href="#DejaVuSans-2e" transform="translate(391.796875 0)"/>
     <use xlink:href="#DejaVuSans-34" transform="translate(423.583984 0)"/>
     <use xlink:href="#DejaVuSans-36" transform="translate(487.207031 0)"/>
     <use xlink:href="#DejaVuSans-25" transform="translate(550.830078 0)"/>
     <use xlink:href="#DejaVuSans-29" transform="translate(645.849609 0)"/>
    </g>
   </g>
  </g>
  <g id="axis3d_2">
   <g id="line2d_7">
    <path d="M 256.326226 220.721611 
L 84.098635 226.350248 
" style="fill: none; stroke: #000000; stroke-width: 0.8; stroke-linecap: square"/>
   </g>
   <g id="xtick_6">
    <g id="line2d_8">
     <path d="M 92.189961 224.473542 
L 92.189961 229.310353 
" style="fill: none; stroke: #000000; stroke-width: 0.8; stroke-linecap: square"/>
    </g>
    <g id="text_7">
     <!-- −1.5 -->
     <g transform="translate(75.43069 247.122095) scale(0.1 -0.1)">
      <defs>
       <path id="DejaVuSans-35" d="M 691 4666 
L 3169 4666 
L 3169 4134 
L 1269 4134 
L 1269 2991 
Q 1406 3038 1543 3061 
Q 1681 3084 1819 3084 
Q 2600 3084 3056 2656 
Q 3513 2228 3513 1497 
Q 3513 744 3044 326 
Q 2575 -91 1722 -91 
Q 1428 -91 1123 -41 
Q 819 9 494 109 
L 494 744 
Q 775 591 1075 516 
Q 1375 441 1709 441 
Q 2250 441 2565 725 
Q 2881 1009 2881 1497 
Q 2881 1984 2565 2268 
Q 2250 2553 1709 2553 
Q 1456 2553 1204 2497 
Q 953 2441 691 2322 
L 691 4666 
z
" transform="scale(0.015625)"/>
      </defs>
      <use xlink:href="#DejaVuSans-2212"/>
      <use xlink:href="#DejaVuSans-31" transform="translate(83.789062 0)"/>
      <use xlink:href="#DejaVuSans-2e" transform="translate(147.412109 0)"/>
      <use xlink:href="#DejaVuSans-35" transform="translate(179.199219 0)"/>
     </g>
    </g>
   </g>
   <g id="xtick_7">
    <g id="line2d_9">
     <path d="M 118.844284 223.616379 
L 118.844284 228.411377 
" style="fill: none; stroke: #000000; stroke-width: 0.8; stroke-linecap: square"/>
    </g>
    <g id="text_8">
     <!-- −1.0 -->
     <g transform="translate(101.984684 246.140015) scale(0.1 -0.1)">
      <use xlink:href="#DejaVuSans-2212"/>
      <use xlink:href="#DejaVuSans-31" transform="translate(83.789062 0)"/>
      <use xlink:href="#DejaVuSans-2e" transform="translate(147.412109 0)"/>
      <use xlink:href="#DejaVuSans-30" transform="translate(179.199219 0)"/>
     </g>
    </g>
   </g>
   <g id="xtick_8">
    <g id="line2d_10">
     <path d="M 145.041719 222.773909 
L 145.041719 227.527811 
" style="fill: none; stroke: #000000; stroke-width: 0.8; stroke-linecap: square"/>
    </g>
    <g id="text_9">
     <!-- −0.5 -->
     <g transform="translate(128.085881 245.174682) scale(0.1 -0.1)">
      <use xlink:href="#DejaVuSans-2212"/>
      <use xlink:href="#DejaVuSans-30" transform="translate(83.789062 0)"/>
      <use xlink:href="#DejaVuSans-2e" transform="translate(147.412109 0)"/>
      <use xlink:href="#DejaVuSans-35" transform="translate(179.199219 0)"/>
     </g>
    </g>
   </g>
   <g id="xtick_9">
    <g id="line2d_11">
     <path d="M 170.793914 221.945758 
L 170.793914 226.659262 
" style="fill: none; stroke: #000000; stroke-width: 0.8; stroke-linecap: square"/>
    </g>
    <g id="text_10">
     <!-- 0.0 -->
     <g transform="translate(157.935608 244.22567) scale(0.1 -0.1)">
      <use xlink:href="#DejaVuSans-30"/>
      <use xlink:href="#DejaVuSans-2e" transform="translate(63.623047 0)"/>
      <use xlink:href="#DejaVuSans-30" transform="translate(95.410156 0)"/>
     </g>
    </g>
   </g>
   <g id="xtick_10">
    <g id="line2d_12">
     <path d="M 196.112123 221.131562 
L 196.112123 225.80535 
" style="fill: none; stroke: #000000; stroke-width: 0.8; stroke-linecap: square"/>
    </g>
    <g id="text_11">
     <!-- 0.5 -->
     <g transform="translate(183.165277 243.29257) scale(0.1 -0.1)">
      <use xlink:href="#DejaVuSans-30"/>
      <use xlink:href="#DejaVuSans-2e" transform="translate(63.623047 0)"/>
      <use xlink:href="#DejaVuSans-35" transform="translate(95.410156 0)"/>
     </g>
    </g>
   </g>
   <g id="xtick_11">
    <g id="line2d_13">
     <path d="M 221.007226 220.330973 
L 221.007226 224.965708 
" style="fill: none; stroke: #000000; stroke-width: 0.8; stroke-linecap: square"/>
    </g>
    <g id="text_12">
     <!-- 1.0 -->
     <g transform="translate(207.97546 242.374984) scale(0.1 -0.1)">
      <use xlink:href="#DejaVuSans-31"/>
      <use xlink:href="#DejaVuSans-2e" transform="translate(63.623047 0)"/>
      <use xlink:href="#DejaVuSans-30" transform="translate(95.410156 0)"/>
     </g>
    </g>
   </g>
   <g id="xtick_12">
    <g id="line2d_14">
     <path d="M 245.48974 219.543653 
L 245.48974 224.139981 
" style="fill: none; stroke: #000000; stroke-width: 0.8; stroke-linecap: square"/>
    </g>
    <g id="text_13">
     <!-- 1.5 -->
     <g transform="translate(232.376533 241.472529) scale(0.1 -0.1)">
      <use xlink:href="#DejaVuSans-31"/>
      <use xlink:href="#DejaVuSans-2e" transform="translate(63.623047 0)"/>
      <use xlink:href="#DejaVuSans-35" transform="translate(95.410156 0)"/>
     </g>
    </g>
   </g>
   <g id="text_14">
    <!-- PC2 (6.15%) -->
    <g transform="translate(116.179977 279.592827) rotate(-1.871839) scale(0.12 -0.12)">
     <use xlink:href="#DejaVuSans-50"/>
     <use xlink:href="#DejaVuSans-43" transform="translate(60.302734 0)"/>
     <use xlink:href="#DejaVuSans-32" transform="translate(130.126953 0)"/>
     <use xlink:href="#DejaVuSans-20" transform="translate(193.75 0)"/>
     <use xlink:href="#DejaVuSans-28" transform="translate(225.537109 0)"/>
     <use xlink:href="#DejaVuSans-36" transform="translate(264.550781 0)"/>
     <use xlink:href="#DejaVuSans-2e" transform="translate(328.173828 0)"/>
     <use xlink:href="#DejaVuSans-31" transform="translate(359.960938 0)"/>
     <use xlink:href="#DejaVuSans-35" transform="translate(423.583984 0)"/>
     <use xlink:href="#DejaVuSans-25" transform="translate(487.207031 0)"/>
     <use xlink:href="#DejaVuSans-29" transform="translate(582.226562 0)"/>
    </g>
   </g>
  </g>
  <g id="axis3d_3">
   <g id="line2d_15">
    <path d="M 256.326226 220.721611 
L 337.115362 228.164743 
" style="fill: none; stroke: #000000; stroke-width: 0.8; stroke-linecap: square"/>
   </g>
   <g id="xtick_13">
    <g id="line2d_16">
     <path d="M 256.501318 219.211041 
L 256.501318 223.791144 
" style="fill: none; stroke: #000000; stroke-width: 0.8; stroke-linecap: square"/>
    </g>
    <g id="text_15">
     <!-- −1.0 -->
     <g transform="translate(270.553066 257.90077) rotate(-90) scale(0.1 -0.1)">
      <use xlink:href="#DejaVuSans-2212"/>
      <use xlink:href="#DejaVuSans-31" transform="translate(83.789062 0)"/>
      <use xlink:href="#DejaVuSans-2e" transform="translate(147.412109 0)"/>
      <use xlink:href="#DejaVuSans-30" transform="translate(179.199219 0)"/>
     </g>
    </g>
   </g>
   <g id="xtick_14">
    <g id="line2d_17">
     <path d="M 265.592231 220.035189 
L 265.592231 224.655495 
" style="fill: none; stroke: #000000; stroke-width: 0.8; stroke-linecap: square"/>
    </g>
    <g id="text_16">
     <!-- −0.8 -->
     <g transform="translate(279.707235 258.847667) rotate(-90) scale(0.1 -0.1)">
      <defs>
       <path id="DejaVuSans-38" d="M 2034 2216 
Q 1584 2216 1326 1975 
Q 1069 1734 1069 1313 
Q 1069 891 1326 650 
Q 1584 409 2034 409 
Q 2484 409 2743 651 
Q 3003 894 3003 1313 
Q 3003 1734 2745 1975 
Q 2488 2216 2034 2216 
z
M 1403 2484 
Q 997 2584 770 2862 
Q 544 3141 544 3541 
Q 544 4100 942 4425 
Q 1341 4750 2034 4750 
Q 2731 4750 3128 4425 
Q 3525 4100 3525 3541 
Q 3525 3141 3298 2862 
Q 3072 2584 2669 2484 
Q 3125 2378 3379 2068 
Q 3634 1759 3634 1313 
Q 3634 634 3220 271 
Q 2806 -91 2034 -91 
Q 1263 -91 848 271 
Q 434 634 434 1313 
Q 434 1759 690 2068 
Q 947 2378 1403 2484 
z
M 1172 3481 
Q 1172 3119 1398 2916 
Q 1625 2713 2034 2713 
Q 2441 2713 2670 2916 
Q 2900 3119 2900 3481 
Q 2900 3844 2670 4047 
Q 2441 4250 2034 4250 
Q 1625 4250 1398 4047 
Q 1172 3844 1172 3481 
z
" transform="scale(0.015625)"/>
      </defs>
      <use xlink:href="#DejaVuSans-2212"/>
      <use xlink:href="#DejaVuSans-30" transform="translate(83.789062 0)"/>
      <use xlink:href="#DejaVuSans-2e" transform="translate(147.412109 0)"/>
      <use xlink:href="#DejaVuSans-38" transform="translate(179.199219 0)"/>
     </g>
    </g>
   </g>
   <g id="xtick_15">
    <g id="line2d_18">
     <path d="M 274.84415 220.873934 
L 274.84415 225.535154 
" style="fill: none; stroke: #000000; stroke-width: 0.8; stroke-linecap: square"/>
    </g>
    <g id="text_17">
     <!-- −0.6 -->
     <g transform="translate(289.022893 259.811268) rotate(-90) scale(0.1 -0.1)">
      <use xlink:href="#DejaVuSans-2212"/>
      <use xlink:href="#DejaVuSans-30" transform="translate(83.789062 0)"/>
      <use xlink:href="#DejaVuSans-2e" transform="translate(147.412109 0)"/>
      <use xlink:href="#DejaVuSans-36" transform="translate(179.199219 0)"/>
     </g>
    </g>
   </g>
   <g id="xtick_16">
    <g id="line2d_19">
     <path d="M 284.26139 221.727666 
L 284.26139 226.430531 
" style="fill: none; stroke: #000000; stroke-width: 0.8; stroke-linecap: square"/>
    </g>
    <g id="text_18">
     <!-- −0.4 -->
     <g transform="translate(298.50435 260.792019) rotate(-90) scale(0.1 -0.1)">
      <use xlink:href="#DejaVuSans-2212"/>
      <use xlink:href="#DejaVuSans-30" transform="translate(83.789062 0)"/>
      <use xlink:href="#DejaVuSans-2e" transform="translate(147.412109 0)"/>
      <use xlink:href="#DejaVuSans-34" transform="translate(179.199219 0)"/>
     </g>
    </g>
   </g>
   <g id="xtick_17">
    <g id="line2d_20">
     <path d="M 293.848424 222.59679 
L 293.848424 227.342052 
" style="fill: none; stroke: #000000; stroke-width: 0.8; stroke-linecap: square"/>
    </g>
    <g id="text_19">
     <!-- −0.2 -->
     <g transform="translate(308.156073 261.790383) rotate(-90) scale(0.1 -0.1)">
      <use xlink:href="#DejaVuSans-2212"/>
      <use xlink:href="#DejaVuSans-30" transform="translate(83.789062 0)"/>
      <use xlink:href="#DejaVuSans-2e" transform="translate(147.412109 0)"/>
      <use xlink:href="#DejaVuSans-32" transform="translate(179.199219 0)"/>
     </g>
    </g>
   </g>
   <g id="xtick_18">
    <g id="line2d_21">
     <path d="M 303.609884 223.481728 
L 303.609884 228.270158 
" style="fill: none; stroke: #000000; stroke-width: 0.8; stroke-linecap: square"/>
    </g>
    <g id="text_20">
     <!-- 0.0 -->
     <g transform="translate(317.98269 254.427149) rotate(-90) scale(0.1 -0.1)">
      <use xlink:href="#DejaVuSans-30"/>
      <use xlink:href="#DejaVuSans-2e" transform="translate(63.623047 0)"/>
      <use xlink:href="#DejaVuSans-30" transform="translate(95.410156 0)"/>
     </g>
    </g>
   </g>
   <g id="xtick_19">
    <g id="line2d_22">
     <path d="M 313.550574 224.382914 
L 313.550574 229.215304 
" style="fill: none; stroke: #000000; stroke-width: 0.8; stroke-linecap: square"/>
    </g>
    <g id="text_21">
     <!-- 0.2 -->
     <g transform="translate(327.988997 255.46219) rotate(-90) scale(0.1 -0.1)">
      <use xlink:href="#DejaVuSans-30"/>
      <use xlink:href="#DejaVuSans-2e" transform="translate(63.623047 0)"/>
      <use xlink:href="#DejaVuSans-32" transform="translate(95.410156 0)"/>
     </g>
    </g>
   </g>
   <g id="xtick_20">
    <g id="line2d_23">
     <path d="M 323.675478 225.3008 
L 323.675478 230.177965 
" style="fill: none; stroke: #000000; stroke-width: 0.8; stroke-linecap: square"/>
    </g>
    <g id="text_22">
     <!-- 0.4 -->
     <g transform="translate(338.179969 256.516333) rotate(-90) scale(0.1 -0.1)">
      <use xlink:href="#DejaVuSans-30"/>
      <use xlink:href="#DejaVuSans-2e" transform="translate(63.623047 0)"/>
      <use xlink:href="#DejaVuSans-34" transform="translate(95.410156 0)"/>
     </g>
    </g>
   </g>
   <g id="xtick_21">
    <g id="line2d_24">
     <path d="M 333.989762 226.235855 
L 333.989762 231.158632 
" style="fill: none; stroke: #000000; stroke-width: 0.8; stroke-linecap: square"/>
    </g>
    <g id="text_23">
     <!-- 0.6 -->
     <g transform="translate(348.560765 257.590111) rotate(-90) scale(0.1 -0.1)">
      <use xlink:href="#DejaVuSans-30"/>
      <use xlink:href="#DejaVuSans-2e" transform="translate(63.623047 0)"/>
      <use xlink:href="#DejaVuSans-36" transform="translate(95.410156 0)"/>
     </g>
    </g>
   </g>
   <g id="text_24">
    <!-- PC3 (1.36%) -->
    <g transform="translate(303.463142 276.927397) rotate(-354.736179) scale(0.12 -0.12)">
     <defs>
      <path id="DejaVuSans-33" d="M 2597 2516 
Q 3050 2419 3304 2112 
Q 3559 1806 3559 1356 
Q 3559 666 3084 287 
Q 2609 -91 1734 -91 
Q 1441 -91 1130 -33 
Q 819 25 488 141 
L 488 750 
Q 750 597 1062 519 
Q 1375 441 1716 441 
Q 2309 441 2620 675 
Q 2931 909 2931 1356 
Q 2931 1769 2642 2001 
Q 2353 2234 1838 2234 
L 1294 2234 
L 1294 2753 
L 1863 2753 
Q 2328 2753 2575 2939 
Q 2822 3125 2822 3475 
Q 2822 3834 2567 4026 
Q 2313 4219 1838 4219 
Q 1578 4219 1281 4162 
Q 984 4106 628 3988 
L 628 4550 
Q 988 4650 1302 4700 
Q 1616 4750 1894 4750 
Q 2613 4750 3031 4423 
Q 3450 4097 3450 3541 
Q 3450 3153 3228 2886 
Q 3006 2619 2597 2516 
z
" transform="scale(0.015625)"/>
     </defs>
     <use xlink:href="#DejaVuSans-50"/>
     <use xlink:href="#DejaVuSans-43" transform="translate(60.302734 0)"/>
     <use xlink:href="#DejaVuSans-33" transform="translate(130.126953 0)"/>
     <use xlink:href="#DejaVuSans-20" transform="translate(193.75 0)"/>
     <use xlink:href="#DejaVuSans-28" transform="translate(225.537109 0)"/>
     <use xlink:href="#DejaVuSans-31" transform="translate(264.550781 0)"/>
     <use xlink:href="#DejaVuSans-2e" transform="translate(328.173828 0)"/>
     <use xlink:href="#DejaVuSans-33" transform="translate(359.960938 0)"/>
     <use xlink:href="#DejaVuSans-36" transform="translate(423.583984 0)"/>
     <use xlink:href="#DejaVuSans-25" transform="translate(487.207031 0)"/>
     <use xlink:href="#DejaVuSans-29" transform="translate(582.226562 0)"/>
    </g>
   </g>
  </g>
  <g id="axes_1">
   <g id="line2d_25">
    <path d="M 288.557214 35.753057 
L 287.669752 37.422641 
L 286.792859 39.091825 
L 285.926538 40.760595 
L 285.070788 42.428934 
L 284.225614 44.096826 
L 283.391015 45.764254 
L 282.566993 47.431204 
L 281.75355 49.097659 
L 280.950685 50.763603 
L 280.158399 52.42902 
L 279.376693 54.093894 
L 278.605567 55.75821 
L 277.845021 57.421951 
L 277.095055 59.085102 
L 276.355667 60.747647 
L 275.626858 62.40957 
L 274.908626 64.070855 
L 274.200971 65.731488 
L 273.50389 67.391451 
L 272.817384 69.05073 
L 272.141449 70.709309 
L 271.476085 72.367171 
L 270.821288 74.024303 
L 270.177057 75.680687 
L 269.543389 77.33631 
L 268.920281 78.991154 
L 268.307731 80.645205 
L 267.705735 82.298448 
L 267.11429 83.950866 
L 266.533392 85.602445 
L 265.963039 87.25317 
L 265.403225 88.903025 
L 264.853946 90.551994 
L 264.3152 92.200063 
L 263.78698 93.847217 
L 263.269282 95.49344 
L 262.762101 97.138718 
L 262.265432 98.783035 
L 261.77927 100.426376 
L 261.30361 102.068726 
L 260.838445 103.710071 
L 260.383769 105.350396 
L 259.939578 106.989685 
L 259.505863 108.627924 
L 259.082619 110.265098 
L 258.669839 111.901192 
L 258.267517 113.536192 
L 257.875644 115.170083 
L 257.494215 116.802851 
L 257.123221 118.43448 
L 256.762654 120.064957 
L 256.412508 121.694267 
L 256.072773 123.322395 
L 255.743443 124.949327 
L 255.424507 126.575049 
L 255.115959 128.199546 
L 254.817788 129.822804 
L 254.529986 131.44481 
L 254.252544 133.065548 
L 253.985453 134.685005 
L 253.728703 136.303167 
L 253.482284 137.920019 
L 253.246186 139.535547 
L 253.0204 141.149739 
L 252.804915 142.762579 
L 252.599721 144.374054 
L 252.404807 145.984151 
L 252.220162 147.592855 
L 252.045775 149.200152 
L 251.881636 150.80603 
L 251.727733 152.410474 
L 251.584053 154.013472 
L 251.450587 155.615009 
L 251.327322 157.215072 
L 251.214245 158.813647 
L 251.111345 160.410722 
L 251.018609 162.006284 
L 250.936025 163.600318 
L 250.86358 165.192812 
L 250.801261 166.783752 
L 250.749055 168.373126 
L 250.706949 169.96092 
L 250.674929 171.547122 
L 250.652983 173.131719 
L 250.641095 174.714698 
L 250.639253 176.296045 
L 250.647442 177.875749 
L 250.665648 179.453796 
L 250.693856 181.030174 
L 250.732052 182.604871 
L 250.780222 184.177873 
L 250.838351 185.749169 
L 250.906422 187.318746 
L 250.984422 188.886591 
L 251.072335 190.452693 
L 251.170145 192.017038 
L 251.277837 193.579616 
L 251.395395 195.140413 
L 251.522803 196.699418 
" clip-path="url(#p411acfac98)" style="fill: none; stroke: #e68b81; stroke-opacity: 0.7; stroke-width: 3; stroke-linecap: square"/>
   </g>
   <g id="line2d_26">
    <path d="M 217.152366 163.548469 
L 217.224859 163.9835 
L 217.293017 164.418542 
L 217.356837 164.853589 
L 217.416314 165.288633 
L 217.471443 165.723665 
L 217.522221 166.158678 
L 217.568642 166.593664 
L 217.610702 167.028616 
L 217.648399 167.463525 
L 217.681728 167.898383 
L 217.710685 168.333184 
L 217.735267 168.767918 
L 217.755471 169.202579 
L 217.771294 169.637158 
L 217.782732 170.071647 
L 217.789784 170.50604 
L 217.792445 170.940327 
L 217.790714 171.374501 
L 217.784589 171.808554 
L 217.774067 172.242478 
L 217.759146 172.676266 
L 217.739824 173.10991 
L 217.716099 173.543401 
L 217.687971 173.976732 
L 217.655437 174.409896 
L 217.618496 174.842883 
L 217.577148 175.275687 
L 217.531391 175.708299 
L 217.481224 176.140712 
L 217.426647 176.572918 
L 217.36766 177.004909 
L 217.304261 177.436677 
L 217.236451 177.868215 
L 217.164231 178.299514 
L 217.087599 178.730567 
L 217.006557 179.161365 
L 216.921105 179.591902 
L 216.831243 180.022169 
L 216.736973 180.452159 
L 216.638295 180.881864 
L 216.53521 181.311276 
L 216.42772 181.740386 
L 216.315826 182.169189 
L 216.19953 182.597675 
L 216.078834 183.025837 
L 215.953738 183.453668 
L 215.824247 183.881159 
L 215.690361 184.308304 
L 215.552083 184.735093 
L 215.409415 185.16152 
L 215.262362 185.587577 
L 215.110924 186.013257 
L 214.955105 186.438551 
L 214.794909 186.863452 
L 214.630339 187.287953 
L 214.461397 187.712045 
L 214.288089 188.135722 
L 214.110417 188.558976 
L 213.928386 188.981799 
L 213.742 189.404183 
L 213.551263 189.826122 
L 213.356179 190.247608 
L 213.156753 190.668633 
L 212.952989 191.08919 
L 212.744894 191.509271 
L 212.532471 191.928869 
L 212.315725 192.347977 
L 212.094663 192.766587 
L 211.86929 193.184693 
L 211.639611 193.602285 
L 211.405632 194.019359 
L 211.16736 194.435905 
L 210.924799 194.851917 
L 210.677957 195.267388 
L 210.42684 195.68231 
L 210.171454 196.096676 
L 209.911806 196.51048 
L 209.647904 196.923713 
L 209.379753 197.33637 
L 209.107361 197.748442 
L 208.830736 198.159922 
L 208.549885 198.570805 
L 208.264815 198.981082 
L 207.975534 199.390747 
L 207.68205 199.799792 
L 207.384371 200.208212 
L 207.082506 200.615998 
L 206.776462 201.023145 
L 206.466247 201.429645 
L 206.151872 201.835491 
L 205.833344 202.240677 
L 205.510671 202.645196 
L 205.183864 203.049042 
L 204.852932 203.452207 
L 204.517882 203.854685 
L 204.178726 204.256469 
L 203.835472 204.657553 
L 203.488131 205.057931 
L 203.136711 205.457595 
" clip-path="url(#p411acfac98)" style="fill: none; stroke: #b7b2d0; stroke-opacity: 0.7; stroke-width: 3; stroke-linecap: square"/>
   </g>
   <g id="line2d_27">
    <path d="M 131.188419 75.054779 
L 131.444788 76.429725 
L 131.713007 77.808045 
L 131.993082 79.189642 
L 132.285019 80.57442 
L 132.588821 81.962281 
L 132.90449 83.353127 
L 133.232027 84.746861 
L 133.57143 86.143381 
L 133.922695 87.542589 
L 134.285817 88.944383 
L 134.66079 90.348663 
L 135.047603 91.755325 
L 135.446248 93.164268 
L 135.85671 94.575388 
L 136.278976 95.988582 
L 136.71303 97.403746 
L 137.158853 98.820775 
L 137.616427 100.239564 
L 138.085729 101.660007 
L 138.566737 103.081998 
L 139.059424 104.505432 
L 139.563765 105.930201 
L 140.07973 107.356199 
L 140.607289 108.783318 
L 141.146409 110.211452 
L 141.697057 111.640491 
L 142.259196 113.070328 
L 142.832789 114.500855 
L 143.417797 115.931964 
L 144.014178 117.363545 
L 144.621889 118.795491 
L 145.240886 120.227693 
L 145.871122 121.660042 
L 146.51255 123.09243 
L 147.165119 124.524747 
L 147.828779 125.956884 
L 148.503476 127.388734 
L 149.189155 128.820188 
L 149.885759 130.251137 
L 150.593232 131.681473 
L 151.311513 133.111088 
L 152.040541 134.539873 
L 152.780253 135.967722 
L 153.530585 137.394526 
L 154.291471 138.820178 
L 155.062844 140.244572 
L 155.844634 141.667601 
L 156.636771 143.089158 
L 157.439184 144.509139 
L 158.251799 145.927436 
L 159.074541 147.343946 
L 159.907334 148.758564 
L 160.750101 150.171185 
L 161.602763 151.581707 
L 162.46524 152.990026 
L 163.33745 154.39604 
L 164.21931 155.799646 
L 165.110737 157.200744 
L 166.011645 158.599233 
L 166.921947 159.995012 
L 167.841557 161.387983 
L 168.770386 162.778048 
L 169.708342 164.165107 
L 170.655336 165.549064 
L 171.611276 166.929822 
L 172.576068 168.307287 
L 173.549617 169.681362 
L 174.53183 171.051954 
L 175.52261 172.41897 
L 176.521859 173.782318 
L 177.52948 175.141906 
L 178.545374 176.497644 
L 179.569441 177.849442 
L 180.601581 179.197211 
L 181.641693 180.540865 
L 182.689674 181.880315 
L 183.745422 183.215477 
L 184.808832 184.546265 
L 185.879802 185.872597 
L 186.958226 187.194389 
L 188.043999 188.511559 
L 189.137014 189.824028 
L 190.237165 191.131715 
L 191.344345 192.434543 
L 192.458447 193.732434 
L 193.579362 195.025311 
L 194.706981 196.313101 
L 195.841196 197.595728 
L 196.981898 198.873121 
L 198.128977 200.145207 
L 199.282322 201.411916 
L 200.441824 202.673179 
L 201.607372 203.928928 
L 202.778854 205.179095 
L 203.956161 206.423616 
L 205.139181 207.662426 
L 206.327803 208.895461 
L 207.521915 210.122659 
L 208.721405 211.343961 
" clip-path="url(#p411acfac98)" style="fill: none; stroke: #84c3b7; stroke-opacity: 0.7; stroke-width: 3; stroke-linecap: square"/>
   </g>
   <g id="line2d_28">
    <path d="M 225.126945 187.177568 
L 225.035851 187.355055 
L 224.947481 187.532271 
L 224.861836 187.709213 
L 224.778918 187.885879 
L 224.698729 188.062266 
L 224.621272 188.238371 
L 224.546547 188.414192 
L 224.474557 188.589727 
L 224.405303 188.764972 
L 224.338786 188.939925 
L 224.275008 189.114583 
L 224.21397 189.288944 
L 224.155674 189.463004 
L 224.10012 189.636763 
L 224.047309 189.810216 
L 223.997243 189.983362 
L 223.949923 190.156197 
L 223.905349 190.32872 
L 223.863522 190.500927 
L 223.824443 190.672817 
L 223.788112 190.844386 
L 223.75453 191.015632 
L 223.723697 191.186553 
L 223.695614 191.357145 
L 223.670281 191.527408 
L 223.647698 191.697338 
L 223.627864 191.866932 
L 223.610782 192.036188 
L 223.596449 192.205104 
L 223.584866 192.373678 
L 223.576033 192.541906 
L 223.569949 192.709787 
L 223.566615 192.877318 
L 223.566029 193.044497 
L 223.568191 193.21132 
L 223.5731 193.377787 
L 223.580757 193.543894 
L 223.591159 193.70964 
L 223.604306 193.875021 
L 223.620198 194.040036 
L 223.638832 194.204682 
L 223.660209 194.368957 
L 223.684326 194.532859 
L 223.711183 194.696385 
L 223.740779 194.859533 
L 223.773111 195.022301 
L 223.808178 195.184686 
L 223.845979 195.346687 
L 223.886512 195.508301 
L 223.929775 195.669525 
L 223.975767 195.830359 
L 224.024485 195.990799 
L 224.075928 196.150843 
L 224.130094 196.31049 
L 224.186979 196.469736 
L 224.246583 196.628581 
L 224.308903 196.787021 
L 224.373937 196.945055 
L 224.441681 197.102681 
L 224.512134 197.259896 
L 224.585293 197.416699 
L 224.661155 197.573087 
L 224.739718 197.729059 
L 224.820978 197.884612 
L 224.904934 198.039744 
L 224.99158 198.194454 
L 225.080916 198.348739 
L 225.172937 198.502598 
L 225.267641 198.656028 
L 225.365023 198.809028 
L 225.465082 198.961595 
L 225.567812 199.113728 
L 225.673211 199.265425 
L 225.781276 199.416684 
L 225.892002 199.567503 
L 226.005385 199.71788 
L 226.121423 199.867814 
L 226.240111 200.017302 
L 226.361444 200.166343 
L 226.48542 200.314935 
L 226.612034 200.463076 
L 226.741282 200.610765 
L 226.873159 200.757999 
L 227.007661 200.904778 
L 227.144785 201.051098 
L 227.284525 201.19696 
L 227.426876 201.34236 
L 227.571835 201.487297 
L 227.719396 201.63177 
L 227.869556 201.775777 
L 228.022308 201.919317 
L 228.177649 202.062387 
L 228.335573 202.204986 
L 228.496075 202.347113 
L 228.65915 202.488766 
L 228.824793 202.629943 
L 228.992999 202.770644 
L 229.163763 202.910865 
L 229.337078 203.050607 
" clip-path="url(#p411acfac98)" style="fill: none; stroke: #7da6c6; stroke-opacity: 0.7; stroke-width: 3; stroke-linecap: square"/>
   </g>
   <g id="Path3DCollection_1">
    <path d="M 200.375485 212.944099 
C 200.968497 212.944099 201.537301 212.708493 201.956624 212.28917 
C 202.375947 211.869847 202.611553 211.301044 202.611553 210.708031 
C 202.611553 210.115019 202.375947 209.546215 201.956624 209.126893 
C 201.537301 208.70757 200.968497 208.471963 200.375485 208.471963 
C 199.782473 208.471963 199.213669 208.70757 198.794346 209.126893 
C 198.375023 209.546215 198.139417 210.115019 198.139417 210.708031 
C 198.139417 211.301044 198.375023 211.869847 198.794346 212.28917 
C 199.213669 212.708493 199.782473 212.944099 200.375485 212.944099 
z
" clip-path="url(#p411acfac98)" style="fill: #84c3b7; fill-opacity: 0.165; stroke: #84c3b7; stroke-opacity: 0.165"/>
    <path d="M 252.371099 198.841588 
C 252.964111 198.841588 253.532915 198.605982 253.952238 198.186659 
C 254.371561 197.767336 254.607167 197.198532 254.607167 196.60552 
C 254.607167 196.012508 254.371561 195.443704 253.952238 195.024381 
C 253.532915 194.605058 252.964111 194.369452 252.371099 194.369452 
C 251.778087 194.369452 251.209283 194.605058 250.78996 195.024381 
C 250.370638 195.443704 250.135031 196.012508 250.135031 196.60552 
C 250.135031 197.198532 250.370638 197.767336 250.78996 198.186659 
C 251.209283 198.605982 251.778087 198.841588 252.371099 198.841588 
z
" clip-path="url(#p411acfac98)" style="fill: #e68b81; fill-opacity: 0.220432; stroke: #e68b81; stroke-opacity: 0.220432"/>
    <path d="M 252.334838 198.390816 
C 252.927851 198.390816 253.496654 198.155209 253.915977 197.735886 
C 254.3353 197.316563 254.570906 196.74776 254.570906 196.154748 
C 254.570906 195.561735 254.3353 194.992932 253.915977 194.573609 
C 253.496654 194.154286 252.927851 193.91868 252.334838 193.91868 
C 251.741826 193.91868 251.173023 194.154286 250.7537 194.573609 
C 250.334377 194.992932 250.09877 195.561735 250.09877 196.154748 
C 250.09877 196.74776 250.334377 197.316563 250.7537 197.735886 
C 251.173023 198.155209 251.741826 198.390816 252.334838 198.390816 
z
" clip-path="url(#p411acfac98)" style="fill: #e68b81; fill-opacity: 0.227097; stroke: #e68b81; stroke-opacity: 0.227097"/>
    <path d="M 284.710471 63.960876 
C 286.101208 63.960876 287.435171 63.40833 288.418571 62.424931 
C 289.40197 61.441531 289.954516 60.107568 289.954516 58.716832 
C 289.954516 57.326095 289.40197 55.992132 288.418571 55.008732 
C 287.435171 54.025333 286.101208 53.472787 284.710471 53.472787 
C 283.319735 53.472787 281.985772 54.025333 281.002372 55.008732 
C 280.018973 55.992132 279.466427 57.326095 279.466427 58.716832 
C 279.466427 60.107568 280.018973 61.441531 281.002372 62.424931 
C 281.985772 63.40833 283.319735 63.960876 284.710471 63.960876 
z
" clip-path="url(#p411acfac98)" style="fill: #e68b81; fill-opacity: 0.440727; stroke: #e68b81; stroke-opacity: 0.440727"/>
    <path d="M 257.513315 113.747903 
C 258.622739 113.747903 259.686873 113.307125 260.471354 112.522643 
C 261.255836 111.738162 261.696615 110.674027 261.696615 109.564603 
C 261.696615 108.455179 261.255836 107.391045 260.471354 106.606563 
C 259.686873 105.822082 258.622739 105.381303 257.513315 105.381303 
C 256.40389 105.381303 255.339756 105.822082 254.555275 106.606563 
C 253.770793 107.391045 253.330014 108.455179 253.330014 109.564603 
C 253.330014 110.674027 253.770793 111.738162 254.555275 112.522643 
C 255.339756 113.307125 256.40389 113.747903 257.513315 113.747903 
z
" clip-path="url(#p411acfac98)" style="fill: #e68b81; fill-opacity: 0.400262; stroke: #e68b81; stroke-opacity: 0.400262"/>
    <path d="M 244.780706 159.388148 
C 245.619352 159.388148 246.423762 159.054951 247.016774 158.461938 
C 247.609786 157.868926 247.942983 157.064516 247.942983 156.22587 
C 247.942983 155.387225 247.609786 154.582815 247.016774 153.989802 
C 246.423762 153.39679 245.619352 153.063593 244.780706 153.063593 
C 243.94206 153.063593 243.13765 153.39679 242.544638 153.989802 
C 241.951626 154.582815 241.618428 155.387225 241.618428 156.22587 
C 241.618428 157.064516 241.951626 157.868926 242.544638 158.461938 
C 243.13765 159.054951 243.94206 159.388148 244.780706 159.388148 
z
" clip-path="url(#p411acfac98)" style="fill: #e68b81; fill-opacity: 0.336144; stroke: #e68b81; stroke-opacity: 0.336144"/>
    <path d="M 208.335227 202.324558 
C 208.928239 202.324558 209.497043 202.088951 209.916366 201.669629 
C 210.335689 201.250306 210.571295 200.681502 210.571295 200.08849 
C 210.571295 199.495478 210.335689 198.926674 209.916366 198.507351 
C 209.497043 198.088028 208.928239 197.852422 208.335227 197.852422 
C 207.742215 197.852422 207.173411 198.088028 206.754088 198.507351 
C 206.334766 198.926674 206.099159 199.495478 206.099159 200.08849 
C 206.099159 200.681502 206.334766 201.250306 206.754088 201.669629 
C 207.173411 202.088951 207.742215 202.324558 208.335227 202.324558 
z
" clip-path="url(#p411acfac98)" style="fill: #84c3b7; fill-opacity: 0.336; stroke: #84c3b7; stroke-opacity: 0.336"/>
    <path d="M 258.587862 144.501462 
C 259.426508 144.501462 260.230918 144.168264 260.82393 143.575252 
C 261.416942 142.98224 261.75014 142.17783 261.75014 141.339184 
C 261.75014 140.500538 261.416942 139.696128 260.82393 139.103116 
C 260.230918 138.510104 259.426508 138.176907 258.587862 138.176907 
C 257.749216 138.176907 256.944806 138.510104 256.351794 139.103116 
C 255.758782 139.696128 255.425584 140.500538 255.425584 141.339184 
C 255.425584 142.17783 255.758782 142.98224 256.351794 143.575252 
C 256.944806 144.168264 257.749216 144.501462 258.587862 144.501462 
z
" clip-path="url(#p411acfac98)" style="fill: #e68b81; fill-opacity: 0.407769; stroke: #e68b81; stroke-opacity: 0.407769"/>
    <path d="M 150.765425 156.783374 
C 151.604071 156.783374 152.408481 156.450177 153.001493 155.857164 
C 153.594505 155.264152 153.927703 154.459742 153.927703 153.621096 
C 153.927703 152.782451 153.594505 151.978041 153.001493 151.385028 
C 152.408481 150.792016 151.604071 150.458819 150.765425 150.458819 
C 149.926779 150.458819 149.122369 150.792016 148.529357 151.385028 
C 147.936345 151.978041 147.603147 152.782451 147.603147 153.621096 
C 147.603147 154.459742 147.936345 155.264152 148.529357 155.857164 
C 149.122369 156.450177 149.926779 156.783374 150.765425 156.783374 
z
" clip-path="url(#p411acfac98)" style="fill: #84c3b7; fill-opacity: 0.458385; stroke: #84c3b7; stroke-opacity: 0.458385"/>
    <path d="M 129.557916 80.315794 
C 130.948653 80.315794 132.282616 79.763248 133.266015 78.779849 
C 134.249415 77.796449 134.80196 76.462486 134.80196 75.07175 
C 134.80196 73.681013 134.249415 72.34705 133.266015 71.36365 
C 132.282616 70.380251 130.948653 69.827705 129.557916 69.827705 
C 128.167179 69.827705 126.833216 70.380251 125.849817 71.36365 
C 124.866418 72.34705 124.313872 73.681013 124.313872 75.07175 
C 124.313872 76.462486 124.866418 77.796449 125.849817 78.779849 
C 126.833216 79.763248 128.167179 80.315794 129.557916 80.315794 
z
" clip-path="url(#p411acfac98)" style="fill: #84c3b7; fill-opacity: 0.753077; stroke: #84c3b7; stroke-opacity: 0.753077"/>
    <path d="M 219.194108 175.101939 
C 220.584845 175.101939 221.918808 174.549393 222.902207 173.565994 
C 223.885607 172.582594 224.438152 171.248631 224.438152 169.857894 
C 224.438152 168.467158 223.885607 167.133195 222.902207 166.149795 
C 221.918808 165.166396 220.584845 164.61385 219.194108 164.61385 
C 217.803371 164.61385 216.469408 165.166396 215.486009 166.149795 
C 214.502609 167.133195 213.950064 168.467158 213.950064 169.857894 
C 213.950064 171.248631 214.502609 172.582594 215.486009 173.565994 
C 216.469408 174.549393 217.803371 175.101939 219.194108 175.101939 
z
" clip-path="url(#p411acfac98)" style="fill: #b7b2d0; fill-opacity: 0.775498; stroke: #b7b2d0; stroke-opacity: 0.775498"/>
    <path d="M 201.11742 203.77657 
C 201.710432 203.77657 202.279236 203.540964 202.698559 203.121641 
C 203.117882 202.702318 203.353488 202.133514 203.353488 201.540502 
C 203.353488 200.94749 203.117882 200.378686 202.698559 199.959363 
C 202.279236 199.54004 201.710432 199.304434 201.11742 199.304434 
C 200.524408 199.304434 199.955604 199.54004 199.536281 199.959363 
C 199.116959 200.378686 198.881352 200.94749 198.881352 201.540502 
C 198.881352 202.133514 199.116959 202.702318 199.536281 203.121641 
C 199.955604 203.540964 200.524408 203.77657 201.11742 203.77657 
z
" clip-path="url(#p411acfac98)" style="fill: #b7b2d0; fill-opacity: 0.433687; stroke: #b7b2d0; stroke-opacity: 0.433687"/>
    <path d="M 142.321852 117.952176 
C 143.431276 117.952176 144.49541 117.511397 145.279892 116.726916 
C 146.064373 115.942434 146.505152 114.8783 146.505152 113.768876 
C 146.505152 112.659452 146.064373 111.595317 145.279892 110.810836 
C 144.49541 110.026355 143.431276 109.585576 142.321852 109.585576 
C 141.212428 109.585576 140.148293 110.026355 139.363812 110.810836 
C 138.57933 111.595317 138.138552 112.659452 138.138552 113.768876 
C 138.138552 114.8783 138.57933 115.942434 139.363812 116.726916 
C 140.148293 117.511397 141.212428 117.952176 142.321852 117.952176 
z
" clip-path="url(#p411acfac98)" style="fill: #84c3b7; fill-opacity: 0.636604; stroke: #84c3b7; stroke-opacity: 0.636604"/>
    <path d="M 207.040503 207.875676 
C 207.633515 207.875676 208.202318 207.64007 208.621641 207.220747 
C 209.040964 206.801424 209.276571 206.23262 209.276571 205.639608 
C 209.276571 205.046596 209.040964 204.477792 208.621641 204.058469 
C 208.202318 203.639146 207.633515 203.40354 207.040503 203.40354 
C 206.44749 203.40354 205.878687 203.639146 205.459364 204.058469 
C 205.040041 204.477792 204.804435 205.046596 204.804435 205.639608 
C 204.804435 206.23262 205.040041 206.801424 205.459364 207.220747 
C 205.878687 207.64007 206.44749 207.875676 207.040503 207.875676 
z
" clip-path="url(#p411acfac98)" style="fill: #b7b2d0; fill-opacity: 0.443991; stroke: #b7b2d0; stroke-opacity: 0.443991"/>
    <path d="M 216.34753 168.888882 
C 217.738266 168.888882 219.072229 168.336337 220.055629 167.352937 
C 221.039028 166.369538 221.591574 165.035575 221.591574 163.644838 
C 221.591574 162.254101 221.039028 160.920138 220.055629 159.936739 
C 219.072229 158.953339 217.738266 158.400794 216.34753 158.400794 
C 214.956793 158.400794 213.62283 158.953339 212.63943 159.936739 
C 211.656031 160.920138 211.103485 162.254101 211.103485 163.644838 
C 211.103485 165.035575 211.656031 166.369538 212.63943 167.352937 
C 213.62283 168.336337 214.956793 168.888882 216.34753 168.888882 
z
" clip-path="url(#p411acfac98)" style="fill: #b7b2d0; fill-opacity: 0.819472; stroke: #b7b2d0; stroke-opacity: 0.819472"/>
    <path d="M 230.008756 205.375263 
C 230.601768 205.375263 231.170571 205.139657 231.589894 204.720334 
C 232.009217 204.301011 232.244824 203.732208 232.244824 203.139195 
C 232.244824 202.546183 232.009217 201.977379 231.589894 201.558057 
C 231.170571 201.138734 230.601768 200.903127 230.008756 200.903127 
C 229.415743 200.903127 228.84694 201.138734 228.427617 201.558057 
C 228.008294 201.977379 227.772688 202.546183 227.772688 203.139195 
C 227.772688 203.732208 228.008294 204.301011 228.427617 204.720334 
C 228.84694 205.139657 229.415743 205.375263 230.008756 205.375263 
z
" clip-path="url(#p411acfac98)" style="fill: #7da6c6; fill-opacity: 0.452269; stroke: #7da6c6; stroke-opacity: 0.452269"/>
    <path d="M 227.107097 204.416703 
C 227.700109 204.416703 228.268913 204.181097 228.688236 203.761774 
C 229.107559 203.342451 229.343165 202.773647 229.343165 202.180635 
C 229.343165 201.587623 229.107559 201.018819 228.688236 200.599496 
C 228.268913 200.180173 227.700109 199.944567 227.107097 199.944567 
C 226.514085 199.944567 225.945281 200.180173 225.525958 200.599496 
C 225.106635 201.018819 224.871029 201.587623 224.871029 202.180635 
C 224.871029 202.773647 225.106635 203.342451 225.525958 203.761774 
C 225.945281 204.181097 226.514085 204.416703 227.107097 204.416703 
z
" clip-path="url(#p411acfac98)" style="fill: #7da6c6; fill-opacity: 0.453701; stroke: #7da6c6; stroke-opacity: 0.453701"/>
    <path d="M 217.115546 197.747031 
C 217.954192 197.747031 218.758602 197.413833 219.351614 196.820821 
C 219.944626 196.227809 220.277824 195.423399 220.277824 194.584753 
C 220.277824 193.746107 219.944626 192.941697 219.351614 192.348685 
C 218.758602 191.755673 217.954192 191.422476 217.115546 191.422476 
C 216.2769 191.422476 215.47249 191.755673 214.879478 192.348685 
C 214.286466 192.941697 213.953268 193.746107 213.953268 194.584753 
C 213.953268 195.423399 214.286466 196.227809 214.879478 196.820821 
C 215.47249 197.413833 216.2769 197.747031 217.115546 197.747031 
z
" clip-path="url(#p411acfac98)" style="fill: #b7b2d0; fill-opacity: 0.536252; stroke: #b7b2d0; stroke-opacity: 0.536252"/>
    <path d="M 204.4416 198.886058 
C 205.280246 198.886058 206.084656 198.552861 206.677668 197.959849 
C 207.27068 197.366836 207.603878 196.562426 207.603878 195.723781 
C 207.603878 194.885135 207.27068 194.080725 206.677668 193.487713 
C 206.084656 192.8947 205.280246 192.561503 204.4416 192.561503 
C 203.602954 192.561503 202.798544 192.8947 202.205532 193.487713 
C 201.61252 194.080725 201.279322 194.885135 201.279322 195.723781 
C 201.279322 196.562426 201.61252 197.366836 202.205532 197.959849 
C 202.798544 198.552861 203.602954 198.886058 204.4416 198.886058 
z
" clip-path="url(#p411acfac98)" style="fill: #b7b2d0; fill-opacity: 0.54067; stroke: #b7b2d0; stroke-opacity: 0.54067"/>
    <path d="M 141.087441 94.987395 
C 142.478178 94.987395 143.812141 94.43485 144.79554 93.45145 
C 145.77894 92.468051 146.331485 91.134088 146.331485 89.743351 
C 146.331485 88.352614 145.77894 87.018651 144.79554 86.035252 
C 143.812141 85.051852 142.478178 84.499307 141.087441 84.499307 
C 139.696704 84.499307 138.362741 85.051852 137.379342 86.035252 
C 136.395942 87.018651 135.843397 88.352614 135.843397 89.743351 
C 135.843397 91.134088 136.395942 92.468051 137.379342 93.45145 
C 138.362741 94.43485 139.696704 94.987395 141.087441 94.987395 
z
" clip-path="url(#p411acfac98)" style="fill: #84c3b7; fill-opacity: 0.836256; stroke: #84c3b7; stroke-opacity: 0.836256"/>
    <path d="M 177.198433 157.868101 
C 178.037079 157.868101 178.841489 157.534903 179.434501 156.941891 
C 180.027513 156.348879 180.360711 155.544469 180.360711 154.705823 
C 180.360711 153.867177 180.027513 153.062767 179.434501 152.469755 
C 178.841489 151.876743 178.037079 151.543545 177.198433 151.543545 
C 176.359787 151.543545 175.555377 151.876743 174.962365 152.469755 
C 174.369353 153.062767 174.036155 153.867177 174.036155 154.705823 
C 174.036155 155.544469 174.369353 156.348879 174.962365 156.941891 
C 175.555377 157.534903 176.359787 157.868101 177.198433 157.868101 
z
" clip-path="url(#p411acfac98)" style="fill: #84c3b7; fill-opacity: 0.546252; stroke: #84c3b7; stroke-opacity: 0.546252"/>
    <path d="M 284.486259 39.7704 
C 285.876996 39.7704 287.210959 39.217854 288.194359 38.234455 
C 289.177758 37.251055 289.730304 35.917092 289.730304 34.526356 
C 289.730304 33.135619 289.177758 31.801656 288.194359 30.818256 
C 287.210959 29.834857 285.876996 29.282311 284.486259 29.282311 
C 283.095523 29.282311 281.76156 29.834857 280.77816 30.818256 
C 279.794761 31.801656 279.242215 33.135619 279.242215 34.526356 
C 279.242215 35.917092 279.794761 37.251055 280.77816 38.234455 
C 281.76156 39.217854 283.095523 39.7704 284.486259 39.7704 
z
" clip-path="url(#p411acfac98)" style="fill: #e68b81; fill-opacity: 0.872704; stroke: #e68b81; stroke-opacity: 0.872704"/>
    <path d="M 225.31787 187.881122 
C 226.427294 187.881122 227.491428 187.440343 228.27591 186.655862 
C 229.060391 185.871381 229.50117 184.807246 229.50117 183.697822 
C 229.50117 182.588398 229.060391 181.524264 228.27591 180.739782 
C 227.491428 179.955301 226.427294 179.514522 225.31787 179.514522 
C 224.208445 179.514522 223.144311 179.955301 222.35983 180.739782 
C 221.575348 181.524264 221.134569 182.588398 221.134569 183.697822 
C 221.134569 184.807246 221.575348 185.871381 222.35983 186.655862 
C 223.144311 187.440343 224.208445 187.881122 225.31787 187.881122 
z
" clip-path="url(#p411acfac98)" style="fill: #b7b2d0; fill-opacity: 0.710195; stroke: #b7b2d0; stroke-opacity: 0.710195"/>
    <path d="M 207.448568 186.220401 
C 208.557993 186.220401 209.622127 185.779622 210.406608 184.995141 
C 211.19109 184.21066 211.631868 183.146525 211.631868 182.037101 
C 211.631868 180.927677 211.19109 179.863543 210.406608 179.079061 
C 209.622127 178.29458 208.557993 177.853801 207.448568 177.853801 
C 206.339144 177.853801 205.27501 178.29458 204.490528 179.079061 
C 203.706047 179.863543 203.265268 180.927677 203.265268 182.037101 
C 203.265268 183.146525 203.706047 184.21066 204.490528 184.995141 
C 205.27501 185.779622 206.339144 186.220401 207.448568 186.220401 
z
" clip-path="url(#p411acfac98)" style="fill: #b7b2d0; fill-opacity: 0.710949; stroke: #b7b2d0; stroke-opacity: 0.710949"/>
    <path d="M 225.258831 200.453414 
C 226.097477 200.453414 226.901887 200.120217 227.494899 199.527204 
C 228.087911 198.934192 228.421109 198.129782 228.421109 197.291137 
C 228.421109 196.452491 228.087911 195.648081 227.494899 195.055069 
C 226.901887 194.462056 226.097477 194.128859 225.258831 194.128859 
C 224.420185 194.128859 223.615775 194.462056 223.022763 195.055069 
C 222.429751 195.648081 222.096554 196.452491 222.096554 197.291137 
C 222.096554 198.129782 222.429751 198.934192 223.022763 199.527204 
C 223.615775 200.120217 224.420185 200.453414 225.258831 200.453414 
z
" clip-path="url(#p411acfac98)" style="fill: #7da6c6; fill-opacity: 0.588523; stroke: #7da6c6; stroke-opacity: 0.588523"/>
    <path d="M 224.931997 200.383874 
C 225.770643 200.383874 226.575053 200.050677 227.168065 199.457665 
C 227.761077 198.864653 228.094275 198.060243 228.094275 197.221597 
C 228.094275 196.382951 227.761077 195.578541 227.168065 194.985529 
C 226.575053 194.392517 225.770643 194.059319 224.931997 194.059319 
C 224.093351 194.059319 223.288941 194.392517 222.695929 194.985529 
C 222.102917 195.578541 221.769719 196.382951 221.769719 197.221597 
C 221.769719 198.060243 222.102917 198.864653 222.695929 199.457665 
C 223.288941 200.050677 224.093351 200.383874 224.931997 200.383874 
z
" clip-path="url(#p411acfac98)" style="fill: #7da6c6; fill-opacity: 0.595509; stroke: #7da6c6; stroke-opacity: 0.595509"/>
    <path d="M 265.6397 86.834803 
C 266.749124 86.834803 267.813258 86.394024 268.59774 85.609543 
C 269.382221 84.825061 269.823 83.760927 269.823 82.651503 
C 269.823 81.542079 269.382221 80.477944 268.59774 79.693463 
C 267.813258 78.908982 266.749124 78.468203 265.6397 78.468203 
C 264.530276 78.468203 263.466141 78.908982 262.68166 79.693463 
C 261.897179 80.477944 261.4564 81.542079 261.4564 82.651503 
C 261.4564 83.760927 261.897179 84.825061 262.68166 85.609543 
C 263.466141 86.394024 264.530276 86.834803 265.6397 86.834803 
z
" clip-path="url(#p411acfac98)" style="fill: #e68b81; fill-opacity: 0.735422; stroke: #e68b81; stroke-opacity: 0.735422"/>
    <path d="M 226.318563 192.338331 
C 227.7093 192.338331 229.043263 191.785786 230.026663 190.802386 
C 231.010062 189.818987 231.562608 188.485024 231.562608 187.094287 
C 231.562608 185.70355 231.010062 184.369587 230.026663 183.386188 
C 229.043263 182.402788 227.7093 181.850243 226.318563 181.850243 
C 224.927827 181.850243 223.593864 182.402788 222.610464 183.386188 
C 221.627065 184.369587 221.074519 185.70355 221.074519 187.094287 
C 221.074519 188.485024 221.627065 189.818987 222.610464 190.802386 
C 223.593864 191.785786 224.927827 192.338331 226.318563 192.338331 
z
" clip-path="url(#p411acfac98)" style="fill: #7da6c6; fill-opacity: 0.93581; stroke: #7da6c6; stroke-opacity: 0.93581"/>
    <path d="M 224.871164 192.952342 
C 226.2619 192.952342 227.595864 192.399797 228.579263 191.416397 
C 229.562662 190.432998 230.115208 189.099035 230.115208 187.708298 
C 230.115208 186.317561 229.562662 184.983598 228.579263 184.000199 
C 227.595864 183.016799 226.2619 182.464254 224.871164 182.464254 
C 223.480427 182.464254 222.146464 183.016799 221.163064 184.000199 
C 220.179665 184.983598 219.627119 186.317561 219.627119 187.708298 
C 219.627119 189.099035 220.179665 190.432998 221.163064 191.416397 
C 222.146464 192.399797 223.480427 192.952342 224.871164 192.952342 
z
" clip-path="url(#p411acfac98)" style="fill: #7da6c6; fill-opacity: 0.953657; stroke: #7da6c6; stroke-opacity: 0.953657"/>
    <path d="M 226.503898 196.780896 
C 227.613322 196.780896 228.677456 196.340117 229.461937 195.555636 
C 230.246419 194.771155 230.687198 193.70702 230.687198 192.597596 
C 230.687198 191.488172 230.246419 190.424038 229.461937 189.639556 
C 228.677456 188.855075 227.613322 188.414296 226.503898 188.414296 
C 225.394473 188.414296 224.330339 188.855075 223.545858 189.639556 
C 222.761376 190.424038 222.320597 191.488172 222.320597 192.597596 
C 222.320597 193.70702 222.761376 194.771155 223.545858 195.555636 
C 224.330339 196.340117 225.394473 196.780896 226.503898 196.780896 
z
" clip-path="url(#p411acfac98)" style="fill: #7da6c6; fill-opacity: 0.767079; stroke: #7da6c6; stroke-opacity: 0.767079"/>
    <path d="M 219.072143 195.502849 
C 220.181567 195.502849 221.245701 195.06207 222.030183 194.277589 
C 222.814664 193.493107 223.255443 192.428973 223.255443 191.319549 
C 223.255443 190.210124 222.814664 189.14599 222.030183 188.361509 
C 221.245701 187.577027 220.181567 187.136249 219.072143 187.136249 
C 217.962719 187.136249 216.898584 187.577027 216.114103 188.361509 
C 215.329622 189.14599 214.888843 190.210124 214.888843 191.319549 
C 214.888843 192.428973 215.329622 193.493107 216.114103 194.277589 
C 216.898584 195.06207 217.962719 195.502849 219.072143 195.502849 
z
" clip-path="url(#p411acfac98)" style="fill: #7da6c6; fill-opacity: 0.782452; stroke: #7da6c6; stroke-opacity: 0.782452"/>
    <path d="M 136.998908 125.234527 
C 138.108332 125.234527 139.172467 124.793748 139.956948 124.009267 
C 140.74143 123.224786 141.182208 122.160651 141.182208 121.051227 
C 141.182208 119.941803 140.74143 118.877669 139.956948 118.093187 
C 139.172467 117.308706 138.108332 116.867927 136.998908 116.867927 
C 135.889484 116.867927 134.82535 117.308706 134.040868 118.093187 
C 133.256387 118.877669 132.815608 119.941803 132.815608 121.051227 
C 132.815608 122.160651 133.256387 123.224786 134.040868 124.009267 
C 134.82535 124.793748 135.889484 125.234527 136.998908 125.234527 
z
" clip-path="url(#p411acfac98)" style="fill: #84c3b7; fill-opacity: 0.8; stroke: #84c3b7; stroke-opacity: 0.8"/>
   </g>
   <g id="text_25">
    <!--  Acetone -->
    <g style="opacity: 0.95" transform="translate(288.557214 38.512432) scale(0.1 -0.1)">
     <defs>
      <path id="DejaVuSans-41" d="M 2188 4044 
L 1331 1722 
L 3047 1722 
L 2188 4044 
z
M 1831 4666 
L 2547 4666 
L 4325 0 
L 3669 0 
L 3244 1197 
L 1141 1197 
L 716 0 
L 50 0 
L 1831 4666 
z
" transform="scale(0.015625)"/>
      <path id="DejaVuSans-63" d="M 3122 3366 
L 3122 2828 
Q 2878 2963 2633 3030 
Q 2388 3097 2138 3097 
Q 1578 3097 1268 2742 
Q 959 2388 959 1747 
Q 959 1106 1268 751 
Q 1578 397 2138 397 
Q 2388 397 2633 464 
Q 2878 531 3122 666 
L 3122 134 
Q 2881 22 2623 -34 
Q 2366 -91 2075 -91 
Q 1284 -91 818 406 
Q 353 903 353 1747 
Q 353 2603 823 3093 
Q 1294 3584 2113 3584 
Q 2378 3584 2631 3529 
Q 2884 3475 3122 3366 
z
" transform="scale(0.015625)"/>
      <path id="DejaVuSans-65" d="M 3597 1894 
L 3597 1613 
L 953 1613 
Q 991 1019 1311 708 
Q 1631 397 2203 397 
Q 2534 397 2845 478 
Q 3156 559 3463 722 
L 3463 178 
Q 3153 47 2828 -22 
Q 2503 -91 2169 -91 
Q 1331 -91 842 396 
Q 353 884 353 1716 
Q 353 2575 817 3079 
Q 1281 3584 2069 3584 
Q 2775 3584 3186 3129 
Q 3597 2675 3597 1894 
z
M 3022 2063 
Q 3016 2534 2758 2815 
Q 2500 3097 2075 3097 
Q 1594 3097 1305 2825 
Q 1016 2553 972 2059 
L 3022 2063 
z
" transform="scale(0.015625)"/>
      <path id="DejaVuSans-74" d="M 1172 4494 
L 1172 3500 
L 2356 3500 
L 2356 3053 
L 1172 3053 
L 1172 1153 
Q 1172 725 1289 603 
Q 1406 481 1766 481 
L 2356 481 
L 2356 0 
L 1766 0 
Q 1100 0 847 248 
Q 594 497 594 1153 
L 594 3053 
L 172 3053 
L 172 3500 
L 594 3500 
L 594 4494 
L 1172 4494 
z
" transform="scale(0.015625)"/>
      <path id="DejaVuSans-6f" d="M 1959 3097 
Q 1497 3097 1228 2736 
Q 959 2375 959 1747 
Q 959 1119 1226 758 
Q 1494 397 1959 397 
Q 2419 397 2687 759 
Q 2956 1122 2956 1747 
Q 2956 2369 2687 2733 
Q 2419 3097 1959 3097 
z
M 1959 3584 
Q 2709 3584 3137 3096 
Q 3566 2609 3566 1747 
Q 3566 888 3137 398 
Q 2709 -91 1959 -91 
Q 1206 -91 779 398 
Q 353 888 353 1747 
Q 353 2609 779 3096 
Q 1206 3584 1959 3584 
z
" transform="scale(0.015625)"/>
      <path id="DejaVuSans-6e" d="M 3513 2113 
L 3513 0 
L 2938 0 
L 2938 2094 
Q 2938 2591 2744 2837 
Q 2550 3084 2163 3084 
Q 1697 3084 1428 2787 
Q 1159 2491 1159 1978 
L 1159 0 
L 581 0 
L 581 3500 
L 1159 3500 
L 1159 2956 
Q 1366 3272 1645 3428 
Q 1925 3584 2291 3584 
Q 2894 3584 3203 3211 
Q 3513 2838 3513 2113 
z
" transform="scale(0.015625)"/>
     </defs>
     <use xlink:href="#DejaVuSans-20"/>
     <use xlink:href="#DejaVuSans-41" transform="translate(31.787109 0)"/>
     <use xlink:href="#DejaVuSans-63" transform="translate(98.445312 0)"/>
     <use xlink:href="#DejaVuSans-65" transform="translate(153.425781 0)"/>
     <use xlink:href="#DejaVuSans-74" transform="translate(214.949219 0)"/>
     <use xlink:href="#DejaVuSans-6f" transform="translate(254.158203 0)"/>
     <use xlink:href="#DejaVuSans-6e" transform="translate(315.339844 0)"/>
     <use xlink:href="#DejaVuSans-65" transform="translate(378.71875 0)"/>
    </g>
   </g>
   <g id="text_26">
    <!--  Benzene -->
    <g style="opacity: 0.95" transform="translate(217.152366 166.307844) scale(0.1 -0.1)">
     <defs>
      <path id="DejaVuSans-42" d="M 1259 2228 
L 1259 519 
L 2272 519 
Q 2781 519 3026 730 
Q 3272 941 3272 1375 
Q 3272 1813 3026 2020 
Q 2781 2228 2272 2228 
L 1259 2228 
z
M 1259 4147 
L 1259 2741 
L 2194 2741 
Q 2656 2741 2882 2914 
Q 3109 3088 3109 3444 
Q 3109 3797 2882 3972 
Q 2656 4147 2194 4147 
L 1259 4147 
z
M 628 4666 
L 2241 4666 
Q 2963 4666 3353 4366 
Q 3744 4066 3744 3513 
Q 3744 3084 3544 2831 
Q 3344 2578 2956 2516 
Q 3422 2416 3680 2098 
Q 3938 1781 3938 1306 
Q 3938 681 3513 340 
Q 3088 0 2303 0 
L 628 0 
L 628 4666 
z
" transform="scale(0.015625)"/>
      <path id="DejaVuSans-7a" d="M 353 3500 
L 3084 3500 
L 3084 2975 
L 922 459 
L 3084 459 
L 3084 0 
L 275 0 
L 275 525 
L 2438 3041 
L 353 3041 
L 353 3500 
z
" transform="scale(0.015625)"/>
     </defs>
     <use xlink:href="#DejaVuSans-20"/>
     <use xlink:href="#DejaVuSans-42" transform="translate(31.787109 0)"/>
     <use xlink:href="#DejaVuSans-65" transform="translate(100.390625 0)"/>
     <use xlink:href="#DejaVuSans-6e" transform="translate(161.914062 0)"/>
     <use xlink:href="#DejaVuSans-7a" transform="translate(225.292969 0)"/>
     <use xlink:href="#DejaVuSans-65" transform="translate(277.783203 0)"/>
     <use xlink:href="#DejaVuSans-6e" transform="translate(339.306641 0)"/>
     <use xlink:href="#DejaVuSans-65" transform="translate(402.685547 0)"/>
    </g>
   </g>
   <g id="text_27">
    <!--  Toluene -->
    <g style="opacity: 0.95" transform="translate(131.188419 77.814154) scale(0.1 -0.1)">
     <defs>
      <path id="DejaVuSans-54" d="M -19 4666 
L 3928 4666 
L 3928 4134 
L 2272 4134 
L 2272 0 
L 1638 0 
L 1638 4134 
L -19 4134 
L -19 4666 
z
" transform="scale(0.015625)"/>
      <path id="DejaVuSans-6c" d="M 603 4863 
L 1178 4863 
L 1178 0 
L 603 0 
L 603 4863 
z
" transform="scale(0.015625)"/>
      <path id="DejaVuSans-75" d="M 544 1381 
L 544 3500 
L 1119 3500 
L 1119 1403 
Q 1119 906 1312 657 
Q 1506 409 1894 409 
Q 2359 409 2629 706 
Q 2900 1003 2900 1516 
L 2900 3500 
L 3475 3500 
L 3475 0 
L 2900 0 
L 2900 538 
Q 2691 219 2414 64 
Q 2138 -91 1772 -91 
Q 1169 -91 856 284 
Q 544 659 544 1381 
z
M 1991 3584 
L 1991 3584 
z
" transform="scale(0.015625)"/>
     </defs>
     <use xlink:href="#DejaVuSans-20"/>
     <use xlink:href="#DejaVuSans-54" transform="translate(31.787109 0)"/>
     <use xlink:href="#DejaVuSans-6f" transform="translate(75.871094 0)"/>
     <use xlink:href="#DejaVuSans-6c" transform="translate(137.052734 0)"/>
     <use xlink:href="#DejaVuSans-75" transform="translate(164.835938 0)"/>
     <use xlink:href="#DejaVuSans-65" transform="translate(228.214844 0)"/>
     <use xlink:href="#DejaVuSans-6e" transform="translate(289.738281 0)"/>
     <use xlink:href="#DejaVuSans-65" transform="translate(353.117188 0)"/>
    </g>
   </g>
   <g id="text_28">
    <!--  Formaldehyde -->
    <g style="opacity: 0.95" transform="translate(225.126945 189.936943) scale(0.1 -0.1)">
     <defs>
      <path id="DejaVuSans-46" d="M 628 4666 
L 3309 4666 
L 3309 4134 
L 1259 4134 
L 1259 2759 
L 3109 2759 
L 3109 2228 
L 1259 2228 
L 1259 0 
L 628 0 
L 628 4666 
z
" transform="scale(0.015625)"/>
      <path id="DejaVuSans-72" d="M 2631 2963 
Q 2534 3019 2420 3045 
Q 2306 3072 2169 3072 
Q 1681 3072 1420 2755 
Q 1159 2438 1159 1844 
L 1159 0 
L 581 0 
L 581 3500 
L 1159 3500 
L 1159 2956 
Q 1341 3275 1631 3429 
Q 1922 3584 2338 3584 
Q 2397 3584 2469 3576 
Q 2541 3569 2628 3553 
L 2631 2963 
z
" transform="scale(0.015625)"/>
      <path id="DejaVuSans-6d" d="M 3328 2828 
Q 3544 3216 3844 3400 
Q 4144 3584 4550 3584 
Q 5097 3584 5394 3201 
Q 5691 2819 5691 2113 
L 5691 0 
L 5113 0 
L 5113 2094 
Q 5113 2597 4934 2840 
Q 4756 3084 4391 3084 
Q 3944 3084 3684 2787 
Q 3425 2491 3425 1978 
L 3425 0 
L 2847 0 
L 2847 2094 
Q 2847 2600 2669 2842 
Q 2491 3084 2119 3084 
Q 1678 3084 1418 2786 
Q 1159 2488 1159 1978 
L 1159 0 
L 581 0 
L 581 3500 
L 1159 3500 
L 1159 2956 
Q 1356 3278 1631 3431 
Q 1906 3584 2284 3584 
Q 2666 3584 2933 3390 
Q 3200 3197 3328 2828 
z
" transform="scale(0.015625)"/>
      <path id="DejaVuSans-61" d="M 2194 1759 
Q 1497 1759 1228 1600 
Q 959 1441 959 1056 
Q 959 750 1161 570 
Q 1363 391 1709 391 
Q 2188 391 2477 730 
Q 2766 1069 2766 1631 
L 2766 1759 
L 2194 1759 
z
M 3341 1997 
L 3341 0 
L 2766 0 
L 2766 531 
Q 2569 213 2275 61 
Q 1981 -91 1556 -91 
Q 1019 -91 701 211 
Q 384 513 384 1019 
Q 384 1609 779 1909 
Q 1175 2209 1959 2209 
L 2766 2209 
L 2766 2266 
Q 2766 2663 2505 2880 
Q 2244 3097 1772 3097 
Q 1472 3097 1187 3025 
Q 903 2953 641 2809 
L 641 3341 
Q 956 3463 1253 3523 
Q 1550 3584 1831 3584 
Q 2591 3584 2966 3190 
Q 3341 2797 3341 1997 
z
" transform="scale(0.015625)"/>
      <path id="DejaVuSans-64" d="M 2906 2969 
L 2906 4863 
L 3481 4863 
L 3481 0 
L 2906 0 
L 2906 525 
Q 2725 213 2448 61 
Q 2172 -91 1784 -91 
Q 1150 -91 751 415 
Q 353 922 353 1747 
Q 353 2572 751 3078 
Q 1150 3584 1784 3584 
Q 2172 3584 2448 3432 
Q 2725 3281 2906 2969 
z
M 947 1747 
Q 947 1113 1208 752 
Q 1469 391 1925 391 
Q 2381 391 2643 752 
Q 2906 1113 2906 1747 
Q 2906 2381 2643 2742 
Q 2381 3103 1925 3103 
Q 1469 3103 1208 2742 
Q 947 2381 947 1747 
z
" transform="scale(0.015625)"/>
      <path id="DejaVuSans-68" d="M 3513 2113 
L 3513 0 
L 2938 0 
L 2938 2094 
Q 2938 2591 2744 2837 
Q 2550 3084 2163 3084 
Q 1697 3084 1428 2787 
Q 1159 2491 1159 1978 
L 1159 0 
L 581 0 
L 581 4863 
L 1159 4863 
L 1159 2956 
Q 1366 3272 1645 3428 
Q 1925 3584 2291 3584 
Q 2894 3584 3203 3211 
Q 3513 2838 3513 2113 
z
" transform="scale(0.015625)"/>
      <path id="DejaVuSans-79" d="M 2059 -325 
Q 1816 -950 1584 -1140 
Q 1353 -1331 966 -1331 
L 506 -1331 
L 506 -850 
L 844 -850 
Q 1081 -850 1212 -737 
Q 1344 -625 1503 -206 
L 1606 56 
L 191 3500 
L 800 3500 
L 1894 763 
L 2988 3500 
L 3597 3500 
L 2059 -325 
z
" transform="scale(0.015625)"/>
     </defs>
     <use xlink:href="#DejaVuSans-20"/>
     <use xlink:href="#DejaVuSans-46" transform="translate(31.787109 0)"/>
     <use xlink:href="#DejaVuSans-6f" transform="translate(85.681641 0)"/>
     <use xlink:href="#DejaVuSans-72" transform="translate(146.863281 0)"/>
     <use xlink:href="#DejaVuSans-6d" transform="translate(186.226562 0)"/>
     <use xlink:href="#DejaVuSans-61" transform="translate(283.638672 0)"/>
     <use xlink:href="#DejaVuSans-6c" transform="translate(344.917969 0)"/>
     <use xlink:href="#DejaVuSans-64" transform="translate(372.701172 0)"/>
     <use xlink:href="#DejaVuSans-65" transform="translate(436.177734 0)"/>
     <use xlink:href="#DejaVuSans-68" transform="translate(497.701172 0)"/>
     <use xlink:href="#DejaVuSans-79" transform="translate(561.080078 0)"/>
     <use xlink:href="#DejaVuSans-64" transform="translate(620.259766 0)"/>
     <use xlink:href="#DejaVuSans-65" transform="translate(683.736328 0)"/>
    </g>
   </g>
  </g>
 </g>
 <defs>
  <clipPath id="p411acfac98">
   <rect x="46.8" y="-28.8" width="316.8" height="316.8"/>
  </clipPath>
 </defs>
</svg>
