<?xml version="1.0" encoding="utf-8" standalone="no"?>
<!DOCTYPE svg PUBLIC "-//W3C//DTD SVG 1.1//EN"
  "http://www.w3.org/Graphics/SVG/1.1/DTD/svg11.dtd">
<svg xmlns:xlink="http://www.w3.org/1999/xlink" width="432pt" height="288pt" viewBox="0 0 432 288" xmlns="http://www.w3.org/2000/svg" version="1.1">
 <metadata>
  <rdf:RDF xmlns:dc="http://purl.org/dc/elements/1.1/" xmlns:cc="http://creativecommons.org/ns#" xmlns:rdf="http://www.w3.org/1999/02/22-rdf-syntax-ns#">
   <cc:Work>
    <dc:type rdf:resource="http://purl.org/dc/dcmitype/StillImage"/>
    <dc:date>2025-06-23T15:14:27.574564</dc:date>
    <dc:format>image/svg+xml</dc:format>
    <dc:creator>
     <cc:Agent>
      <dc:title>Matplotlib v3.10.1, https://matplotlib.org/</dc:title>
     </cc:Agent>
    </dc:creator>
   </cc:Work>
  </rdf:RDF>
 </metadata>
 <defs>
  <style type="text/css">*{stroke-linejoin: round; stroke-linecap: butt}</style>
 </defs>
 <g id="figure_1">
  <g id="patch_1">
   <path d="M 0 288 
L 432 288 
L 432 0 
L 0 0 
z
" style="fill: #ffffff"/>
  </g>
  <g id="patch_2">
   <path d="M 46.8 288 
L 363.6 288 
L 363.6 -28.8 
L 46.8 -28.8 
z
" style="fill: #ffffff"/>
  </g>
  <g id="pane3d_1">
   <g id="patch_3">
    <path d="M 84.098635 24.28759 
L 256.326226 29.916227 
L 337.115362 22.473095 
L 155.754436 15.901678 
" style="fill: #f2f2f2; opacity: 0.5; stroke: #f2f2f2; stroke-linejoin: miter"/>
   </g>
  </g>
  <g id="pane3d_2">
   <g id="patch_4">
    <path d="M 256.326226 29.916227 
L 256.326226 220.721611 
L 337.115362 228.164743 
L 337.115362 22.473095 
" style="fill: #e6e6e6; opacity: 0.5; stroke: #e6e6e6; stroke-linejoin: miter"/>
   </g>
  </g>
  <g id="pane3d_3">
   <g id="patch_5">
    <path d="M 84.098635 24.28759 
L 84.098635 226.350248 
L 256.326226 220.721611 
L 256.326226 29.916227 
" style="fill: #ececec; opacity: 0.5; stroke: #ececec; stroke-linejoin: miter"/>
   </g>
  </g>
  <g id="grid3d_1">
   <g id="Line3DCollection_1">
    <path d="M 84.098635 47.529113 
L 256.326226 51.862923 
L 337.115362 46.132029 
" style="fill: none; stroke: #b0b0b0; stroke-width: 0.8"/>
    <path d="M 84.098635 84.60058 
L 256.326226 86.869072 
L 337.115362 83.86929 
" style="fill: none; stroke: #b0b0b0; stroke-width: 0.8"/>
    <path d="M 84.098635 121.672048 
L 256.326226 121.875221 
L 337.115362 121.606551 
" style="fill: none; stroke: #b0b0b0; stroke-width: 0.8"/>
    <path d="M 84.098635 158.743515 
L 256.326226 156.881371 
L 337.115362 159.343812 
" style="fill: none; stroke: #b0b0b0; stroke-width: 0.8"/>
    <path d="M 84.098635 195.814983 
L 256.326226 191.88752 
L 337.115362 197.081073 
" style="fill: none; stroke: #b0b0b0; stroke-width: 0.8"/>
   </g>
  </g>
  <g id="grid3d_2">
   <g id="Line3DCollection_2">
    <path d="M 157.1616 15.952666 
L 85.42883 24.331063 
L 85.42883 226.306775 
" style="fill: none; stroke: #b0b0b0; stroke-width: 0.8"/>
    <path d="M 190.62199 17.165066 
L 117.087041 25.365697 
L 117.087041 225.272141 
" style="fill: none; stroke: #b0b0b0; stroke-width: 0.8"/>
    <path d="M 223.348651 18.350881 
L 148.103144 26.379346 
L 148.103144 224.258492 
" style="fill: none; stroke: #b0b0b0; stroke-width: 0.8"/>
    <path d="M 255.365455 19.510976 
L 178.49648 27.372643 
L 178.49648 223.265195 
" style="fill: none; stroke: #b0b0b0; stroke-width: 0.8"/>
    <path d="M 286.69525 20.646177 
L 208.285618 28.346193 
L 208.285618 222.291645 
" style="fill: none; stroke: #b0b0b0; stroke-width: 0.8"/>
    <path d="M 317.359914 21.757278 
L 237.488398 29.300581 
L 237.488398 221.337257 
" style="fill: none; stroke: #b0b0b0; stroke-width: 0.8"/>
   </g>
  </g>
  <g id="grid3d_3">
   <g id="Line3DCollection_3">
    <path d="M 269.881901 221.9705 
L 269.881901 28.667338 
L 96.075729 22.885905 
" style="fill: none; stroke: #b0b0b0; stroke-width: 0.8"/>
    <path d="M 284.305807 223.29938 
L 284.305807 27.338458 
L 108.840295 21.392062 
" style="fill: none; stroke: #b0b0b0; stroke-width: 0.8"/>
    <path d="M 299.131876 224.665311 
L 299.131876 25.972527 
L 121.982677 19.854003 
" style="fill: none; stroke: #b0b0b0; stroke-width: 0.8"/>
    <path d="M 314.377166 226.069865 
L 314.377166 24.567973 
L 135.519903 18.269735 
" style="fill: none; stroke: #b0b0b0; stroke-width: 0.8"/>
    <path d="M 330.059711 227.514703 
L 330.059711 23.123134 
L 149.470037 16.637145 
" style="fill: none; stroke: #b0b0b0; stroke-width: 0.8"/>
   </g>
  </g>
  <g id="axis3d_1">
   <g id="line2d_1">
    <path d="M 84.098635 24.28759 
L 84.098635 226.350248 
" style="fill: none; stroke: #000000; stroke-width: 0.8; stroke-linecap: square"/>
   </g>
   <g id="xtick_1">
    <g id="line2d_2">
     <path d="M 85.557057 47.565811 
L 81.177657 47.455611 
" style="fill: none; stroke: #000000; stroke-width: 0.8; stroke-linecap: square"/>
    </g>
    <g id="text_1">
     <!-- −2 -->
     <g transform="translate(59.425441 55.223087) scale(0.1 -0.1)">
      <defs>
       <path id="DejaVuSans-2212" d="M 678 2272 
L 4684 2272 
L 4684 1741 
L 678 1741 
L 678 2272 
z
" transform="scale(0.015625)"/>
       <path id="DejaVuSans-32" d="M 1228 531 
L 3431 531 
L 3431 0 
L 469 0 
L 469 531 
Q 828 903 1448 1529 
Q 2069 2156 2228 2338 
Q 2531 2678 2651 2914 
Q 2772 3150 2772 3378 
Q 2772 3750 2511 3984 
Q 2250 4219 1831 4219 
Q 1534 4219 1204 4116 
Q 875 4013 500 3803 
L 500 4441 
Q 881 4594 1212 4672 
Q 1544 4750 1819 4750 
Q 2544 4750 2975 4387 
Q 3406 4025 3406 3419 
Q 3406 3131 3298 2873 
Q 3191 2616 2906 2266 
Q 2828 2175 2409 1742 
Q 1991 1309 1228 531 
z
" transform="scale(0.015625)"/>
      </defs>
      <use xlink:href="#DejaVuSans-2212"/>
      <use xlink:href="#DejaVuSans-32" transform="translate(83.789062 0)"/>
     </g>
    </g>
   </g>
   <g id="xtick_2">
    <g id="line2d_3">
     <path d="M 85.557057 84.61979 
L 81.177657 84.562106 
" style="fill: none; stroke: #000000; stroke-width: 0.8; stroke-linecap: square"/>
    </g>
    <g id="text_2">
     <!-- 0 -->
     <g transform="translate(63.615285 92.249026) scale(0.1 -0.1)">
      <defs>
       <path id="DejaVuSans-30" d="M 2034 4250 
Q 1547 4250 1301 3770 
Q 1056 3291 1056 2328 
Q 1056 1369 1301 889 
Q 1547 409 2034 409 
Q 2525 409 2770 889 
Q 3016 1369 3016 2328 
Q 3016 3291 2770 3770 
Q 2525 4250 2034 4250 
z
M 2034 4750 
Q 2819 4750 3233 4129 
Q 3647 3509 3647 2328 
Q 3647 1150 3233 529 
Q 2819 -91 2034 -91 
Q 1250 -91 836 529 
Q 422 1150 422 2328 
Q 422 3509 836 4129 
Q 1250 4750 2034 4750 
z
" transform="scale(0.015625)"/>
      </defs>
      <use xlink:href="#DejaVuSans-30"/>
     </g>
    </g>
   </g>
   <g id="xtick_3">
    <g id="line2d_4">
     <path d="M 85.557057 121.673768 
L 81.177657 121.668602 
" style="fill: none; stroke: #000000; stroke-width: 0.8; stroke-linecap: square"/>
    </g>
    <g id="text_3">
     <!-- 2 -->
     <g transform="translate(63.615285 129.274964) scale(0.1 -0.1)">
      <use xlink:href="#DejaVuSans-32"/>
     </g>
    </g>
   </g>
   <g id="xtick_4">
    <g id="line2d_5">
     <path d="M 85.557057 158.727747 
L 81.177657 158.775097 
" style="fill: none; stroke: #000000; stroke-width: 0.8; stroke-linecap: square"/>
    </g>
    <g id="text_4">
     <!-- 4 -->
     <g transform="translate(63.615285 166.300902) scale(0.1 -0.1)">
      <defs>
       <path id="DejaVuSans-34" d="M 2419 4116 
L 825 1625 
L 2419 1625 
L 2419 4116 
z
M 2253 4666 
L 3047 4666 
L 3047 1625 
L 3713 1625 
L 3713 1100 
L 3047 1100 
L 3047 0 
L 2419 0 
L 2419 1100 
L 313 1100 
L 313 1709 
L 2253 4666 
z
" transform="scale(0.015625)"/>
      </defs>
      <use xlink:href="#DejaVuSans-34"/>
     </g>
    </g>
   </g>
   <g id="xtick_5">
    <g id="line2d_6">
     <path d="M 85.557057 195.781725 
L 81.177657 195.881592 
" style="fill: none; stroke: #000000; stroke-width: 0.8; stroke-linecap: square"/>
    </g>
    <g id="text_5">
     <!-- 6 -->
     <g transform="translate(63.615285 203.326841) scale(0.1 -0.1)">
      <defs>
       <path id="DejaVuSans-36" d="M 2113 2584 
Q 1688 2584 1439 2293 
Q 1191 2003 1191 1497 
Q 1191 994 1439 701 
Q 1688 409 2113 409 
Q 2538 409 2786 701 
Q 3034 994 3034 1497 
Q 3034 2003 2786 2293 
Q 2538 2584 2113 2584 
z
M 3366 4563 
L 3366 3988 
Q 3128 4100 2886 4159 
Q 2644 4219 2406 4219 
Q 1781 4219 1451 3797 
Q 1122 3375 1075 2522 
Q 1259 2794 1537 2939 
Q 1816 3084 2150 3084 
Q 2853 3084 3261 2657 
Q 3669 2231 3669 1497 
Q 3669 778 3244 343 
Q 2819 -91 2113 -91 
Q 1303 -91 875 529 
Q 447 1150 447 2328 
Q 447 3434 972 4092 
Q 1497 4750 2381 4750 
Q 2619 4750 2861 4703 
Q 3103 4656 3366 4563 
z
" transform="scale(0.015625)"/>
      </defs>
      <use xlink:href="#DejaVuSans-36"/>
     </g>
    </g>
   </g>
   <g id="text_6">
    <!-- PC1 (95.22%) -->
    <g transform="translate(48.352574 166.410481) rotate(-90) scale(0.12 -0.12)">
     <defs>
      <path id="DejaVuSans-50" d="M 1259 4147 
L 1259 2394 
L 2053 2394 
Q 2494 2394 2734 2622 
Q 2975 2850 2975 3272 
Q 2975 3691 2734 3919 
Q 2494 4147 2053 4147 
L 1259 4147 
z
M 628 4666 
L 2053 4666 
Q 2838 4666 3239 4311 
Q 3641 3956 3641 3272 
Q 3641 2581 3239 2228 
Q 2838 1875 2053 1875 
L 1259 1875 
L 1259 0 
L 628 0 
L 628 4666 
z
" transform="scale(0.015625)"/>
      <path id="DejaVuSans-43" d="M 4122 4306 
L 4122 3641 
Q 3803 3938 3442 4084 
Q 3081 4231 2675 4231 
Q 1875 4231 1450 3742 
Q 1025 3253 1025 2328 
Q 1025 1406 1450 917 
Q 1875 428 2675 428 
Q 3081 428 3442 575 
Q 3803 722 4122 1019 
L 4122 359 
Q 3791 134 3420 21 
Q 3050 -91 2638 -91 
Q 1578 -91 968 557 
Q 359 1206 359 2328 
Q 359 3453 968 4101 
Q 1578 4750 2638 4750 
Q 3056 4750 3426 4639 
Q 3797 4528 4122 4306 
z
" transform="scale(0.015625)"/>
      <path id="DejaVuSans-31" d="M 794 531 
L 1825 531 
L 1825 4091 
L 703 3866 
L 703 4441 
L 1819 4666 
L 2450 4666 
L 2450 531 
L 3481 531 
L 3481 0 
L 794 0 
L 794 531 
z
" transform="scale(0.015625)"/>
      <path id="DejaVuSans-20" transform="scale(0.015625)"/>
      <path id="DejaVuSans-28" d="M 1984 4856 
Q 1566 4138 1362 3434 
Q 1159 2731 1159 2009 
Q 1159 1288 1364 580 
Q 1569 -128 1984 -844 
L 1484 -844 
Q 1016 -109 783 600 
Q 550 1309 550 2009 
Q 550 2706 781 3412 
Q 1013 4119 1484 4856 
L 1984 4856 
z
" transform="scale(0.015625)"/>
      <path id="DejaVuSans-39" d="M 703 97 
L 703 672 
Q 941 559 1184 500 
Q 1428 441 1663 441 
Q 2288 441 2617 861 
Q 2947 1281 2994 2138 
Q 2813 1869 2534 1725 
Q 2256 1581 1919 1581 
Q 1219 1581 811 2004 
Q 403 2428 403 3163 
Q 403 3881 828 4315 
Q 1253 4750 1959 4750 
Q 2769 4750 3195 4129 
Q 3622 3509 3622 2328 
Q 3622 1225 3098 567 
Q 2575 -91 1691 -91 
Q 1453 -91 1209 -44 
Q 966 3 703 97 
z
M 1959 2075 
Q 2384 2075 2632 2365 
Q 2881 2656 2881 3163 
Q 2881 3666 2632 3958 
Q 2384 4250 1959 4250 
Q 1534 4250 1286 3958 
Q 1038 3666 1038 3163 
Q 1038 2656 1286 2365 
Q 1534 2075 1959 2075 
z
" transform="scale(0.015625)"/>
      <path id="DejaVuSans-35" d="M 691 4666 
L 3169 4666 
L 3169 4134 
L 1269 4134 
L 1269 2991 
Q 1406 3038 1543 3061 
Q 1681 3084 1819 3084 
Q 2600 3084 3056 2656 
Q 3513 2228 3513 1497 
Q 3513 744 3044 326 
Q 2575 -91 1722 -91 
Q 1428 -91 1123 -41 
Q 819 9 494 109 
L 494 744 
Q 775 591 1075 516 
Q 1375 441 1709 441 
Q 2250 441 2565 725 
Q 2881 1009 2881 1497 
Q 2881 1984 2565 2268 
Q 2250 2553 1709 2553 
Q 1456 2553 1204 2497 
Q 953 2441 691 2322 
L 691 4666 
z
" transform="scale(0.015625)"/>
      <path id="DejaVuSans-2e" d="M 684 794 
L 1344 794 
L 1344 0 
L 684 0 
L 684 794 
z
" transform="scale(0.015625)"/>
      <path id="DejaVuSans-25" d="M 4653 2053 
Q 4381 2053 4226 1822 
Q 4072 1591 4072 1178 
Q 4072 772 4226 539 
Q 4381 306 4653 306 
Q 4919 306 5073 539 
Q 5228 772 5228 1178 
Q 5228 1588 5073 1820 
Q 4919 2053 4653 2053 
z
M 4653 2450 
Q 5147 2450 5437 2106 
Q 5728 1763 5728 1178 
Q 5728 594 5436 251 
Q 5144 -91 4653 -91 
Q 4153 -91 3862 251 
Q 3572 594 3572 1178 
Q 3572 1766 3864 2108 
Q 4156 2450 4653 2450 
z
M 1428 4353 
Q 1159 4353 1004 4120 
Q 850 3888 850 3481 
Q 850 3069 1003 2837 
Q 1156 2606 1428 2606 
Q 1700 2606 1854 2837 
Q 2009 3069 2009 3481 
Q 2009 3884 1853 4118 
Q 1697 4353 1428 4353 
z
M 4250 4750 
L 4750 4750 
L 1831 -91 
L 1331 -91 
L 4250 4750 
z
M 1428 4750 
Q 1922 4750 2215 4408 
Q 2509 4066 2509 3481 
Q 2509 2891 2217 2550 
Q 1925 2209 1428 2209 
Q 931 2209 642 2551 
Q 353 2894 353 3481 
Q 353 4063 643 4406 
Q 934 4750 1428 4750 
z
" transform="scale(0.015625)"/>
      <path id="DejaVuSans-29" d="M 513 4856 
L 1013 4856 
Q 1481 4119 1714 3412 
Q 1947 2706 1947 2009 
Q 1947 1309 1714 600 
Q 1481 -109 1013 -844 
L 513 -844 
Q 928 -128 1133 580 
Q 1338 1288 1338 2009 
Q 1338 2731 1133 3434 
Q 928 4138 513 4856 
z
" transform="scale(0.015625)"/>
     </defs>
     <use xlink:href="#DejaVuSans-50"/>
     <use xlink:href="#DejaVuSans-43" transform="translate(60.302734 0)"/>
     <use xlink:href="#DejaVuSans-31" transform="translate(130.126953 0)"/>
     <use xlink:href="#DejaVuSans-20" transform="translate(193.75 0)"/>
     <use xlink:href="#DejaVuSans-28" transform="translate(225.537109 0)"/>
     <use xlink:href="#DejaVuSans-39" transform="translate(264.550781 0)"/>
     <use xlink:href="#DejaVuSans-35" transform="translate(328.173828 0)"/>
     <use xlink:href="#DejaVuSans-2e" transform="translate(391.796875 0)"/>
     <use xlink:href="#DejaVuSans-32" transform="translate(423.583984 0)"/>
     <use xlink:href="#DejaVuSans-32" transform="translate(487.207031 0)"/>
     <use xlink:href="#DejaVuSans-25" transform="translate(550.830078 0)"/>
     <use xlink:href="#DejaVuSans-29" transform="translate(645.849609 0)"/>
    </g>
   </g>
  </g>
  <g id="axis3d_2">
   <g id="line2d_7">
    <path d="M 256.326226 220.721611 
L 84.098635 226.350248 
" style="fill: none; stroke: #000000; stroke-width: 0.8; stroke-linecap: square"/>
   </g>
   <g id="xtick_6">
    <g id="line2d_8">
     <path d="M 85.42883 224.69097 
L 85.42883 229.538387 
" style="fill: none; stroke: #000000; stroke-width: 0.8; stroke-linecap: square"/>
    </g>
    <g id="text_7">
     <!-- −1.5 -->
     <g transform="translate(68.695395 247.371194) scale(0.1 -0.1)">
      <use xlink:href="#DejaVuSans-2212"/>
      <use xlink:href="#DejaVuSans-31" transform="translate(83.789062 0)"/>
      <use xlink:href="#DejaVuSans-2e" transform="translate(147.412109 0)"/>
      <use xlink:href="#DejaVuSans-35" transform="translate(179.199219 0)"/>
     </g>
    </g>
   </g>
   <g id="xtick_7">
    <g id="line2d_9">
     <path d="M 117.087041 223.672889 
L 117.087041 228.470644 
" style="fill: none; stroke: #000000; stroke-width: 0.8; stroke-linecap: square"/>
    </g>
    <g id="text_8">
     <!-- −1.0 -->
     <g transform="translate(100.23398 246.204764) scale(0.1 -0.1)">
      <use xlink:href="#DejaVuSans-2212"/>
      <use xlink:href="#DejaVuSans-31" transform="translate(83.789062 0)"/>
      <use xlink:href="#DejaVuSans-2e" transform="translate(147.412109 0)"/>
      <use xlink:href="#DejaVuSans-30" transform="translate(179.199219 0)"/>
     </g>
    </g>
   </g>
   <g id="xtick_8">
    <g id="line2d_10">
     <path d="M 148.103144 222.675458 
L 148.103144 227.424558 
" style="fill: none; stroke: #000000; stroke-width: 0.8; stroke-linecap: square"/>
    </g>
    <g id="text_9">
     <!-- −0.5 -->
     <g transform="translate(131.136213 245.061868) scale(0.1 -0.1)">
      <use xlink:href="#DejaVuSans-2212"/>
      <use xlink:href="#DejaVuSans-30" transform="translate(83.789062 0)"/>
      <use xlink:href="#DejaVuSans-2e" transform="translate(147.412109 0)"/>
      <use xlink:href="#DejaVuSans-35" transform="translate(179.199219 0)"/>
     </g>
    </g>
   </g>
   <g id="xtick_9">
    <g id="line2d_11">
     <path d="M 178.49648 221.698055 
L 178.49648 226.399476 
" style="fill: none; stroke: #000000; stroke-width: 0.8; stroke-linecap: square"/>
    </g>
    <g id="text_10">
     <!-- 0.0 -->
     <g transform="translate(165.611005 243.941802) scale(0.1 -0.1)">
      <use xlink:href="#DejaVuSans-30"/>
      <use xlink:href="#DejaVuSans-2e" transform="translate(63.623047 0)"/>
      <use xlink:href="#DejaVuSans-30" transform="translate(95.410156 0)"/>
     </g>
    </g>
   </g>
   <g id="xtick_10">
    <g id="line2d_12">
     <path d="M 208.285618 220.740081 
L 208.285618 225.394772 
" style="fill: none; stroke: #000000; stroke-width: 0.8; stroke-linecap: square"/>
    </g>
    <g id="text_11">
     <!-- 0.5 -->
     <g transform="translate(195.296982 242.843888) scale(0.1 -0.1)">
      <use xlink:href="#DejaVuSans-30"/>
      <use xlink:href="#DejaVuSans-2e" transform="translate(63.623047 0)"/>
      <use xlink:href="#DejaVuSans-35" transform="translate(95.410156 0)"/>
     </g>
    </g>
   </g>
   <g id="xtick_11">
    <g id="line2d_13">
     <path d="M 237.488398 219.800964 
L 237.488398 224.409844 
" style="fill: none; stroke: #000000; stroke-width: 0.8; stroke-linecap: square"/>
    </g>
    <g id="text_12">
     <!-- 1.0 -->
     <g transform="translate(224.401582 241.767476) scale(0.1 -0.1)">
      <use xlink:href="#DejaVuSans-31"/>
      <use xlink:href="#DejaVuSans-2e" transform="translate(63.623047 0)"/>
      <use xlink:href="#DejaVuSans-30" transform="translate(95.410156 0)"/>
     </g>
    </g>
   </g>
   <g id="text_13">
    <!-- PC2 (3.39%) -->
    <g transform="translate(116.179977 279.592827) rotate(-1.871839) scale(0.12 -0.12)">
     <defs>
      <path id="DejaVuSans-33" d="M 2597 2516 
Q 3050 2419 3304 2112 
Q 3559 1806 3559 1356 
Q 3559 666 3084 287 
Q 2609 -91 1734 -91 
Q 1441 -91 1130 -33 
Q 819 25 488 141 
L 488 750 
Q 750 597 1062 519 
Q 1375 441 1716 441 
Q 2309 441 2620 675 
Q 2931 909 2931 1356 
Q 2931 1769 2642 2001 
Q 2353 2234 1838 2234 
L 1294 2234 
L 1294 2753 
L 1863 2753 
Q 2328 2753 2575 2939 
Q 2822 3125 2822 3475 
Q 2822 3834 2567 4026 
Q 2313 4219 1838 4219 
Q 1578 4219 1281 4162 
Q 984 4106 628 3988 
L 628 4550 
Q 988 4650 1302 4700 
Q 1616 4750 1894 4750 
Q 2613 4750 3031 4423 
Q 3450 4097 3450 3541 
Q 3450 3153 3228 2886 
Q 3006 2619 2597 2516 
z
" transform="scale(0.015625)"/>
     </defs>
     <use xlink:href="#DejaVuSans-50"/>
     <use xlink:href="#DejaVuSans-43" transform="translate(60.302734 0)"/>
     <use xlink:href="#DejaVuSans-32" transform="translate(130.126953 0)"/>
     <use xlink:href="#DejaVuSans-20" transform="translate(193.75 0)"/>
     <use xlink:href="#DejaVuSans-28" transform="translate(225.537109 0)"/>
     <use xlink:href="#DejaVuSans-33" transform="translate(264.550781 0)"/>
     <use xlink:href="#DejaVuSans-2e" transform="translate(328.173828 0)"/>
     <use xlink:href="#DejaVuSans-33" transform="translate(359.960938 0)"/>
     <use xlink:href="#DejaVuSans-39" transform="translate(423.583984 0)"/>
     <use xlink:href="#DejaVuSans-25" transform="translate(487.207031 0)"/>
     <use xlink:href="#DejaVuSans-29" transform="translate(582.226562 0)"/>
    </g>
   </g>
  </g>
  <g id="axis3d_3">
   <g id="line2d_14">
    <path d="M 256.326226 220.721611 
L 337.115362 228.164743 
" style="fill: none; stroke: #000000; stroke-width: 0.8; stroke-linecap: square"/>
   </g>
   <g id="xtick_12">
    <g id="line2d_15">
     <path d="M 269.881901 220.424075 
L 269.881901 225.063351 
" style="fill: none; stroke: #000000; stroke-width: 0.8; stroke-linecap: square"/>
    </g>
    <g id="text_14">
     <!-- −0.2 -->
     <g transform="translate(284.026539 259.294451) rotate(-90) scale(0.1 -0.1)">
      <use xlink:href="#DejaVuSans-2212"/>
      <use xlink:href="#DejaVuSans-30" transform="translate(83.789062 0)"/>
      <use xlink:href="#DejaVuSans-2e" transform="translate(147.412109 0)"/>
      <use xlink:href="#DejaVuSans-32" transform="translate(179.199219 0)"/>
     </g>
    </g>
   </g>
   <g id="xtick_13">
    <g id="line2d_16">
     <path d="M 284.305807 221.731692 
L 284.305807 226.434755 
" style="fill: none; stroke: #000000; stroke-width: 0.8; stroke-linecap: square"/>
    </g>
    <g id="text_15">
     <!-- 0.0 -->
     <g transform="translate(298.549069 252.416957) rotate(-90) scale(0.1 -0.1)">
      <use xlink:href="#DejaVuSans-30"/>
      <use xlink:href="#DejaVuSans-2e" transform="translate(63.623047 0)"/>
      <use xlink:href="#DejaVuSans-30" transform="translate(95.410156 0)"/>
     </g>
    </g>
   </g>
   <g id="xtick_14">
    <g id="line2d_17">
     <path d="M 299.131876 223.075769 
L 299.131876 227.844395 
" style="fill: none; stroke: #000000; stroke-width: 0.8; stroke-linecap: square"/>
    </g>
    <g id="text_16">
     <!-- 0.2 -->
     <g transform="translate(313.474881 253.960867) rotate(-90) scale(0.1 -0.1)">
      <use xlink:href="#DejaVuSans-30"/>
      <use xlink:href="#DejaVuSans-2e" transform="translate(63.623047 0)"/>
      <use xlink:href="#DejaVuSans-32" transform="translate(95.410156 0)"/>
     </g>
    </g>
   </g>
   <g id="xtick_15">
    <g id="line2d_18">
     <path d="M 314.377166 224.45785 
L 314.377166 229.293895 
" style="fill: none; stroke: #000000; stroke-width: 0.8; stroke-linecap: square"/>
    </g>
    <g id="text_17">
     <!-- 0.4 -->
     <g transform="translate(328.821011 255.548253) rotate(-90) scale(0.1 -0.1)">
      <use xlink:href="#DejaVuSans-30"/>
      <use xlink:href="#DejaVuSans-2e" transform="translate(63.623047 0)"/>
      <use xlink:href="#DejaVuSans-34" transform="translate(95.410156 0)"/>
     </g>
    </g>
   </g>
   <g id="xtick_16">
    <g id="line2d_19">
     <path d="M 330.059711 225.879571 
L 330.059711 230.784969 
" style="fill: none; stroke: #000000; stroke-width: 0.8; stroke-linecap: square"/>
    </g>
    <g id="text_18">
     <!-- 0.6 -->
     <g transform="translate(344.605465 257.180979) rotate(-90) scale(0.1 -0.1)">
      <use xlink:href="#DejaVuSans-30"/>
      <use xlink:href="#DejaVuSans-2e" transform="translate(63.623047 0)"/>
      <use xlink:href="#DejaVuSans-36" transform="translate(95.410156 0)"/>
     </g>
    </g>
   </g>
   <g id="text_19">
    <!-- PC3 (0.54%) -->
    <g transform="translate(303.463142 276.927397) rotate(-354.736179) scale(0.12 -0.12)">
     <use xlink:href="#DejaVuSans-50"/>
     <use xlink:href="#DejaVuSans-43" transform="translate(60.302734 0)"/>
     <use xlink:href="#DejaVuSans-33" transform="translate(130.126953 0)"/>
     <use xlink:href="#DejaVuSans-20" transform="translate(193.75 0)"/>
     <use xlink:href="#DejaVuSans-28" transform="translate(225.537109 0)"/>
     <use xlink:href="#DejaVuSans-30" transform="translate(264.550781 0)"/>
     <use xlink:href="#DejaVuSans-2e" transform="translate(328.173828 0)"/>
     <use xlink:href="#DejaVuSans-35" transform="translate(359.960938 0)"/>
     <use xlink:href="#DejaVuSans-34" transform="translate(423.583984 0)"/>
     <use xlink:href="#DejaVuSans-25" transform="translate(487.207031 0)"/>
     <use xlink:href="#DejaVuSans-29" transform="translate(582.226562 0)"/>
    </g>
   </g>
  </g>
  <g id="axes_1">
   <g id="line2d_20">
    <path d="M 202.473084 56.542871 
L 203.61633 58.07475 
L 204.720717 59.611155 
L 205.786054 61.15199 
L 206.812159 62.69716 
L 207.798851 64.246566 
L 208.745957 65.800108 
L 209.653307 67.357688 
L 210.520738 68.919205 
L 211.34809 70.484557 
L 212.13521 72.053642 
L 212.88195 73.626356 
L 213.588166 75.202595 
L 214.25372 76.782255 
L 214.87848 78.365229 
L 215.462319 79.951412 
L 216.005117 81.540696 
L 216.506756 83.132973 
L 216.967127 84.728134 
L 217.386126 86.32607 
L 217.763653 87.926672 
L 218.099615 89.529828 
L 218.393925 91.135428 
L 218.646502 92.74336 
L 218.85727 94.353511 
L 219.026158 95.965769 
L 219.153104 97.580021 
L 219.238049 99.196152 
L 219.28094 100.814049 
L 219.281733 102.433597 
L 219.240387 104.05468 
L 219.156868 105.677185 
L 219.031147 107.300994 
L 218.863204 108.925992 
L 218.653021 110.552062 
L 218.40059 112.179089 
L 218.105907 113.806955 
L 217.768973 115.435544 
L 217.389798 117.064737 
L 216.968395 118.694419 
L 216.504786 120.324471 
L 215.998998 121.954777 
L 215.451062 123.585218 
L 214.861018 125.215678 
L 214.228912 126.846038 
L 213.554793 128.476181 
L 212.838719 130.105989 
L 212.080754 131.735346 
L 211.280965 133.364135 
L 210.439429 134.992237 
L 209.556226 136.619536 
L 208.631444 138.245915 
L 207.665175 139.871258 
L 206.657518 141.495448 
L 205.608578 143.11837 
L 204.518466 144.739908 
L 203.387297 146.359946 
L 202.215193 147.97837 
L 201.002283 149.595064 
L 199.7487 151.209916 
L 198.454583 152.82281 
L 197.120076 154.433634 
L 195.745331 156.042276 
L 194.330502 157.648622 
L 192.87575 159.252561 
L 191.381243 160.853981 
L 189.847151 162.452774 
L 188.273653 164.048828 
L 186.660931 165.642034 
L 185.009171 167.232284 
L 183.318567 168.819469 
L 181.589317 170.403483 
L 179.821623 171.98422 
L 178.015693 173.561572 
L 176.171738 175.135437 
L 174.289977 176.705709 
L 172.370632 178.272285 
L 170.413928 179.835063 
L 168.420097 181.393941 
L 166.389374 182.94882 
L 164.322001 184.499598 
L 162.21822 186.046177 
L 160.078281 187.58846 
L 157.902436 189.126349 
L 155.690943 190.659749 
L 153.444062 192.188565 
L 151.162058 193.712702 
L 148.8452 195.232069 
L 146.493762 196.746572 
L 144.108018 198.256123 
L 141.688249 199.76063 
L 139.234738 201.260006 
L 136.747772 202.754163 
L 134.227642 204.243015 
L 131.67464 205.726477 
L 129.089064 207.204464 
L 126.471213 208.676894 
L 123.82139 210.143686 
L 121.139901 211.604759 
L 118.427055 213.060034 
" clip-path="url(#pd6de51cee5)" style="fill: none; stroke: #e68b81; stroke-opacity: 0.7; stroke-width: 3; stroke-linecap: square"/>
   </g>
   <g id="line2d_21">
    <path d="M 197.962377 39.313271 
L 197.694464 39.713682 
L 197.424398 40.11438 
L 197.152179 40.51536 
L 196.877811 40.916621 
L 196.601294 41.318159 
L 196.322632 41.719969 
L 196.041827 42.122049 
L 195.75888 42.524395 
L 195.473794 42.927005 
L 195.186571 43.329873 
L 194.897214 43.732998 
L 194.605724 44.136375 
L 194.312105 44.540001 
L 194.016358 44.943872 
L 193.718485 45.347986 
L 193.418491 45.752339 
L 193.116376 46.156926 
L 192.812143 46.561746 
L 192.505796 46.966794 
L 192.197336 47.372066 
L 191.886767 47.77756 
L 191.57409 48.183272 
L 191.25931 48.589198 
L 190.942428 48.995335 
L 190.623447 49.401679 
L 190.30237 49.808227 
L 189.9792 50.214975 
L 189.65394 50.621921 
L 189.326593 51.029059 
L 188.997162 51.436387 
L 188.66565 51.843902 
L 188.33206 52.2516 
L 187.996394 52.659476 
L 187.658657 53.067529 
L 187.318851 53.475754 
L 186.976979 53.884147 
L 186.633046 54.292705 
L 186.287053 54.701425 
L 185.939004 55.110304 
L 185.588903 55.519336 
L 185.236753 55.92852 
L 184.882557 56.337851 
L 184.526319 56.747327 
L 184.168042 57.156942 
L 183.80773 57.566695 
L 183.445386 57.97658 
L 183.081013 58.386596 
L 182.714617 58.796737 
L 182.346199 59.207001 
L 181.975764 59.617385 
L 181.603316 60.027884 
L 181.228858 60.438495 
L 180.852393 60.849214 
L 180.473927 61.260038 
L 180.093462 61.670964 
L 179.711002 62.081987 
L 179.326552 62.493104 
L 178.940115 62.904313 
L 178.551695 63.315608 
L 178.161297 63.726987 
L 177.768924 64.138446 
L 177.37458 64.549981 
L 176.978269 64.961589 
L 176.579997 65.373267 
L 176.179765 65.78501 
L 175.77758 66.196816 
L 175.373445 66.60868 
L 174.967364 67.020599 
L 174.559342 67.43257 
L 174.149383 67.844589 
L 173.737491 68.256653 
L 173.323671 68.668757 
L 172.907927 69.080899 
L 172.490263 69.493075 
L 172.070684 69.905281 
L 171.649195 70.317514 
L 171.2258 70.72977 
L 170.800503 71.142046 
L 170.37331 71.554338 
L 169.944224 71.966642 
L 169.51325 72.378956 
L 169.080394 72.791275 
L 168.64566 73.203597 
L 168.209051 73.615916 
L 167.770574 74.028231 
L 167.330234 74.440538 
L 166.888034 74.852832 
L 166.443979 75.265111 
L 165.998075 75.677371 
L 165.550327 76.089608 
L 165.100739 76.50182 
L 164.649316 76.914001 
L 164.196064 77.32615 
L 163.740987 77.738262 
L 163.28409 78.150334 
L 162.825379 78.562363 
L 162.364858 78.974345 
L 161.902533 79.386276 
L 161.438408 79.798153 
" clip-path="url(#pd6de51cee5)" style="fill: none; stroke: #b7b2d0; stroke-opacity: 0.7; stroke-width: 3; stroke-linecap: square"/>
   </g>
   <g id="line2d_22">
    <path d="M 193.792991 41.243089 
L 196.032548 42.612296 
L 198.236175 43.98159 
L 200.403855 45.350953 
L 202.535572 46.720368 
L 204.631309 48.089818 
L 206.691054 49.459287 
L 208.714792 50.828756 
L 210.70251 52.198208 
L 212.654198 53.567628 
L 214.569843 54.936997 
L 216.449436 56.306298 
L 218.292969 57.675514 
L 220.100433 59.044629 
L 221.87182 60.413625 
L 223.607125 61.782485 
L 225.306343 63.151192 
L 226.969467 64.519729 
L 228.596496 65.888079 
L 230.187427 67.256225 
L 231.742256 68.624151 
L 233.260985 69.991838 
L 234.743612 71.359271 
L 236.190139 72.726432 
L 237.600568 74.093305 
L 238.974901 75.459872 
L 240.313141 76.826117 
L 241.615295 78.192022 
L 242.881365 79.557572 
L 244.11136 80.922749 
L 245.305287 82.287536 
L 246.463152 83.651917 
L 247.584966 85.015875 
L 248.670739 86.379393 
L 249.72048 87.742455 
L 250.734202 89.105044 
L 251.711917 90.467143 
L 252.653639 91.828736 
L 253.559382 93.189807 
L 254.429161 94.550338 
L 255.262992 95.910313 
L 256.060892 97.269716 
L 256.822879 98.62853 
L 257.548972 99.986739 
L 258.23919 101.344326 
L 258.893554 102.701276 
L 259.512084 104.057572 
L 260.094804 105.413197 
L 260.641735 106.768135 
L 261.152903 108.122371 
L 261.628331 109.475887 
L 262.068045 110.828668 
L 262.472073 112.180698 
L 262.84044 113.531961 
L 263.173176 114.88244 
L 263.470308 116.23212 
L 263.731868 117.580985 
L 263.957886 118.929018 
L 264.148393 120.276205 
L 264.303421 121.622528 
L 264.423005 122.967973 
L 264.507177 124.312524 
L 264.555973 125.656165 
L 264.569428 126.99888 
L 264.547579 128.340653 
L 264.490464 129.68147 
L 264.39812 131.021314 
L 264.270586 132.360171 
L 264.107902 133.698024 
L 263.91011 135.034859 
L 263.677249 136.370659 
L 263.409362 137.705411 
L 263.106493 139.039098 
L 262.768684 140.371705 
L 262.395981 141.703218 
L 261.988429 143.033621 
L 261.546075 144.362899 
L 261.068964 145.691037 
L 260.557144 147.018021 
L 260.010665 148.343834 
L 259.429576 149.668464 
L 258.813925 150.991894 
L 258.163765 152.31411 
L 257.479147 153.635098 
L 256.760122 154.954842 
L 256.006745 156.273329 
L 255.219069 157.590544 
L 254.397147 158.906472 
L 253.541037 160.221099 
L 252.650793 161.53441 
L 251.726473 162.846392 
L 250.768133 164.157031 
L 249.775833 165.466311 
L 248.74963 166.774219 
L 247.689586 168.080741 
L 246.595759 169.385863 
L 245.468211 170.689572 
L 244.307004 171.991852 
L 243.112201 173.292691 
L 241.883864 174.592074 
" clip-path="url(#pd6de51cee5)" style="fill: none; stroke: #84c3b7; stroke-opacity: 0.7; stroke-width: 3; stroke-linecap: square"/>
   </g>
   <g id="line2d_23">
    <path d="M 192.613066 37.61778 
L 193.051313 37.790109 
L 193.485149 37.962121 
L 193.914578 38.133818 
L 194.339605 38.305201 
L 194.760235 38.476273 
L 195.176475 38.647036 
L 195.588327 38.81749 
L 195.995798 38.987637 
L 196.398892 39.15748 
L 196.797613 39.327021 
L 197.191967 39.49626 
L 197.581958 39.6652 
L 197.96759 39.833842 
L 198.348868 40.002188 
L 198.725795 40.17024 
L 199.098376 40.337999 
L 199.466616 40.505467 
L 199.830517 40.672647 
L 200.190085 40.839539 
L 200.545322 41.006145 
L 200.896233 41.172467 
L 201.24282 41.338506 
L 201.585088 41.504265 
L 201.923041 41.669744 
L 202.256681 41.834946 
L 202.586011 41.999872 
L 202.911036 42.164524 
L 203.231757 42.328904 
L 203.548179 42.493012 
L 203.860304 42.656851 
L 204.168134 42.820422 
L 204.471674 42.983728 
L 204.770924 43.146769 
L 205.065889 43.309546 
L 205.35657 43.472063 
L 205.64297 43.63432 
L 205.925091 43.796319 
L 206.202936 43.958061 
L 206.476507 44.119548 
L 206.745805 44.280782 
L 207.010834 44.441764 
L 207.271594 44.602496 
L 207.528087 44.762979 
L 207.780316 44.923215 
L 208.028282 45.083205 
L 208.271987 45.242952 
L 208.511431 45.402455 
L 208.746618 45.561718 
L 208.977547 45.720742 
L 209.20422 45.879527 
L 209.426638 46.038076 
L 209.644803 46.196391 
L 209.858715 46.354471 
L 210.068376 46.51232 
L 210.273785 46.669939 
L 210.474945 46.827329 
L 210.671854 46.984491 
L 210.864515 47.141428 
L 211.052928 47.29814 
L 211.237092 47.45463 
L 211.417009 47.610898 
L 211.592678 47.766946 
L 211.7641 47.922776 
L 211.931274 48.078388 
L 212.094201 48.233786 
L 212.252881 48.388969 
L 212.407313 48.54394 
L 212.557498 48.698699 
L 212.703434 48.853249 
L 212.845121 49.007591 
L 212.982559 49.161726 
L 213.115748 49.315656 
L 213.244686 49.469382 
L 213.369372 49.622905 
L 213.489806 49.776227 
L 213.605988 49.92935 
L 213.717914 50.082275 
L 213.825586 50.235003 
L 213.929001 50.387536 
L 214.028158 50.539875 
L 214.123056 50.692022 
L 214.213694 50.843977 
L 214.300069 50.995743 
L 214.38218 51.147321 
L 214.460025 51.298712 
L 214.533603 51.449917 
L 214.602912 51.600939 
L 214.667949 51.751778 
L 214.728713 51.902435 
L 214.785201 52.052913 
L 214.837411 52.203213 
L 214.885341 52.353336 
L 214.928988 52.503283 
L 214.96835 52.653055 
L 215.003424 52.802655 
L 215.034208 52.952084 
L 215.060698 53.101342 
L 215.082892 53.250431 
L 215.100787 53.399354 
" clip-path="url(#pd6de51cee5)" style="fill: none; stroke: #7da6c6; stroke-opacity: 0.7; stroke-width: 3; stroke-linecap: square"/>
   </g>
   <g id="Path3DCollection_1">
    <path d="M 260.107513 124.641249 
C 261.216937 124.641249 262.281071 124.20047 263.065553 123.415989 
C 263.850034 122.631508 264.290813 121.567373 264.290813 120.457949 
C 264.290813 119.348525 263.850034 118.284391 263.065553 117.499909 
C 262.281071 116.715428 261.216937 116.274649 260.107513 116.274649 
C 258.998089 116.274649 257.933954 116.715428 257.149473 117.499909 
C 256.364992 118.284391 255.924213 119.348525 255.924213 120.457949 
C 255.924213 121.567373 256.364992 122.631508 257.149473 123.415989 
C 257.933954 124.20047 258.998089 124.641249 260.107513 124.641249 
z
" clip-path="url(#pd6de51cee5)" style="fill: #84c3b7; fill-opacity: 0.24; stroke: #84c3b7; stroke-opacity: 0.24"/>
    <path d="M 241.93614 159.498329 
C 243.326877 159.498329 244.66084 158.945783 245.644239 157.962384 
C 246.627639 156.978984 247.180184 155.645021 247.180184 154.254285 
C 247.180184 152.863548 246.627639 151.529585 245.644239 150.546185 
C 244.66084 149.562786 243.326877 149.01024 241.93614 149.01024 
C 240.545403 149.01024 239.21144 149.562786 238.228041 150.546185 
C 237.244641 151.529585 236.692096 152.863548 236.692096 154.254285 
C 236.692096 155.645021 237.244641 156.978984 238.228041 157.962384 
C 239.21144 158.945783 240.545403 159.498329 241.93614 159.498329 
z
" clip-path="url(#pd6de51cee5)" style="fill: #84c3b7; fill-opacity: 0.308418; stroke: #84c3b7; stroke-opacity: 0.308418"/>
    <path d="M 253.411485 180.227521 
C 254.802221 180.227521 256.136184 179.674975 257.119584 178.691576 
C 258.102983 177.708176 258.655529 176.374213 258.655529 174.983477 
C 258.655529 173.59274 258.102983 172.258777 257.119584 171.275377 
C 256.136184 170.291978 254.802221 169.739432 253.411485 169.739432 
C 252.020748 169.739432 250.686785 170.291978 249.703385 171.275377 
C 248.719986 172.258777 248.16744 173.59274 248.16744 174.983477 
C 248.16744 176.374213 248.719986 177.708176 249.703385 178.691576 
C 250.686785 179.674975 252.020748 180.227521 253.411485 180.227521 
z
" clip-path="url(#pd6de51cee5)" style="fill: #84c3b7; fill-opacity: 0.368069; stroke: #84c3b7; stroke-opacity: 0.368069"/>
    <path d="M 258.137529 142.987821 
C 259.246953 142.987821 260.311087 142.547042 261.095569 141.762561 
C 261.88005 140.978079 262.320829 139.913945 262.320829 138.804521 
C 262.320829 137.695097 261.88005 136.630962 261.095569 135.846481 
C 260.311087 135.062 259.246953 134.621221 258.137529 134.621221 
C 257.028105 134.621221 255.96397 135.062 255.179489 135.846481 
C 254.395008 136.630962 253.954229 137.695097 253.954229 138.804521 
C 253.954229 139.913945 254.395008 140.978079 255.179489 141.762561 
C 255.96397 142.547042 257.028105 142.987821 258.137529 142.987821 
z
" clip-path="url(#pd6de51cee5)" style="fill: #84c3b7; fill-opacity: 0.316766; stroke: #84c3b7; stroke-opacity: 0.316766"/>
    <path d="M 159.571673 75.461549 
C 160.962409 75.461549 162.296373 74.909003 163.279772 73.925604 
C 164.263171 72.942204 164.815717 71.608241 164.815717 70.217505 
C 164.815717 68.826768 164.263171 67.492805 163.279772 66.509405 
C 162.296373 65.526006 160.962409 64.97346 159.571673 64.97346 
C 158.180936 64.97346 156.846973 65.526006 155.863573 66.509405 
C 154.880174 67.492805 154.327628 68.826768 154.327628 70.217505 
C 154.327628 71.608241 154.880174 72.942204 155.863573 73.925604 
C 156.846973 74.909003 158.180936 75.461549 159.571673 75.461549 
z
" clip-path="url(#pd6de51cee5)" style="fill: #b7b2d0; fill-opacity: 0.495807; stroke: #b7b2d0; stroke-opacity: 0.495807"/>
    <path d="M 191.470057 45.16082 
C 192.063069 45.16082 192.631873 44.925214 193.051196 44.505891 
C 193.470519 44.086568 193.706125 43.517765 193.706125 42.924753 
C 193.706125 42.33174 193.470519 41.762937 193.051196 41.343614 
C 192.631873 40.924291 192.063069 40.688685 191.470057 40.688685 
C 190.877045 40.688685 190.308241 40.924291 189.888918 41.343614 
C 189.469595 41.762937 189.233989 42.33174 189.233989 42.924753 
C 189.233989 43.517765 189.469595 44.086568 189.888918 44.505891 
C 190.308241 44.925214 190.877045 45.16082 191.470057 45.16082 
z
" clip-path="url(#pd6de51cee5)" style="fill: #84c3b7; fill-opacity: 0.276532; stroke: #84c3b7; stroke-opacity: 0.276532"/>
    <path d="M 164.319196 84.976443 
C 165.709933 84.976443 167.043896 84.423897 168.027295 83.440498 
C 169.010695 82.457099 169.56324 81.123136 169.56324 79.732399 
C 169.56324 78.341662 169.010695 77.007699 168.027295 76.0243 
C 167.043896 75.0409 165.709933 74.488355 164.319196 74.488355 
C 162.928459 74.488355 161.594496 75.0409 160.611097 76.0243 
C 159.627697 77.007699 159.075152 78.341662 159.075152 79.732399 
C 159.075152 81.123136 159.627697 82.457099 160.611097 83.440498 
C 161.594496 84.423897 162.928459 84.976443 164.319196 84.976443 
z
" clip-path="url(#pd6de51cee5)" style="fill: #b7b2d0; fill-opacity: 0.504821; stroke: #b7b2d0; stroke-opacity: 0.504821"/>
    <path d="M 195.015272 43.67921 
C 195.608284 43.67921 196.177088 43.443603 196.59641 43.024281 
C 197.015733 42.604958 197.25134 42.036154 197.25134 41.443142 
C 197.25134 40.85013 197.015733 40.281326 196.59641 39.862003 
C 196.177088 39.44268 195.608284 39.207074 195.015272 39.207074 
C 194.422259 39.207074 193.853456 39.44268 193.434133 39.862003 
C 193.01481 40.281326 192.779204 40.85013 192.779204 41.443142 
C 192.779204 42.036154 193.01481 42.604958 193.434133 43.024281 
C 193.853456 43.443603 194.422259 43.67921 195.015272 43.67921 
z
" clip-path="url(#pd6de51cee5)" style="fill: #84c3b7; fill-opacity: 0.282518; stroke: #84c3b7; stroke-opacity: 0.282518"/>
    <path d="M 274.833655 104.36468 
C 275.672301 104.36468 276.476711 104.031482 277.069723 103.43847 
C 277.662735 102.845458 277.995933 102.041048 277.995933 101.202402 
C 277.995933 100.363756 277.662735 99.559346 277.069723 98.966334 
C 276.476711 98.373322 275.672301 98.040124 274.833655 98.040124 
C 273.995009 98.040124 273.190599 98.373322 272.597587 98.966334 
C 272.004575 99.559346 271.671378 100.363756 271.671378 101.202402 
C 271.671378 102.041048 272.004575 102.845458 272.597587 103.43847 
C 273.190599 104.031482 273.995009 104.36468 274.833655 104.36468 
z
" clip-path="url(#pd6de51cee5)" style="fill: #84c3b7; fill-opacity: 0.347429; stroke: #84c3b7; stroke-opacity: 0.347429"/>
    <path d="M 194.563601 52.369891 
C 195.402247 52.369891 196.206657 52.036694 196.799669 51.443681 
C 197.392681 50.850669 197.725879 50.046259 197.725879 49.207613 
C 197.725879 48.368968 197.392681 47.564558 196.799669 46.971545 
C 196.206657 46.378533 195.402247 46.045336 194.563601 46.045336 
C 193.724955 46.045336 192.920545 46.378533 192.327533 46.971545 
C 191.734521 47.564558 191.401324 48.368968 191.401324 49.207613 
C 191.401324 50.046259 191.734521 50.850669 192.327533 51.443681 
C 192.920545 52.036694 193.724955 52.369891 194.563601 52.369891 
z
" clip-path="url(#pd6de51cee5)" style="fill: #b7b2d0; fill-opacity: 0.35938; stroke: #b7b2d0; stroke-opacity: 0.35938"/>
    <path d="M 135.84858 218.092827 
C 137.239317 218.092827 138.57328 217.540281 139.556679 216.556882 
C 140.540079 215.573482 141.092624 214.239519 141.092624 212.848783 
C 141.092624 211.458046 140.540079 210.124083 139.556679 209.140683 
C 138.57328 208.157284 137.239317 207.604738 135.84858 207.604738 
C 134.457843 207.604738 133.12388 208.157284 132.140481 209.140683 
C 131.157081 210.124083 130.604536 211.458046 130.604536 212.848783 
C 130.604536 214.239519 131.157081 215.573482 132.140481 216.556882 
C 133.12388 217.540281 134.457843 218.092827 135.84858 218.092827 
z
" clip-path="url(#pd6de51cee5)" style="fill: #e68b81; fill-opacity: 0.555072; stroke: #e68b81; stroke-opacity: 0.555072"/>
    <path d="M 196.307342 41.709208 
C 196.900354 41.709208 197.469158 41.473602 197.888481 41.054279 
C 198.307804 40.634956 198.54341 40.066152 198.54341 39.47314 
C 198.54341 38.880128 198.307804 38.311324 197.888481 37.892001 
C 197.469158 37.472678 196.900354 37.237072 196.307342 37.237072 
C 195.71433 37.237072 195.145526 37.472678 194.726203 37.892001 
C 194.30688 38.311324 194.071274 38.880128 194.071274 39.47314 
C 194.071274 40.066152 194.30688 40.634956 194.726203 41.054279 
C 195.145526 41.473602 195.71433 41.709208 196.307342 41.709208 
z
" clip-path="url(#pd6de51cee5)" style="fill: #b7b2d0; fill-opacity: 0.308555; stroke: #b7b2d0; stroke-opacity: 0.308555"/>
    <path d="M 202.596621 41.547565 
C 203.189634 41.547565 203.758437 41.311958 204.17776 40.892636 
C 204.597083 40.473313 204.832689 39.904509 204.832689 39.311497 
C 204.832689 38.718485 204.597083 38.149681 204.17776 37.730358 
C 203.758437 37.311035 203.189634 37.075429 202.596621 37.075429 
C 202.003609 37.075429 201.434806 37.311035 201.015483 37.730358 
C 200.59616 38.149681 200.360553 38.718485 200.360553 39.311497 
C 200.360553 39.904509 200.59616 40.473313 201.015483 40.892636 
C 201.434806 41.311958 202.003609 41.547565 202.596621 41.547565 
z
" clip-path="url(#pd6de51cee5)" style="fill: #b7b2d0; fill-opacity: 0.308639; stroke: #b7b2d0; stroke-opacity: 0.308639"/>
    <path d="M 195.705703 40.773502 
C 196.298716 40.773502 196.867519 40.537896 197.286842 40.118573 
C 197.706165 39.69925 197.941771 39.130446 197.941771 38.537434 
C 197.941771 37.944422 197.706165 37.375618 197.286842 36.956295 
C 196.867519 36.536972 196.298716 36.301366 195.705703 36.301366 
C 195.112691 36.301366 194.543888 36.536972 194.124565 36.956295 
C 193.705242 37.375618 193.469635 37.944422 193.469635 38.537434 
C 193.469635 39.130446 193.705242 39.69925 194.124565 40.118573 
C 194.543888 40.537896 195.112691 40.773502 195.705703 40.773502 
z
" clip-path="url(#pd6de51cee5)" style="fill: #7da6c6; fill-opacity: 0.31078; stroke: #7da6c6; stroke-opacity: 0.31078"/>
    <path d="M 203.396654 46.010079 
C 204.2353 46.010079 205.03971 45.676882 205.632722 45.08387 
C 206.225734 44.490857 206.558931 43.686447 206.558931 42.847802 
C 206.558931 42.009156 206.225734 41.204746 205.632722 40.611734 
C 205.03971 40.018721 204.2353 39.685524 203.396654 39.685524 
C 202.558008 39.685524 201.753598 40.018721 201.160586 40.611734 
C 200.567574 41.204746 200.234376 42.009156 200.234376 42.847802 
C 200.234376 43.686447 200.567574 44.490857 201.160586 45.08387 
C 201.753598 45.676882 202.558008 46.010079 203.396654 46.010079 
z
" clip-path="url(#pd6de51cee5)" style="fill: #7da6c6; fill-opacity: 0.367305; stroke: #7da6c6; stroke-opacity: 0.367305"/>
    <path d="M 184.291393 49.239925 
C 185.130039 49.239925 185.934449 48.906728 186.527461 48.313716 
C 187.120473 47.720703 187.453671 46.916293 187.453671 46.077648 
C 187.453671 45.239002 187.120473 44.434592 186.527461 43.84158 
C 185.934449 43.248567 185.130039 42.91537 184.291393 42.91537 
C 183.452747 42.91537 182.648337 43.248567 182.055325 43.84158 
C 181.462313 44.434592 181.129115 45.239002 181.129115 46.077648 
C 181.129115 46.916293 181.462313 47.720703 182.055325 48.313716 
C 182.648337 48.906728 183.452747 49.239925 184.291393 49.239925 
z
" clip-path="url(#pd6de51cee5)" style="fill: #b7b2d0; fill-opacity: 0.367573; stroke: #b7b2d0; stroke-opacity: 0.367573"/>
    <path d="M 217.28219 54.68658 
C 218.391614 54.68658 219.455749 54.245801 220.24023 53.461319 
C 221.024711 52.676838 221.46549 51.612704 221.46549 50.50328 
C 221.46549 49.393855 221.024711 48.329721 220.24023 47.54524 
C 219.455749 46.760758 218.391614 46.319979 217.28219 46.319979 
C 216.172766 46.319979 215.108632 46.760758 214.32415 47.54524 
C 213.539669 48.329721 213.09889 49.393855 213.09889 50.50328 
C 213.09889 51.612704 213.539669 52.676838 214.32415 53.461319 
C 215.108632 54.245801 216.172766 54.68658 217.28219 54.68658 
z
" clip-path="url(#pd6de51cee5)" style="fill: #7da6c6; fill-opacity: 0.453238; stroke: #7da6c6; stroke-opacity: 0.453238"/>
    <path d="M 195.058929 66.341046 
C 196.168354 66.341046 197.232488 65.900267 198.016969 65.115785 
C 198.801451 64.331304 199.24223 63.26717 199.24223 62.157745 
C 199.24223 61.048321 198.801451 59.984187 198.016969 59.199706 
C 197.232488 58.415224 196.168354 57.974445 195.058929 57.974445 
C 193.949505 57.974445 192.885371 58.415224 192.10089 59.199706 
C 191.316408 59.984187 190.875629 61.048321 190.875629 62.157745 
C 190.875629 63.26717 191.316408 64.331304 192.10089 65.115785 
C 192.885371 65.900267 193.949505 66.341046 195.058929 66.341046 
z
" clip-path="url(#pd6de51cee5)" style="fill: #b7b2d0; fill-opacity: 0.453995; stroke: #b7b2d0; stroke-opacity: 0.453995"/>
    <path d="M 192.208357 39.885209 
C 192.801369 39.885209 193.370173 39.649603 193.789496 39.23028 
C 194.208819 38.810957 194.444425 38.242153 194.444425 37.649141 
C 194.444425 37.056129 194.208819 36.487325 193.789496 36.068002 
C 193.370173 35.648679 192.801369 35.413073 192.208357 35.413073 
C 191.615345 35.413073 191.046541 35.648679 190.627218 36.068002 
C 190.207895 36.487325 189.972289 37.056129 189.972289 37.649141 
C 189.972289 38.242153 190.207895 38.810957 190.627218 39.23028 
C 191.046541 39.649603 191.615345 39.885209 192.208357 39.885209 
z
" clip-path="url(#pd6de51cee5)" style="fill: #7da6c6; fill-opacity: 0.312254; stroke: #7da6c6; stroke-opacity: 0.312254"/>
    <path d="M 180.730741 60.747714 
C 181.840165 60.747714 182.904299 60.306935 183.688781 59.522454 
C 184.473262 58.737972 184.914041 57.673838 184.914041 56.564414 
C 184.914041 55.45499 184.473262 54.390855 183.688781 53.606374 
C 182.904299 52.821892 181.840165 52.381114 180.730741 52.381114 
C 179.621317 52.381114 178.557182 52.821892 177.772701 53.606374 
C 176.98822 54.390855 176.547441 55.45499 176.547441 56.564414 
C 176.547441 57.673838 176.98822 58.737972 177.772701 59.522454 
C 178.557182 60.306935 179.621317 60.747714 180.730741 60.747714 
z
" clip-path="url(#pd6de51cee5)" style="fill: #b7b2d0; fill-opacity: 0.460054; stroke: #b7b2d0; stroke-opacity: 0.460054"/>
    <path d="M 207.7681 47.583605 
C 208.606746 47.583605 209.411156 47.250407 210.004168 46.657395 
C 210.59718 46.064383 210.930378 45.259973 210.930378 44.421327 
C 210.930378 43.582682 210.59718 42.778272 210.004168 42.185259 
C 209.411156 41.592247 208.606746 41.25905 207.7681 41.25905 
C 206.929454 41.25905 206.125044 41.592247 205.532032 42.185259 
C 204.93902 42.778272 204.605823 43.582682 204.605823 44.421327 
C 204.605823 45.259973 204.93902 46.064383 205.532032 46.657395 
C 206.125044 47.250407 206.929454 47.583605 207.7681 47.583605 
z
" clip-path="url(#pd6de51cee5)" style="fill: #7da6c6; fill-opacity: 0.378921; stroke: #7da6c6; stroke-opacity: 0.378921"/>
    <path d="M 209.393674 51.836118 
C 210.503098 51.836118 211.567232 51.395339 212.351714 50.610857 
C 213.136195 49.826376 213.576974 48.762242 213.576974 47.652817 
C 213.576974 46.543393 213.136195 45.479259 212.351714 44.694778 
C 211.567232 43.910296 210.503098 43.469517 209.393674 43.469517 
C 208.28425 43.469517 207.220115 43.910296 206.435634 44.694778 
C 205.651153 45.479259 205.210374 46.543393 205.210374 47.652817 
C 205.210374 48.762242 205.651153 49.826376 206.435634 50.610857 
C 207.220115 51.395339 208.28425 51.836118 209.393674 51.836118 
z
" clip-path="url(#pd6de51cee5)" style="fill: #7da6c6; fill-opacity: 0.472646; stroke: #7da6c6; stroke-opacity: 0.472646"/>
    <path d="M 248.590924 89.012819 
C 249.42957 89.012819 250.23398 88.679621 250.826992 88.086609 
C 251.420004 87.493597 251.753202 86.689187 251.753202 85.850541 
C 251.753202 85.011895 251.420004 84.207485 250.826992 83.614473 
C 250.23398 83.021461 249.42957 82.688264 248.590924 82.688264 
C 247.752278 82.688264 246.947868 83.021461 246.354856 83.614473 
C 245.761844 84.207485 245.428646 85.011895 245.428646 85.850541 
C 245.428646 86.689187 245.761844 87.493597 246.354856 88.086609 
C 246.947868 88.679621 247.752278 89.012819 248.590924 89.012819 
z
" clip-path="url(#pd6de51cee5)" style="fill: #84c3b7; fill-opacity: 0.39737; stroke: #84c3b7; stroke-opacity: 0.39737"/>
    <path d="M 213.715532 57.446003 
C 215.106269 57.446003 216.440232 56.893458 217.423631 55.910058 
C 218.40703 54.926659 218.959576 53.592696 218.959576 52.201959 
C 218.959576 50.811222 218.40703 49.477259 217.423631 48.49386 
C 216.440232 47.51046 215.106269 46.957915 213.715532 46.957915 
C 212.324795 46.957915 210.990832 47.51046 210.007432 48.49386 
C 209.024033 49.477259 208.471487 50.811222 208.471487 52.201959 
C 208.471487 53.592696 209.024033 54.926659 210.007432 55.910058 
C 210.990832 56.893458 212.324795 57.446003 213.715532 57.446003 
z
" clip-path="url(#pd6de51cee5)" style="fill: #7da6c6; fill-opacity: 0.625011; stroke: #7da6c6; stroke-opacity: 0.625011"/>
    <path d="M 214.718295 58.513728 
C 216.109032 58.513728 217.442995 57.961183 218.426394 56.977783 
C 219.409794 55.994384 219.962339 54.660421 219.962339 53.269684 
C 219.962339 51.878947 219.409794 50.544984 218.426394 49.561585 
C 217.442995 48.578185 216.109032 48.02564 214.718295 48.02564 
C 213.327558 48.02564 211.993595 48.578185 211.010196 49.561585 
C 210.026796 50.544984 209.474251 51.878947 209.474251 53.269684 
C 209.474251 54.660421 210.026796 55.994384 211.010196 56.977783 
C 211.993595 57.961183 213.327558 58.513728 214.718295 58.513728 
z
" clip-path="url(#pd6de51cee5)" style="fill: #7da6c6; fill-opacity: 0.653114; stroke: #7da6c6; stroke-opacity: 0.653114"/>
    <path d="M 192.418627 58.990367 
C 193.011639 58.990367 193.580443 58.754761 193.999766 58.335438 
C 194.419089 57.916115 194.654695 57.347311 194.654695 56.754299 
C 194.654695 56.161287 194.419089 55.592483 193.999766 55.17316 
C 193.580443 54.753837 193.011639 54.518231 192.418627 54.518231 
C 191.825615 54.518231 191.256811 54.753837 190.837488 55.17316 
C 190.418165 55.592483 190.182559 56.161287 190.182559 56.754299 
C 190.182559 57.347311 190.418165 57.916115 190.837488 58.335438 
C 191.256811 58.754761 191.825615 58.990367 192.418627 58.990367 
z
" clip-path="url(#pd6de51cee5)" style="fill: #e68b81; fill-opacity: 0.381523; stroke: #e68b81; stroke-opacity: 0.381523"/>
    <path d="M 109.868973 198.583052 
C 111.25971 198.583052 112.593673 198.030506 113.577072 197.047107 
C 114.560472 196.063707 115.113017 194.729744 115.113017 193.339007 
C 115.113017 191.948271 114.560472 190.614308 113.577072 189.630908 
C 112.593673 188.647509 111.25971 188.094963 109.868973 188.094963 
C 108.478236 188.094963 107.144273 188.647509 106.160874 189.630908 
C 105.177474 190.614308 104.624929 191.948271 104.624929 193.339007 
C 104.624929 194.729744 105.177474 196.063707 106.160874 197.047107 
C 107.144273 198.030506 108.478236 198.583052 109.868973 198.583052 
z
" clip-path="url(#pd6de51cee5)" style="fill: #e68b81; fill-opacity: 0.712519; stroke: #e68b81; stroke-opacity: 0.712519"/>
    <path d="M 172.405207 147.176568 
C 173.514631 147.176568 174.578766 146.735789 175.363247 145.951308 
C 176.147728 145.166827 176.588507 144.102692 176.588507 142.993268 
C 176.588507 141.883844 176.147728 140.819709 175.363247 140.035228 
C 174.578766 139.250747 173.514631 138.809968 172.405207 138.809968 
C 171.295783 138.809968 170.231649 139.250747 169.447167 140.035228 
C 168.662686 140.819709 168.221907 141.883844 168.221907 142.993268 
C 168.221907 144.102692 168.662686 145.166827 169.447167 145.951308 
C 170.231649 146.735789 171.295783 147.176568 172.405207 147.176568 
z
" clip-path="url(#pd6de51cee5)" style="fill: #e68b81; fill-opacity: 0.571741; stroke: #e68b81; stroke-opacity: 0.571741"/>
    <path d="M 208.841714 59.684556 
C 209.434726 59.684556 210.00353 59.44895 210.422853 59.029627 
C 210.842176 58.610304 211.077782 58.0415 211.077782 57.448488 
C 211.077782 56.855476 210.842176 56.286672 210.422853 55.867349 
C 210.00353 55.448026 209.434726 55.21242 208.841714 55.21242 
C 208.248702 55.21242 207.679898 55.448026 207.260575 55.867349 
C 206.841252 56.286672 206.605646 56.855476 206.605646 57.448488 
C 206.605646 58.0415 206.841252 58.610304 207.260575 59.029627 
C 207.679898 59.44895 208.248702 59.684556 208.841714 59.684556 
z
" clip-path="url(#pd6de51cee5)" style="fill: #e68b81; fill-opacity: 0.411591; stroke: #e68b81; stroke-opacity: 0.411591"/>
    <path d="M 224.851819 100.498356 
C 225.690465 100.498356 226.494875 100.165158 227.087887 99.572146 
C 227.680899 98.979134 228.014097 98.174724 228.014097 97.336078 
C 228.014097 96.497432 227.680899 95.693022 227.087887 95.10001 
C 226.494875 94.506998 225.690465 94.1738 224.851819 94.1738 
C 224.013173 94.1738 223.208763 94.506998 222.615751 95.10001 
C 222.022739 95.693022 221.689542 96.497432 221.689542 97.336078 
C 221.689542 98.174724 222.022739 98.979134 222.615751 99.572146 
C 223.208763 100.165158 224.013173 100.498356 224.851819 100.498356 
z
" clip-path="url(#pd6de51cee5)" style="fill: #e68b81; fill-opacity: 0.534696; stroke: #e68b81; stroke-opacity: 0.534696"/>
    <path d="M 227.502398 173.539261 
C 228.611822 173.539261 229.675957 173.098482 230.460438 172.314 
C 231.24492 171.529519 231.685698 170.465385 231.685698 169.355961 
C 231.685698 168.246536 231.24492 167.182402 230.460438 166.397921 
C 229.675957 165.613439 228.611822 165.17266 227.502398 165.17266 
C 226.392974 165.17266 225.32884 165.613439 224.544358 166.397921 
C 223.759877 167.182402 223.319098 168.246536 223.319098 169.355961 
C 223.319098 170.465385 223.759877 171.529519 224.544358 172.314 
C 225.32884 173.098482 226.392974 173.539261 227.502398 173.539261 
z
" clip-path="url(#pd6de51cee5)" style="fill: #e68b81; fill-opacity: 0.721926; stroke: #e68b81; stroke-opacity: 0.721926"/>
    <path d="M 231.839405 115.307076 
C 232.678051 115.307076 233.482461 114.973879 234.075473 114.380867 
C 234.668485 113.787855 235.001682 112.983445 235.001682 112.144799 
C 235.001682 111.306153 234.668485 110.501743 234.075473 109.908731 
C 233.482461 109.315719 232.678051 108.982521 231.839405 108.982521 
C 231.000759 108.982521 230.196349 109.315719 229.603337 109.908731 
C 229.010325 110.501743 228.677127 111.306153 228.677127 112.144799 
C 228.677127 112.983445 229.010325 113.787855 229.603337 114.380867 
C 230.196349 114.973879 231.000759 115.307076 231.839405 115.307076 
z
" clip-path="url(#pd6de51cee5)" style="fill: #e68b81; fill-opacity: 0.65; stroke: #e68b81; stroke-opacity: 0.65"/>
   </g>
   <g id="text_20">
    <!--  Acetone -->
    <g style="opacity: 0.95" transform="translate(118.427055 215.819409) scale(0.1 -0.1)">
     <defs>
      <path id="DejaVuSans-41" d="M 2188 4044 
L 1331 1722 
L 3047 1722 
L 2188 4044 
z
M 1831 4666 
L 2547 4666 
L 4325 0 
L 3669 0 
L 3244 1197 
L 1141 1197 
L 716 0 
L 50 0 
L 1831 4666 
z
" transform="scale(0.015625)"/>
      <path id="DejaVuSans-63" d="M 3122 3366 
L 3122 2828 
Q 2878 2963 2633 3030 
Q 2388 3097 2138 3097 
Q 1578 3097 1268 2742 
Q 959 2388 959 1747 
Q 959 1106 1268 751 
Q 1578 397 2138 397 
Q 2388 397 2633 464 
Q 2878 531 3122 666 
L 3122 134 
Q 2881 22 2623 -34 
Q 2366 -91 2075 -91 
Q 1284 -91 818 406 
Q 353 903 353 1747 
Q 353 2603 823 3093 
Q 1294 3584 2113 3584 
Q 2378 3584 2631 3529 
Q 2884 3475 3122 3366 
z
" transform="scale(0.015625)"/>
      <path id="DejaVuSans-65" d="M 3597 1894 
L 3597 1613 
L 953 1613 
Q 991 1019 1311 708 
Q 1631 397 2203 397 
Q 2534 397 2845 478 
Q 3156 559 3463 722 
L 3463 178 
Q 3153 47 2828 -22 
Q 2503 -91 2169 -91 
Q 1331 -91 842 396 
Q 353 884 353 1716 
Q 353 2575 817 3079 
Q 1281 3584 2069 3584 
Q 2775 3584 3186 3129 
Q 3597 2675 3597 1894 
z
M 3022 2063 
Q 3016 2534 2758 2815 
Q 2500 3097 2075 3097 
Q 1594 3097 1305 2825 
Q 1016 2553 972 2059 
L 3022 2063 
z
" transform="scale(0.015625)"/>
      <path id="DejaVuSans-74" d="M 1172 4494 
L 1172 3500 
L 2356 3500 
L 2356 3053 
L 1172 3053 
L 1172 1153 
Q 1172 725 1289 603 
Q 1406 481 1766 481 
L 2356 481 
L 2356 0 
L 1766 0 
Q 1100 0 847 248 
Q 594 497 594 1153 
L 594 3053 
L 172 3053 
L 172 3500 
L 594 3500 
L 594 4494 
L 1172 4494 
z
" transform="scale(0.015625)"/>
      <path id="DejaVuSans-6f" d="M 1959 3097 
Q 1497 3097 1228 2736 
Q 959 2375 959 1747 
Q 959 1119 1226 758 
Q 1494 397 1959 397 
Q 2419 397 2687 759 
Q 2956 1122 2956 1747 
Q 2956 2369 2687 2733 
Q 2419 3097 1959 3097 
z
M 1959 3584 
Q 2709 3584 3137 3096 
Q 3566 2609 3566 1747 
Q 3566 888 3137 398 
Q 2709 -91 1959 -91 
Q 1206 -91 779 398 
Q 353 888 353 1747 
Q 353 2609 779 3096 
Q 1206 3584 1959 3584 
z
" transform="scale(0.015625)"/>
      <path id="DejaVuSans-6e" d="M 3513 2113 
L 3513 0 
L 2938 0 
L 2938 2094 
Q 2938 2591 2744 2837 
Q 2550 3084 2163 3084 
Q 1697 3084 1428 2787 
Q 1159 2491 1159 1978 
L 1159 0 
L 581 0 
L 581 3500 
L 1159 3500 
L 1159 2956 
Q 1366 3272 1645 3428 
Q 1925 3584 2291 3584 
Q 2894 3584 3203 3211 
Q 3513 2838 3513 2113 
z
" transform="scale(0.015625)"/>
     </defs>
     <use xlink:href="#DejaVuSans-20"/>
     <use xlink:href="#DejaVuSans-41" transform="translate(31.787109 0)"/>
     <use xlink:href="#DejaVuSans-63" transform="translate(98.445312 0)"/>
     <use xlink:href="#DejaVuSans-65" transform="translate(153.425781 0)"/>
     <use xlink:href="#DejaVuSans-74" transform="translate(214.949219 0)"/>
     <use xlink:href="#DejaVuSans-6f" transform="translate(254.158203 0)"/>
     <use xlink:href="#DejaVuSans-6e" transform="translate(315.339844 0)"/>
     <use xlink:href="#DejaVuSans-65" transform="translate(378.71875 0)"/>
    </g>
   </g>
   <g id="text_21">
    <!--  Benzene -->
    <g style="opacity: 0.95" transform="translate(161.438408 82.557528) scale(0.1 -0.1)">
     <defs>
      <path id="DejaVuSans-42" d="M 1259 2228 
L 1259 519 
L 2272 519 
Q 2781 519 3026 730 
Q 3272 941 3272 1375 
Q 3272 1813 3026 2020 
Q 2781 2228 2272 2228 
L 1259 2228 
z
M 1259 4147 
L 1259 2741 
L 2194 2741 
Q 2656 2741 2882 2914 
Q 3109 3088 3109 3444 
Q 3109 3797 2882 3972 
Q 2656 4147 2194 4147 
L 1259 4147 
z
M 628 4666 
L 2241 4666 
Q 2963 4666 3353 4366 
Q 3744 4066 3744 3513 
Q 3744 3084 3544 2831 
Q 3344 2578 2956 2516 
Q 3422 2416 3680 2098 
Q 3938 1781 3938 1306 
Q 3938 681 3513 340 
Q 3088 0 2303 0 
L 628 0 
L 628 4666 
z
" transform="scale(0.015625)"/>
      <path id="DejaVuSans-7a" d="M 353 3500 
L 3084 3500 
L 3084 2975 
L 922 459 
L 3084 459 
L 3084 0 
L 275 0 
L 275 525 
L 2438 3041 
L 353 3041 
L 353 3500 
z
" transform="scale(0.015625)"/>
     </defs>
     <use xlink:href="#DejaVuSans-20"/>
     <use xlink:href="#DejaVuSans-42" transform="translate(31.787109 0)"/>
     <use xlink:href="#DejaVuSans-65" transform="translate(100.390625 0)"/>
     <use xlink:href="#DejaVuSans-6e" transform="translate(161.914062 0)"/>
     <use xlink:href="#DejaVuSans-7a" transform="translate(225.292969 0)"/>
     <use xlink:href="#DejaVuSans-65" transform="translate(277.783203 0)"/>
     <use xlink:href="#DejaVuSans-6e" transform="translate(339.306641 0)"/>
     <use xlink:href="#DejaVuSans-65" transform="translate(402.685547 0)"/>
    </g>
   </g>
   <g id="text_22">
    <!--  Toluene -->
    <g style="opacity: 0.95" transform="translate(241.883864 177.351449) scale(0.1 -0.1)">
     <defs>
      <path id="DejaVuSans-54" d="M -19 4666 
L 3928 4666 
L 3928 4134 
L 2272 4134 
L 2272 0 
L 1638 0 
L 1638 4134 
L -19 4134 
L -19 4666 
z
" transform="scale(0.015625)"/>
      <path id="DejaVuSans-6c" d="M 603 4863 
L 1178 4863 
L 1178 0 
L 603 0 
L 603 4863 
z
" transform="scale(0.015625)"/>
      <path id="DejaVuSans-75" d="M 544 1381 
L 544 3500 
L 1119 3500 
L 1119 1403 
Q 1119 906 1312 657 
Q 1506 409 1894 409 
Q 2359 409 2629 706 
Q 2900 1003 2900 1516 
L 2900 3500 
L 3475 3500 
L 3475 0 
L 2900 0 
L 2900 538 
Q 2691 219 2414 64 
Q 2138 -91 1772 -91 
Q 1169 -91 856 284 
Q 544 659 544 1381 
z
M 1991 3584 
L 1991 3584 
z
" transform="scale(0.015625)"/>
     </defs>
     <use xlink:href="#DejaVuSans-20"/>
     <use xlink:href="#DejaVuSans-54" transform="translate(31.787109 0)"/>
     <use xlink:href="#DejaVuSans-6f" transform="translate(75.871094 0)"/>
     <use xlink:href="#DejaVuSans-6c" transform="translate(137.052734 0)"/>
     <use xlink:href="#DejaVuSans-75" transform="translate(164.835938 0)"/>
     <use xlink:href="#DejaVuSans-65" transform="translate(228.214844 0)"/>
     <use xlink:href="#DejaVuSans-6e" transform="translate(289.738281 0)"/>
     <use xlink:href="#DejaVuSans-65" transform="translate(353.117188 0)"/>
    </g>
   </g>
   <g id="text_23">
    <!--  Formaldehyde -->
    <g style="opacity: 0.95" transform="translate(215.100787 56.158729) scale(0.1 -0.1)">
     <defs>
      <path id="DejaVuSans-46" d="M 628 4666 
L 3309 4666 
L 3309 4134 
L 1259 4134 
L 1259 2759 
L 3109 2759 
L 3109 2228 
L 1259 2228 
L 1259 0 
L 628 0 
L 628 4666 
z
" transform="scale(0.015625)"/>
      <path id="DejaVuSans-72" d="M 2631 2963 
Q 2534 3019 2420 3045 
Q 2306 3072 2169 3072 
Q 1681 3072 1420 2755 
Q 1159 2438 1159 1844 
L 1159 0 
L 581 0 
L 581 3500 
L 1159 3500 
L 1159 2956 
Q 1341 3275 1631 3429 
Q 1922 3584 2338 3584 
Q 2397 3584 2469 3576 
Q 2541 3569 2628 3553 
L 2631 2963 
z
" transform="scale(0.015625)"/>
      <path id="DejaVuSans-6d" d="M 3328 2828 
Q 3544 3216 3844 3400 
Q 4144 3584 4550 3584 
Q 5097 3584 5394 3201 
Q 5691 2819 5691 2113 
L 5691 0 
L 5113 0 
L 5113 2094 
Q 5113 2597 4934 2840 
Q 4756 3084 4391 3084 
Q 3944 3084 3684 2787 
Q 3425 2491 3425 1978 
L 3425 0 
L 2847 0 
L 2847 2094 
Q 2847 2600 2669 2842 
Q 2491 3084 2119 3084 
Q 1678 3084 1418 2786 
Q 1159 2488 1159 1978 
L 1159 0 
L 581 0 
L 581 3500 
L 1159 3500 
L 1159 2956 
Q 1356 3278 1631 3431 
Q 1906 3584 2284 3584 
Q 2666 3584 2933 3390 
Q 3200 3197 3328 2828 
z
" transform="scale(0.015625)"/>
      <path id="DejaVuSans-61" d="M 2194 1759 
Q 1497 1759 1228 1600 
Q 959 1441 959 1056 
Q 959 750 1161 570 
Q 1363 391 1709 391 
Q 2188 391 2477 730 
Q 2766 1069 2766 1631 
L 2766 1759 
L 2194 1759 
z
M 3341 1997 
L 3341 0 
L 2766 0 
L 2766 531 
Q 2569 213 2275 61 
Q 1981 -91 1556 -91 
Q 1019 -91 701 211 
Q 384 513 384 1019 
Q 384 1609 779 1909 
Q 1175 2209 1959 2209 
L 2766 2209 
L 2766 2266 
Q 2766 2663 2505 2880 
Q 2244 3097 1772 3097 
Q 1472 3097 1187 3025 
Q 903 2953 641 2809 
L 641 3341 
Q 956 3463 1253 3523 
Q 1550 3584 1831 3584 
Q 2591 3584 2966 3190 
Q 3341 2797 3341 1997 
z
" transform="scale(0.015625)"/>
      <path id="DejaVuSans-64" d="M 2906 2969 
L 2906 4863 
L 3481 4863 
L 3481 0 
L 2906 0 
L 2906 525 
Q 2725 213 2448 61 
Q 2172 -91 1784 -91 
Q 1150 -91 751 415 
Q 353 922 353 1747 
Q 353 2572 751 3078 
Q 1150 3584 1784 3584 
Q 2172 3584 2448 3432 
Q 2725 3281 2906 2969 
z
M 947 1747 
Q 947 1113 1208 752 
Q 1469 391 1925 391 
Q 2381 391 2643 752 
Q 2906 1113 2906 1747 
Q 2906 2381 2643 2742 
Q 2381 3103 1925 3103 
Q 1469 3103 1208 2742 
Q 947 2381 947 1747 
z
" transform="scale(0.015625)"/>
      <path id="DejaVuSans-68" d="M 3513 2113 
L 3513 0 
L 2938 0 
L 2938 2094 
Q 2938 2591 2744 2837 
Q 2550 3084 2163 3084 
Q 1697 3084 1428 2787 
Q 1159 2491 1159 1978 
L 1159 0 
L 581 0 
L 581 4863 
L 1159 4863 
L 1159 2956 
Q 1366 3272 1645 3428 
Q 1925 3584 2291 3584 
Q 2894 3584 3203 3211 
Q 3513 2838 3513 2113 
z
" transform="scale(0.015625)"/>
      <path id="DejaVuSans-79" d="M 2059 -325 
Q 1816 -950 1584 -1140 
Q 1353 -1331 966 -1331 
L 506 -1331 
L 506 -850 
L 844 -850 
Q 1081 -850 1212 -737 
Q 1344 -625 1503 -206 
L 1606 56 
L 191 3500 
L 800 3500 
L 1894 763 
L 2988 3500 
L 3597 3500 
L 2059 -325 
z
" transform="scale(0.015625)"/>
     </defs>
     <use xlink:href="#DejaVuSans-20"/>
     <use xlink:href="#DejaVuSans-46" transform="translate(31.787109 0)"/>
     <use xlink:href="#DejaVuSans-6f" transform="translate(85.681641 0)"/>
     <use xlink:href="#DejaVuSans-72" transform="translate(146.863281 0)"/>
     <use xlink:href="#DejaVuSans-6d" transform="translate(186.226562 0)"/>
     <use xlink:href="#DejaVuSans-61" transform="translate(283.638672 0)"/>
     <use xlink:href="#DejaVuSans-6c" transform="translate(344.917969 0)"/>
     <use xlink:href="#DejaVuSans-64" transform="translate(372.701172 0)"/>
     <use xlink:href="#DejaVuSans-65" transform="translate(436.177734 0)"/>
     <use xlink:href="#DejaVuSans-68" transform="translate(497.701172 0)"/>
     <use xlink:href="#DejaVuSans-79" transform="translate(561.080078 0)"/>
     <use xlink:href="#DejaVuSans-64" transform="translate(620.259766 0)"/>
     <use xlink:href="#DejaVuSans-65" transform="translate(683.736328 0)"/>
    </g>
   </g>
  </g>
 </g>
 <defs>
  <clipPath id="pd6de51cee5">
   <rect x="46.8" y="-28.8" width="316.8" height="316.8"/>
  </clipPath>
 </defs>
</svg>
